<?xml version="1.0" encoding="UTF-8" standalone="no"?>
<!DOCTYPE svg PUBLIC "-//W3C//DTD SVG 1.1//EN" "http://www.w3.org/Graphics/SVG/1.1/DTD/svg11.dtd">
<svg width="100%" height="100%" viewBox="0 0 2050 467" version="1.1" xmlns="http://www.w3.org/2000/svg" xmlns:xlink="http://www.w3.org/1999/xlink" xml:space="preserve" xmlns:serif="http://www.serif.com/" style="fill-rule:evenodd;clip-rule:evenodd;stroke-miterlimit:10;">
    <g transform="matrix(4.16667,0,0,4.16667,-2975,-4016.67)">
        <g id="buyButton_hover">
            <path id="button._00000111900747134109516370000005013322237354455686_" d="M1150,970L770,970C742.4,970 720,992.4 720,1020C720,1047.6 742.4,1070 770,1070L1150,1070C1177.6,1070 1200,1047.6 1200,1020C1200,992.4 1177.6,970 1150,970Z" style="fill:white;fill-rule:nonzero;stroke:rgb(245,245,245);stroke-width:1px;"/>
            <g id="shadow_x3B__00000071549250379421291220000014154555537884086182_">
                <path id="_x30_1._00000165220757839710969730000007141783467352058029_" d="M834.5,1004.3C834.4,1003 833.4,1002.1 832.1,1002.1L823.7,1002.1L823.7,998.3C823.7,993.7 820,990 815.4,990L802,990C797.4,990 793.7,993.7 793.7,998.3L793.7,1002.1L785.3,1002.1C784,1002.1 783,1003.1 782.9,1004.3L779.2,1057.4C779.2,1058.1 779.4,1058.7 779.8,1059.2C780.3,1059.7 780.9,1060 781.6,1060L835.8,1060C836.5,1060 837.1,1059.7 837.6,1059.2C838.1,1058.7 838.3,1058 838.2,1057.4L834.5,1004.3ZM818.8,1002L798.4,1002L798.4,998.3C798.4,996.4 799.9,994.8 801.9,994.8L815.3,994.8C817.2,994.8 818.8,996.3 818.8,998.3L818.8,1002Z" style="fill:rgb(235,235,235);fill-rule:nonzero;"/>
                <g id="_x30_2_x3B__00000096058781043063149850000013963803784407460516_">
                    <path d="M896.9,1024.4C898.6,1023.7 900,1022.7 901.1,1021.4C902.6,1019.6 903.3,1017.5 903.3,1015C903.3,1011.6 902,1009 899.5,1007C897,1005 893.3,1004.1 888.6,1004.1L868.1,1004.1L868.1,1046.4L889.3,1046.4C894,1046.4 897.7,1045.3 900.5,1043.2C903.3,1041.1 904.6,1038.1 904.6,1034.4C904.6,1031.6 903.8,1029.2 902.2,1027.5C900.8,1026 899.1,1025 896.9,1024.4ZM878.8,1012.2L886.7,1012.2C888.8,1012.2 890.4,1012.5 891.4,1013.2C892.4,1013.9 892.9,1015 892.9,1016.5C892.9,1018 892.4,1019.1 891.4,1019.8C890.4,1020.5 888.9,1020.9 886.7,1020.9L878.8,1020.9L878.8,1012.2ZM892.5,1037.1C891.5,1037.9 889.9,1038.2 887.8,1038.2L878.7,1038.2L878.7,1028.9L887.8,1028.9C889.9,1028.9 891.4,1029.3 892.5,1030C893.6,1030.7 894,1031.9 894,1033.5C894.1,1035.2 893.6,1036.4 892.5,1037.1Z" style="fill:rgb(235,235,235);fill-rule:nonzero;"/>
                    <path d="M929.3,1032.9C929.3,1034.7 928.8,1036.1 927.8,1037.2C926.8,1038.3 925.6,1038.9 924,1038.9C922.6,1038.9 921.6,1038.5 921,1037.7C920.4,1036.9 920,1035.7 920,1034.1L920,1015.9L909.3,1015.9L909.3,1034.1C909.3,1038.5 910.2,1041.7 912.1,1043.9C914,1046.1 916.8,1047.1 920.7,1047.1C922.9,1047.1 924.9,1046.6 926.5,1045.5C927.7,1044.7 928.7,1043.7 929.5,1042.5L929.5,1046.4L940,1046.4L940,1015.9L929.3,1015.9L929.3,1032.9Z" style="fill:rgb(235,235,235);fill-rule:nonzero;"/>
                    <path d="M960.4,1033.6L953.6,1015.9L942.3,1015.9L954.9,1044.8L954.4,1046C953.9,1047.2 953.3,1048.1 952.4,1048.8C951.5,1049.5 950.5,1050.1 949.2,1050.5C947.9,1050.9 946.3,1051.3 944.4,1051.7L946.9,1060C948.9,1059.7 950.7,1059.3 952.3,1058.8C954,1058.3 955.5,1057.6 956.9,1056.7C958.3,1055.8 959.6,1054.5 960.9,1053C962.1,1051.4 963.3,1049.4 964.4,1047L978.1,1015.9L967.5,1015.9L960.4,1033.6Z" style="fill:rgb(235,235,235);fill-rule:nonzero;"/>
                    <path d="M1025.9,1028.5L1006.3,1004.1L998.1,1004.1L998.1,1046.4L1008.5,1046.4L1008.5,1022L1028.1,1046.4L1036.2,1046.4L1036.2,1004.1L1025.9,1004.1L1025.9,1028.5Z" style="fill:rgb(235,235,235);fill-rule:nonzero;"/>
                    <path d="M1067.4,1017.2C1064.9,1015.9 1062,1015.3 1058.6,1015.3C1055.2,1015.3 1052.3,1015.9 1049.8,1017.2C1047.3,1018.5 1045.4,1020.3 1044,1022.7C1042.6,1025.1 1042,1027.9 1042,1031.2C1042,1034.5 1042.7,1037.3 1044,1039.7C1045.3,1042.1 1047.3,1043.9 1049.8,1045.2C1052.3,1046.5 1055.2,1047.1 1058.6,1047.1C1062,1047.1 1064.9,1046.5 1067.4,1045.2C1069.9,1043.9 1071.8,1042.1 1073.2,1039.7C1074.6,1037.3 1075.2,1034.5 1075.2,1031.2C1075.2,1027.9 1074.5,1025.1 1073.2,1022.7C1071.9,1020.3 1069.9,1018.4 1067.4,1017.2ZM1062.8,1037.2C1061.8,1038.5 1060.4,1039.1 1058.6,1039.1C1056.8,1039.1 1055.4,1038.5 1054.3,1037.2C1053.2,1035.9 1052.7,1033.9 1052.7,1031.1C1052.7,1028.3 1053.2,1026.3 1054.3,1025C1055.4,1023.7 1056.8,1023.1 1058.6,1023.1C1060.4,1023.1 1061.8,1023.7 1062.8,1025C1063.8,1026.3 1064.4,1028.3 1064.4,1031.1C1064.4,1033.9 1063.9,1036 1062.8,1037.2Z" style="fill:rgb(235,235,235);fill-rule:nonzero;"/>
                    <path d="M1120.6,1015.9L1113.8,1034.2L1106.9,1015.9L1100.2,1015.9L1093.5,1033.9L1086.7,1015.9L1075.8,1015.9L1088.5,1046.4L1097.4,1046.4L1103.2,1030.9L1109.3,1046.4L1118.3,1046.4L1130.8,1015.9L1120.6,1015.9Z" style="fill:rgb(235,235,235);fill-rule:nonzero;"/>
                </g>
            </g>
            <g id="icon_x3B__00000150818005035655285090000000959523449760889761_">
                <path id="_x30_1._00000165192364558065074550000002326152629648328085_" d="M839.5,999.3C839.4,998 838.4,997.1 837.1,997.1L828.7,997.1L828.7,993.3C828.7,988.7 825,985 820.4,985L807,985C802.4,985 798.7,988.7 798.7,993.3L798.7,997.1L790.3,997.1C789,997.1 788,998.1 787.9,999.3L784.2,1052.4C784.2,1053.1 784.4,1053.7 784.8,1054.2C785.3,1054.7 785.9,1055 786.6,1055L840.8,1055C841.5,1055 842.1,1054.7 842.6,1054.2C843.1,1053.7 843.3,1053 843.2,1052.4L839.5,999.3ZM823.8,997L803.4,997L803.4,993.3C803.4,991.4 804.9,989.8 806.9,989.8L820.3,989.8C822.2,989.8 823.8,991.3 823.8,993.3L823.8,997Z" style="fill:rgb(100,0,250);fill-rule:nonzero;stroke:rgb(90,0,240);stroke-width:1px;"/>
                <g id="_x30_2_x3B__00000067947325689228808320000002740173257357251463_">
                    <path d="M901.9,1019.4C903.6,1018.7 905,1017.7 906.1,1016.4C907.6,1014.6 908.3,1012.5 908.3,1010C908.3,1006.6 907,1004 904.5,1002C902,1000 898.3,999.1 893.6,999.1L873.1,999.1L873.1,1041.4L894.3,1041.4C899,1041.4 902.7,1040.3 905.5,1038.2C908.3,1036.1 909.6,1033.1 909.6,1029.4C909.6,1026.6 908.8,1024.2 907.2,1022.5C905.8,1021 904.1,1020 901.9,1019.4ZM883.8,1007.2L891.7,1007.2C893.8,1007.2 895.4,1007.5 896.4,1008.2C897.4,1008.9 897.9,1010 897.9,1011.5C897.9,1013 897.4,1014.1 896.4,1014.8C895.4,1015.5 893.9,1015.9 891.7,1015.9L883.8,1015.9L883.8,1007.2ZM897.5,1032.1C896.5,1032.9 894.9,1033.2 892.8,1033.2L883.7,1033.2L883.7,1023.9L892.8,1023.9C894.9,1023.9 896.4,1024.3 897.5,1025C898.6,1025.7 899,1026.9 899,1028.5C899.1,1030.2 898.6,1031.4 897.5,1032.1Z" style="fill:rgb(100,0,250);fill-rule:nonzero;stroke:rgb(90,0,240);stroke-width:1px;"/>
                    <path d="M934.3,1027.9C934.3,1029.7 933.8,1031.1 932.8,1032.2C931.8,1033.3 930.6,1033.9 929,1033.9C927.6,1033.9 926.6,1033.5 926,1032.7C925.4,1031.9 925,1030.7 925,1029.1L925,1010.9L914.3,1010.9L914.3,1029.1C914.3,1033.5 915.2,1036.7 917.1,1038.9C919,1041.1 921.8,1042.1 925.7,1042.1C927.9,1042.1 929.9,1041.6 931.5,1040.5C932.7,1039.7 933.7,1038.7 934.5,1037.5L934.5,1041.4L945,1041.4L945,1010.9L934.3,1010.9L934.3,1027.9Z" style="fill:rgb(100,0,250);fill-rule:nonzero;stroke:rgb(90,0,240);stroke-width:1px;"/>
                    <path d="M965.4,1028.6L958.6,1010.9L947.3,1010.9L959.9,1039.8L959.4,1041C958.9,1042.2 958.3,1043.1 957.4,1043.8C956.5,1044.5 955.5,1045.1 954.2,1045.5C952.9,1045.9 951.3,1046.3 949.4,1046.7L951.9,1055C953.9,1054.7 955.7,1054.3 957.3,1053.8C959,1053.3 960.5,1052.6 961.9,1051.7C963.3,1050.8 964.6,1049.5 965.9,1048C967.1,1046.4 968.3,1044.4 969.4,1042L983.1,1010.9L972.5,1010.9L965.4,1028.6Z" style="fill:rgb(100,0,250);fill-rule:nonzero;stroke:rgb(90,0,240);stroke-width:1px;"/>
                    <path d="M1030.9,1023.5L1011.3,999.1L1003.1,999.1L1003.1,1041.4L1013.5,1041.4L1013.5,1017L1033.1,1041.4L1041.2,1041.4L1041.2,999.1L1030.9,999.1L1030.9,1023.5Z" style="fill:rgb(100,0,250);fill-rule:nonzero;stroke:rgb(90,0,240);stroke-width:1px;"/>
                    <path d="M1072.4,1012.2C1069.9,1010.9 1067,1010.3 1063.6,1010.3C1060.2,1010.3 1057.3,1010.9 1054.8,1012.2C1052.3,1013.5 1050.4,1015.3 1049,1017.7C1047.6,1020.1 1047,1022.9 1047,1026.2C1047,1029.5 1047.7,1032.3 1049,1034.7C1050.3,1037.1 1052.3,1038.9 1054.8,1040.2C1057.3,1041.5 1060.2,1042.1 1063.6,1042.1C1067,1042.1 1069.9,1041.5 1072.4,1040.2C1074.9,1038.9 1076.8,1037.1 1078.2,1034.7C1079.6,1032.3 1080.2,1029.5 1080.2,1026.2C1080.2,1022.9 1079.5,1020.1 1078.2,1017.7C1076.9,1015.3 1074.9,1013.4 1072.4,1012.2ZM1067.8,1032.2C1066.8,1033.5 1065.4,1034.1 1063.6,1034.1C1061.8,1034.1 1060.4,1033.5 1059.3,1032.2C1058.2,1030.9 1057.7,1028.9 1057.7,1026.1C1057.7,1023.3 1058.2,1021.3 1059.3,1020C1060.4,1018.7 1061.8,1018.1 1063.6,1018.1C1065.4,1018.1 1066.8,1018.7 1067.8,1020C1068.8,1021.3 1069.4,1023.3 1069.4,1026.1C1069.4,1028.9 1068.9,1031 1067.8,1032.2Z" style="fill:rgb(100,0,250);fill-rule:nonzero;stroke:rgb(90,0,240);stroke-width:1px;"/>
                    <path d="M1125.6,1010.9L1118.8,1029.2L1111.9,1010.9L1105.2,1010.9L1098.5,1028.9L1091.7,1010.9L1080.8,1010.9L1093.5,1041.4L1102.4,1041.4L1108.2,1025.9L1114.3,1041.4L1123.3,1041.4L1135.8,1010.9L1125.6,1010.9Z" style="fill:rgb(100,0,250);fill-rule:nonzero;stroke:rgb(90,0,240);stroke-width:1px;"/>
                </g>
            </g>
        </g>
    </g>
</svg>
