<svg id="visual" viewBox="0 0 900 600" width="900" height="600" xmlns="http://www.w3.org/2000/svg" xmlns:xlink="http://www.w3.org/1999/xlink" version="1.1"><rect width="900" height="600" fill="#ffffff"></rect><g><g transform="translate(260 131)"><path d="M82.9 -28.2C94.7 9.3 82.6 53.2 52.6 75.8C22.6 98.4 -25.4 99.7 -56.6 77.2C-87.9 54.7 -102.3 8.4 -90.1 -29.7C-77.9 -67.8 -38.9 -97.6 -1.7 -97.1C35.6 -96.5 71.1 -65.6 82.9 -28.2Z" stroke="#F7760E" fill="none" stroke-width="20"></path></g><g transform="translate(204 469)"><path d="M80.5 -23.8C90.9 5.5 76.3 45.3 47.4 66.8C18.4 88.2 -25.1 91.3 -52.6 71.5C-80.2 51.7 -91.9 9 -80.4 -21.9C-69 -52.8 -34.5 -71.9 0.3 -72C35.1 -72.1 70.2 -53.2 80.5 -23.8Z" stroke="#F7760E" fill="none" stroke-width="20"></path></g><g transform="translate(734 355)"><path d="M68.8 -22C79.3 9.8 71 48.1 46.1 67.2C21.1 86.2 -20.6 86 -48.1 66.1C-75.6 46.2 -88.7 6.5 -78.4 -25.2C-68 -57 -34 -80.9 -2.4 -80.1C29.2 -79.3 58.4 -53.9 68.8 -22Z" stroke="#F7760E" fill="none" stroke-width="20"></path></g></g></svg>