<?xml version="1.0" encoding="UTF-8" standalone="no"?>
<!DOCTYPE svg PUBLIC "-//W3C//DTD SVG 1.1//EN" "http://www.w3.org/Graphics/SVG/1.1/DTD/svg11.dtd">
<svg width="100%" height="100%" viewBox="0 0 338 275" version="1.1" xmlns="http://www.w3.org/2000/svg" xmlns:xlink="http://www.w3.org/1999/xlink" xml:space="preserve" xmlns:serif="http://www.serif.com/" style="fill-rule:evenodd;clip-rule:evenodd;stroke-miterlimit:10;">
    <g transform="matrix(4.16667,0,0,4.16667,-3041.67,-112.5)">
        <path id="icon_x3B__00000052067387062555889460000014438059219592891275_" d="M794.2,37.4C789.7,35.3 785,33.8 780,32.9C779.9,32.9 779.8,32.9 779.8,33C779.2,34.1 778.5,35.6 778,36.7C772.6,35.9 767.3,35.9 762,36.7C761.5,35.5 760.8,34.1 760.2,33C760.2,32.9 760.1,32.9 760,32.9C755,33.8 750.2,35.3 745.8,37.4C745.8,37.4 745.7,37.4 745.7,37.5C736.6,51.3 734.1,64.7 735.4,77.9C735.4,78 735.4,78 735.5,78.1C741.5,82.6 747.3,85.3 753,87.1C753.1,87.1 753.2,87.1 753.2,87C754.5,85.1 755.7,83.2 756.8,81.1C756.9,81 756.8,80.8 756.7,80.8C754.8,80.1 753,79.2 751.2,78.2C751.1,78.1 751,77.9 751.2,77.8C751.6,77.5 751.9,77.2 752.3,76.9C752.4,76.8 752.5,76.8 752.5,76.9C764,82.2 776.4,82.2 787.7,76.9L787.9,76.9C788.2,77.2 788.6,77.5 789,77.8C789.1,77.9 789.1,78.1 789,78.2C787.3,79.2 785.4,80.1 783.5,80.8C783.4,80.9 783.3,81 783.4,81.1C784.4,83.2 785.6,85.1 787,87C787.1,87.1 787.2,87.1 787.2,87.1C792.9,85.3 798.7,82.6 804.7,78.1C804.7,78.1 804.8,78 804.8,77.9C806.3,62.6 802.4,49.3 794.5,37.5C794.3,37.5 794.3,37.4 794.2,37.4ZM758.4,69.8C754.9,69.8 752.1,66.6 752.1,62.6C752.1,58.7 754.9,55.4 758.4,55.4C761.9,55.4 764.7,58.6 764.7,62.6C764.7,66.6 761.9,69.8 758.4,69.8ZM781.6,69.8C778.1,69.8 775.3,66.6 775.3,62.6C775.3,58.7 778.1,55.4 781.6,55.4C785.1,55.4 787.9,58.6 787.9,62.6C787.9,66.6 785.2,69.8 781.6,69.8Z" style="fill:white;fill-rule:nonzero;stroke:rgb(245,245,245);stroke-width:1px;"/>
    </g>
</svg>
