<?xml version="1.0" encoding="UTF-8" standalone="no"?>
<!DOCTYPE svg PUBLIC "-//W3C//DTD SVG 1.1//EN" "http://www.w3.org/Graphics/SVG/1.1/DTD/svg11.dtd">
<svg width="100%" height="100%" viewBox="0 0 467 467" version="1.1" xmlns="http://www.w3.org/2000/svg" xmlns:xlink="http://www.w3.org/1999/xlink" xml:space="preserve" xmlns:serif="http://www.serif.com/" style="fill-rule:evenodd;clip-rule:evenodd;stroke-miterlimit:10;">
    <g transform="matrix(4.16667,0,0,4.16667,-2975,-16.6667)">
        <g id="discord_normal">
            <circle id="button._00000050653817619784530140000015704516569870370186_" cx="770" cy="60" r="50" style="fill:rgb(100,0,250);stroke:rgb(90,0,240);stroke-width:1px;"/>
            <path id="shadow_x3B__00000157309476532540309910000007436398500194688693_" d="M789.2,42.4C784.7,40.3 780,38.8 775,37.9C774.9,37.9 774.8,37.9 774.8,38C774.2,39.1 773.5,40.6 773,41.7C767.6,40.9 762.3,40.9 757,41.7C756.5,40.5 755.8,39.1 755.2,38C755.2,37.9 755.1,37.9 755,37.9C750,38.8 745.2,40.3 740.8,42.4C740.8,42.4 740.7,42.4 740.7,42.5C731.6,56.3 729.1,69.7 730.4,82.9C730.4,83 730.4,83 730.5,83.1C736.5,87.6 742.3,90.3 748,92.1C748.1,92.1 748.2,92.1 748.2,92C749.5,90.1 750.7,88.2 751.8,86.1C751.9,86 751.8,85.8 751.7,85.8C749.8,85.1 748,84.2 746.2,83.2C746.1,83.1 746,82.9 746.2,82.8C746.6,82.5 746.9,82.2 747.3,81.9C747.4,81.8 747.5,81.8 747.5,81.9C759,87.2 771.4,87.2 782.7,81.9L782.9,81.9C783.2,82.2 783.6,82.5 784,82.8C784.1,82.9 784.1,83.1 784,83.2C782.3,84.2 780.4,85.1 778.5,85.8C778.4,85.9 778.3,86 778.4,86.1C779.4,88.2 780.6,90.1 782,92C782.1,92.1 782.2,92.1 782.2,92.1C787.9,90.3 793.7,87.6 799.7,83.1C799.7,83.1 799.8,83 799.8,82.9C801.3,67.6 797.4,54.3 789.5,42.5C789.3,42.5 789.3,42.4 789.2,42.4ZM753.4,74.8C749.9,74.8 747.1,71.6 747.1,67.6C747.1,63.7 749.9,60.4 753.4,60.4C756.9,60.4 759.7,63.6 759.7,67.6C759.7,71.6 756.9,74.8 753.4,74.8ZM776.6,74.8C773.1,74.8 770.3,71.6 770.3,67.6C770.3,63.7 773.1,60.4 776.6,60.4C780.1,60.4 782.9,63.6 782.9,67.6C782.9,71.6 780.2,74.8 776.6,74.8Z" style="fill:rgb(90,0,210);fill-rule:nonzero;"/>
            <path id="icon_x3B__00000052067387062555889460000014438059219592891275_" d="M794.2,37.4C789.7,35.3 785,33.8 780,32.9C779.9,32.9 779.8,32.9 779.8,33C779.2,34.1 778.5,35.6 778,36.7C772.6,35.9 767.3,35.9 762,36.7C761.5,35.5 760.8,34.1 760.2,33C760.2,32.9 760.1,32.9 760,32.9C755,33.8 750.2,35.3 745.8,37.4C745.8,37.4 745.7,37.4 745.7,37.5C736.6,51.3 734.1,64.7 735.4,77.9C735.4,78 735.4,78 735.5,78.1C741.5,82.6 747.3,85.3 753,87.1C753.1,87.1 753.2,87.1 753.2,87C754.5,85.1 755.7,83.2 756.8,81.1C756.9,81 756.8,80.8 756.7,80.8C754.8,80.1 753,79.2 751.2,78.2C751.1,78.1 751,77.9 751.2,77.8C751.6,77.5 751.9,77.2 752.3,76.9C752.4,76.8 752.5,76.8 752.5,76.9C764,82.2 776.4,82.2 787.7,76.9L787.9,76.9C788.2,77.2 788.6,77.5 789,77.8C789.1,77.9 789.1,78.1 789,78.2C787.3,79.2 785.4,80.1 783.5,80.8C783.4,80.9 783.3,81 783.4,81.1C784.4,83.2 785.6,85.1 787,87C787.1,87.1 787.2,87.1 787.2,87.1C792.9,85.3 798.7,82.6 804.7,78.1C804.7,78.1 804.8,78 804.8,77.9C806.3,62.6 802.4,49.3 794.5,37.5C794.3,37.5 794.3,37.4 794.2,37.4ZM758.4,69.8C754.9,69.8 752.1,66.6 752.1,62.6C752.1,58.7 754.9,55.4 758.4,55.4C761.9,55.4 764.7,58.6 764.7,62.6C764.7,66.6 761.9,69.8 758.4,69.8ZM781.6,69.8C778.1,69.8 775.3,66.6 775.3,62.6C775.3,58.7 778.1,55.4 781.6,55.4C785.1,55.4 787.9,58.6 787.9,62.6C787.9,66.6 785.2,69.8 781.6,69.8Z" style="fill:white;fill-rule:nonzero;stroke:rgb(245,245,245);stroke-width:1px;"/>
        </g>
    </g>
</svg>
