<?xml version="1.0" encoding="UTF-8" standalone="no"?><!DOCTYPE svg PUBLIC "-//W3C//DTD SVG 1.1//EN" "http://www.w3.org/Graphics/SVG/1.1/DTD/svg11.dtd"><svg width="100%" height="100%" viewBox="0 0 112 112" version="1.1" xmlns="http://www.w3.org/2000/svg" xmlns:xlink="http://www.w3.org/1999/xlink" xml:space="preserve" xmlns:serif="http://www.serif.com/" style="fill-rule:evenodd;clip-rule:evenodd;stroke-miterlimit:10;"><g id="icon_discord_yellow_normal"><circle id="button._00000177460560200145729520000012343766787390650249_" cx="56" cy="56" r="50" style="fill:#faaa28;stroke:#f0a01e;stroke-width:1px;"/><path id="shadow_x3B__00000160888370038419088450000011786335404936668552_" d="M75.2,38.4c-4.5,-2.1 -9.2,-3.6 -14.2,-4.5c-0.1,0 -0.2,0 -0.2,0.1c-0.6,1.1 -1.3,2.6 -1.8,3.7c-5.4,-0.8 -10.7,-0.8 -16,-0c-0.5,-1.2 -1.2,-2.6 -1.8,-3.7c0,-0.1 -0.1,-0.1 -0.2,-0.1c-5,0.9 -9.8,2.4 -14.2,4.5c-0,0 -0.1,0 -0.1,0.1c-9.1,13.8 -11.6,27.2 -10.3,40.4c-0,0.1 -0,0.1 0.1,0.2c6,4.5 11.8,7.2 17.5,9c0.1,-0 0.2,-0 0.2,-0.1c1.3,-1.9 2.5,-3.8 3.6,-5.9c0.1,-0.1 0,-0.3 -0.1,-0.3c-1.9,-0.7 -3.7,-1.6 -5.5,-2.6c-0.1,-0.1 -0.2,-0.3 0,-0.4c0.4,-0.3 0.7,-0.6 1.1,-0.9c0.1,-0.1 0.2,-0.1 0.2,-0c11.5,5.3 23.9,5.3 35.2,-0l0.2,-0c0.3,0.3 0.7,0.6 1.1,0.9c0.1,0.1 0.1,0.3 0,0.4c-1.7,1 -3.6,1.9 -5.5,2.6c-0.1,0.1 -0.2,0.2 -0.1,0.3c1,2.1 2.2,4 3.6,5.9c0.1,0.1 0.2,0.1 0.2,0.1c5.7,-1.8 11.5,-4.5 17.5,-9c0,-0 0.1,-0.1 0.1,-0.2c1.5,-15.3 -2.4,-28.6 -10.3,-40.4c-0.2,-0 -0.2,-0 -0.3,-0.1Zm-35.8,32.5c-3.5,0 -6.3,-3.2 -6.3,-7.2c0,-3.9 2.8,-7.2 6.3,-7.2c3.5,0 6.3,3.2 6.3,7.2c-0,4 -2.8,7.2 -6.3,7.2Zm23.2,0c-3.5,0 -6.3,-3.2 -6.3,-7.2c0,-3.9 2.8,-7.2 6.3,-7.2c3.5,0 6.3,3.2 6.3,7.2c-0,4 -2.7,7.2 -6.3,7.2Z" style="fill:#e69614;fill-rule:nonzero;"/><path id="icon_x3B__00000108997737580595381350000012309998607709335718_" d="M80.2,33.4c-4.5,-2.1 -9.2,-3.6 -14.2,-4.5c-0.1,0 -0.2,0 -0.2,0.1c-0.6,1.1 -1.3,2.6 -1.8,3.7c-5.4,-0.8 -10.7,-0.8 -16,-0c-0.5,-1.2 -1.2,-2.6 -1.8,-3.7c0,-0.1 -0.1,-0.1 -0.2,-0.1c-5,0.9 -9.8,2.4 -14.2,4.5c-0,0 -0.1,0 -0.1,0.1c-9.1,13.8 -11.6,27.2 -10.3,40.4c-0,0.1 -0,0.1 0.1,0.2c6,4.5 11.8,7.2 17.5,9c0.1,-0 0.2,-0 0.2,-0.1c1.3,-1.9 2.5,-3.8 3.6,-5.9c0.1,-0.1 0,-0.3 -0.1,-0.3c-1.9,-0.7 -3.7,-1.6 -5.5,-2.6c-0.1,-0.1 -0.2,-0.3 0,-0.4c0.4,-0.3 0.7,-0.6 1.1,-0.9c0.1,-0.1 0.2,-0.1 0.2,-0c11.5,5.3 23.9,5.3 35.2,-0l0.2,-0c0.3,0.3 0.7,0.6 1.1,0.9c0.1,0.1 0.1,0.3 0,0.4c-1.7,1 -3.6,1.9 -5.5,2.6c-0.1,0.1 -0.2,0.2 -0.1,0.3c1,2.1 2.2,4 3.6,5.9c0.1,0.1 0.2,0.1 0.2,0.1c5.7,-1.8 11.5,-4.5 17.5,-9c0,-0 0.1,-0.1 0.1,-0.2c1.5,-15.3 -2.4,-28.6 -10.3,-40.4c-0.2,-0 -0.2,-0 -0.3,-0.1Zm-35.8,32.5c-3.5,0 -6.3,-3.2 -6.3,-7.2c0,-3.9 2.8,-7.2 6.3,-7.2c3.5,0 6.3,3.2 6.3,7.2c-0,4 -2.8,7.2 -6.3,7.2Zm23.2,0c-3.5,0 -6.3,-3.2 -6.3,-7.2c0,-3.9 2.8,-7.2 6.3,-7.2c3.5,0 6.3,3.2 6.3,7.2c-0,4 -2.7,7.2 -6.3,7.2Z" style="fill:#fff;fill-rule:nonzero;stroke:#f5f5f5;stroke-width:1px;"/></g></svg>