<?xml version="1.0" encoding="UTF-8" standalone="no"?><!DOCTYPE svg PUBLIC "-//W3C//DTD SVG 1.1//EN" "http://www.w3.org/Graphics/SVG/1.1/DTD/svg11.dtd"><svg width="100%" height="100%" viewBox="0 0 112 112" version="1.1" xmlns="http://www.w3.org/2000/svg" xmlns:xlink="http://www.w3.org/1999/xlink" xml:space="preserve" xmlns:serif="http://www.serif.com/" style="fill-rule:evenodd;clip-rule:evenodd;stroke-miterlimit:10;"><g id="icon_twitter_yellow_normal"><circle id="button._00000135672667333737736490000017943811033986770362_" cx="56" cy="56" r="50" style="fill:#faaa28;stroke:#f0a01e;stroke-width:1px;"/><path id="shadow_x3B__00000173880384043732622390000017658488214055594638_" d="M86,39.3c-2.6,1.1 -5.3,1.9 -8.3,2.3c3,-1.8 5.3,-4.6 6.3,-7.9c-2.8,1.6 -5.9,2.8 -9.1,3.4c-2.6,-2.8 -6.4,-4.5 -10.5,-4.5c-7.9,0 -14.3,6.4 -14.3,14.4c0,1.1 0.1,2.2 0.4,3.3c-11.9,-0.6 -22.5,-6.3 -29.6,-15c-1.2,2.1 -2,4.6 -2,7.2c-0,4.9 2.5,9.4 6.4,11.9c-2.3,-0.1 -4.6,-0.7 -6.5,-1.8l-0,0.2c-0,6.9 5,12.7 11.5,14.1c-1.2,0.3 -2.5,0.5 -3.8,0.5c-0.9,0 -1.8,-0.1 -2.7,-0.3c1.8,5.7 7.1,9.9 13.4,10c-4.9,3.9 -11.1,6.2 -17.8,6.2c-1.2,-0 -2.3,-0.1 -3.4,-0.2c6.3,4.1 13.9,6.5 22,6.5c26.4,-0 40.9,-21.9 40.9,-40.9l-0,-1.9c2.7,-2.1 5.2,-4.6 7.1,-7.5Z" style="fill:#e69614;fill-rule:nonzero;"/><path id="icon_x3B__00000157300165254544854270000001558774739558653344_" d="M91,34.3c-2.6,1.1 -5.3,1.9 -8.3,2.3c3,-1.8 5.3,-4.6 6.3,-7.9c-2.8,1.6 -5.9,2.8 -9.1,3.4c-2.6,-2.8 -6.4,-4.5 -10.5,-4.5c-7.9,0 -14.3,6.4 -14.3,14.4c0,1.1 0.1,2.2 0.4,3.3c-11.9,-0.6 -22.5,-6.3 -29.6,-15c-1.2,2.1 -2,4.6 -2,7.2c-0,4.9 2.5,9.4 6.4,11.9c-2.3,-0.1 -4.6,-0.7 -6.5,-1.8l-0,0.2c-0,6.9 5,12.7 11.5,14.1c-1.2,0.3 -2.5,0.5 -3.8,0.5c-0.9,0 -1.8,-0.1 -2.7,-0.3c1.8,5.7 7.1,9.9 13.4,10c-4.9,3.9 -11.1,6.2 -17.8,6.2c-1.2,-0 -2.3,-0.1 -3.4,-0.2c6.3,4.1 13.9,6.5 22,6.5c26.4,-0 40.9,-21.9 40.9,-40.9l-0,-1.9c2.7,-2.1 5.2,-4.6 7.1,-7.5Z" style="fill:#fff;fill-rule:nonzero;stroke:#f5f5f5;stroke-width:1px;"/></g></svg>