<?xml version="1.0" encoding="UTF-8" standalone="no"?>
<!DOCTYPE svg PUBLIC "-//W3C//DTD SVG 1.1//EN" "http://www.w3.org/Graphics/SVG/1.1/DTD/svg11.dtd">
<svg width="100%" height="100%" viewBox="0 0 467 467" version="1.1" xmlns="http://www.w3.org/2000/svg" xmlns:xlink="http://www.w3.org/1999/xlink" xml:space="preserve" xmlns:serif="http://www.serif.com/" style="fill-rule:evenodd;clip-rule:evenodd;stroke-miterlimit:10;">
    <g transform="matrix(4.16667,0,0,4.16667,-3766.67,-16.6667)">
        <g id="twitter_hover">
            <circle id="button._00000152983907537676466000000006340240354002362298_" cx="960" cy="60" r="50" style="fill:white;stroke:rgb(245,245,245);stroke-width:1px;"/>
            <path id="shadow_x3B__00000116943960994043665590000004067750899634881441_" d="M990,43.3C987.4,44.4 984.7,45.2 981.7,45.6C984.7,43.8 987,41 988,37.7C985.2,39.3 982.1,40.5 978.9,41.2C976.3,38.4 972.5,36.7 968.4,36.7C960.5,36.7 954.1,43.1 954.1,51C954.1,52.1 954.2,53.2 954.5,54.3C942.6,53.7 932,48 924.9,39.3C923.7,41.4 922.9,43.9 922.9,46.5C922.9,51.5 925.4,55.9 929.3,58.4C927,58.3 924.7,57.7 922.8,56.6L922.8,56.8C922.8,63.8 927.8,69.5 934.3,70.9C933.1,71.2 931.8,71.4 930.5,71.4C929.6,71.4 928.7,71.3 927.8,71.1C929.6,76.8 934.9,81 941.2,81.1C936.3,84.9 930.1,87.3 923.4,87.3C922.2,87.3 921.1,87.2 920,87.1C926.3,91.2 933.9,93.6 942,93.6C968.4,93.6 982.9,71.7 982.9,52.7L982.9,50.9C985.6,48.7 988.1,46.2 990,43.3Z" style="fill:rgb(235,235,235);fill-rule:nonzero;"/>
            <path id="icon_x3B__00000107557285523358286720000015587195115003002774_" d="M995,38.3C992.4,39.4 989.7,40.2 986.7,40.6C989.7,38.8 992,36 993,32.7C990.2,34.3 987.1,35.5 983.9,36.2C981.3,33.4 977.5,31.7 973.4,31.7C965.5,31.7 959.1,38.1 959.1,46C959.1,47.1 959.2,48.2 959.5,49.3C947.6,48.7 937,43 929.9,34.3C928.7,36.4 927.9,38.9 927.9,41.5C927.9,46.5 930.4,50.9 934.3,53.4C932,53.3 929.7,52.7 927.8,51.6L927.8,51.8C927.8,58.8 932.8,64.5 939.3,65.9C938.1,66.2 936.8,66.4 935.5,66.4C934.6,66.4 933.7,66.3 932.8,66.1C934.6,71.8 939.9,76 946.2,76.1C941.3,79.9 935.1,82.3 928.4,82.3C927.2,82.3 926.1,82.2 925,82.1C931.3,86.2 938.9,88.6 947,88.6C973.4,88.6 987.9,66.7 987.9,47.7L987.9,45.9C990.6,43.7 993.1,41.2 995,38.3Z" style="fill:rgb(100,0,250);fill-rule:nonzero;stroke:rgb(90,0,240);stroke-width:1px;"/>
        </g>
    </g>
</svg>
