<?xml version="1.0" encoding="UTF-8" standalone="no"?><!DOCTYPE svg PUBLIC "-//W3C//DTD SVG 1.1//EN" "http://www.w3.org/Graphics/SVG/1.1/DTD/svg11.dtd"><svg width="100%" height="100%" viewBox="0 0 112 112" version="1.1" xmlns="http://www.w3.org/2000/svg" xmlns:xlink="http://www.w3.org/1999/xlink" xml:space="preserve" xmlns:serif="http://www.serif.com/" style="fill-rule:evenodd;clip-rule:evenodd;stroke-miterlimit:10;"><g id="icon_opensea_yellow_hover"><circle id="button._00000086653244648101836860000015648076159813150855_" cx="56" cy="56" r="50" style="fill:#fff;stroke:#f5f5f5;stroke-width:1px;"/><path id="shadow_x3B__00000104698975507323405460000012349259660332459138_" d="M85.3,69.3l-17.3,5c-0.1,0 -0.2,0.1 -0.2,0.2c-1.9,2.1 -3.5,3.5 -3.9,3.8c-1.1,0.9 -2.4,1.4 -3.8,1.4l-6.2,0l-0,-6.4l5,0c0.1,0 0.2,-0.1 0.3,-0.1l0.6,-0.6c0.3,-0.2 0.6,-0.6 1,-0.9c0.2,-0.2 0.5,-0.5 0.7,-0.8c0.3,-0.2 0.5,-0.5 0.7,-0.8c0.4,-0.4 0.8,-0.9 1.2,-1.3c0.3,-0.3 0.5,-0.7 0.8,-1c0.3,-0.3 0.6,-0.7 0.8,-1c0.2,-0.3 0.4,-0.6 0.6,-0.9c0.2,-0.3 0.4,-0.6 0.5,-0.9c0.5,-0.8 0.9,-1.6 1.2,-2.4c0.2,-0.4 0.3,-0.8 0.5,-1.2c0.1,-0.4 0.3,-0.8 0.3,-1.2c0.2,-1 0.3,-1.9 0.2,-2.9c-0,-0.3 -0.1,-0.6 -0.1,-0.9l-0,-0.1c-0,-0.2 -0.1,-0.4 -0.1,-0.6c-0.2,-1 -0.5,-1.9 -0.9,-2.8c-0.1,-0.3 -0.3,-0.7 -0.5,-1c-0.4,-0.7 -0.8,-1.4 -1.2,-2.1c-0.2,-0.2 -0.3,-0.5 -0.5,-0.8c-0.3,-0.5 -0.7,-1 -1.1,-1.5c-0.3,-0.4 -0.6,-0.7 -0.9,-1.1c-0.3,-0.4 -0.6,-0.7 -0.9,-1.1c-1.1,-1.2 -2.2,-2.3 -3.2,-3.3c-0.2,-0.2 -0.4,-0.4 -0.6,-0.6c-0.8,-0.7 -1.5,-1.3 -2.1,-1.8c-0.3,-0.2 -0.6,-0.5 -0.8,-0.7c-0.3,-0.2 -0.5,-0.4 -0.7,-0.5c-0.1,-0 -0.1,-0.1 -0.2,-0.1l-0.7,-0.2l-0,-5.5c-0,-0.9 -0.4,-1.7 -0.9,-2.3c-0.6,-0.6 -1.4,-1 -2.3,-1c-1.8,-0 -3.2,1.5 -3.2,3.2l-0,3.7l-1.2,-0.4l-0.8,-0.2l-6.2,-1.7c-0.3,-0.1 -0.5,0.2 -0.4,0.5l1,1.8c0.1,0.2 0.2,0.5 0.3,0.7c0.2,0.3 0.3,0.7 0.5,1c0.1,0.3 0.3,0.6 0.4,0.9c0.3,0.7 0.7,1.5 1,2.3c0.2,0.5 0.5,1.1 0.7,1.7c0.6,1.4 1.1,3 1.6,4.6c0.2,0.5 0.3,1 0.4,1.5l0.1,0.3c0.2,0.7 0.3,1.5 0.5,2.2c0.1,0.5 0.2,1 0.2,1.5c0.1,0.5 0.1,1.1 0.2,1.7c0.1,0.5 0.1,1 0.1,1.6c-0,1.3 -0.1,2.5 -0.4,3.7c-0.1,0.3 -0.2,0.7 -0.3,1.1c-0.1,0.4 -0.3,0.8 -0.4,1.3c-0.1,0.2 -0.2,0.5 -0.3,0.8c-0.6,1.4 -1.3,2.8 -2,4.1c-1.1,1.9 -2.2,3.6 -2.9,4.7c-0.1,0.2 -0.2,0.3 -0.3,0.4c-0.2,0.3 -0,0.8 0.4,0.8l8.1,-0l-0,6.4l-8.2,-0c-2.2,-0 -4.2,-1.2 -5.2,-3.2c-0.5,-1 -0.7,-2.1 -0.6,-3.2c-0,-0.3 -0.2,-0.6 -0.5,-0.6l-16.5,0c-0.3,0 -0.5,0.2 -0.5,0.5l-0,0.3c-0,10.5 8.5,19 19,19l29.6,0c7.1,0 10.3,-8.3 14.4,-14c1.6,-2.3 5.5,-4.1 6.7,-4.6c0.2,-0.1 0.3,-0.3 0.3,-0.5l-0,-3.7c-0.2,-0.1 -0.6,-0.3 -0.9,-0.2Z" style="fill:#ebebeb;fill-rule:nonzero;"/><path id="icon_x3B__00000163045237514924560830000015542260134409080749_" d="M90.3,64.3l-17.3,5c-0.1,0 -0.2,0.1 -0.2,0.2c-1.9,2.1 -3.5,3.5 -3.9,3.8c-1.1,0.9 -2.4,1.4 -3.8,1.4l-6.2,0l-0,-6.4l5,0c0.1,0 0.2,-0.1 0.3,-0.1l0.6,-0.6c0.3,-0.2 0.6,-0.6 1,-0.9c0.2,-0.2 0.5,-0.5 0.7,-0.8c0.3,-0.2 0.5,-0.5 0.7,-0.8c0.4,-0.4 0.8,-0.9 1.2,-1.3c0.3,-0.3 0.5,-0.7 0.8,-1c0.3,-0.3 0.6,-0.7 0.8,-1c0.2,-0.3 0.4,-0.6 0.6,-0.9c0.2,-0.3 0.4,-0.6 0.5,-0.9c0.5,-0.8 0.9,-1.6 1.2,-2.4c0.2,-0.4 0.3,-0.8 0.5,-1.2c0.1,-0.4 0.3,-0.8 0.3,-1.2c0.2,-1 0.3,-1.9 0.2,-2.9c-0,-0.3 -0.1,-0.6 -0.1,-0.9l-0,-0.1c-0,-0.2 -0.1,-0.4 -0.1,-0.6c-0.2,-1 -0.5,-1.9 -0.9,-2.8c-0.1,-0.3 -0.3,-0.7 -0.5,-1c-0.4,-0.7 -0.8,-1.4 -1.2,-2.1c-0.2,-0.2 -0.3,-0.5 -0.5,-0.8c-0.3,-0.5 -0.7,-1 -1.1,-1.5c-0.3,-0.4 -0.6,-0.7 -0.9,-1.1c-0.3,-0.4 -0.6,-0.7 -0.9,-1.1c-1.1,-1.2 -2.2,-2.3 -3.2,-3.3c-0.2,-0.2 -0.4,-0.4 -0.6,-0.6c-0.8,-0.7 -1.5,-1.3 -2.1,-1.8c-0.3,-0.2 -0.6,-0.5 -0.8,-0.7c-0.3,-0.2 -0.5,-0.4 -0.7,-0.5c-0.1,-0 -0.1,-0.1 -0.2,-0.1l-0.7,-0.2l-0,-5.5c-0,-0.9 -0.4,-1.7 -0.9,-2.3c-0.6,-0.6 -1.4,-1 -2.3,-1c-1.8,-0 -3.2,1.5 -3.2,3.2l-0,3.7l-1.2,-0.4l-0.8,-0.2l-6.2,-1.7c-0.3,-0.1 -0.5,0.2 -0.4,0.5l1,1.8c0.1,0.2 0.2,0.5 0.3,0.7c0.2,0.3 0.3,0.7 0.5,1c0.1,0.3 0.3,0.6 0.4,0.9c0.3,0.7 0.7,1.5 1,2.3c0.2,0.5 0.5,1.1 0.7,1.7c0.6,1.4 1.1,3 1.6,4.6c0.2,0.5 0.3,1 0.4,1.5l0.1,0.3c0.2,0.7 0.3,1.5 0.5,2.2c0.1,0.5 0.2,1 0.2,1.5c0.1,0.5 0.1,1.1 0.2,1.7c0.1,0.5 0.1,1 0.1,1.6c-0,1.3 -0.1,2.5 -0.4,3.7c-0.1,0.3 -0.2,0.7 -0.3,1.1c-0.1,0.4 -0.3,0.8 -0.4,1.3c-0.1,0.2 -0.2,0.5 -0.3,0.8c-0.6,1.4 -1.3,2.8 -2,4.1c-1.1,1.9 -2.2,3.6 -2.9,4.7c-0.1,0.2 -0.2,0.3 -0.3,0.4c-0.2,0.3 -0,0.8 0.4,0.8l8.1,-0l-0,6.4l-8.2,-0c-2.2,-0 -4.2,-1.2 -5.2,-3.2c-0.5,-1 -0.7,-2.1 -0.6,-3.2c-0,-0.3 -0.2,-0.6 -0.5,-0.6l-16.5,-0c-0.3,-0 -0.5,0.2 -0.5,0.5l-0,0.3c-0,10.5 8.5,19 19,19l29.6,0c7.1,0 10.3,-8.3 14.4,-14c1.6,-2.3 5.5,-4.1 6.7,-4.6c0.2,-0.1 0.3,-0.3 0.3,-0.5l-0,-3.7c-0.2,-0.1 -0.6,-0.3 -0.9,-0.2Z" style="fill:#faaa28;fill-rule:nonzero;stroke:#f0a01e;stroke-width:1px;"/></g></svg>