<?xml version="1.0" encoding="UTF-8" standalone="no"?>
<!DOCTYPE svg PUBLIC "-//W3C//DTD SVG 1.1//EN" "http://www.w3.org/Graphics/SVG/1.1/DTD/svg11.dtd">
<svg width="100%" height="100%" viewBox="0 0 8001 2229" version="1.1" xmlns="http://www.w3.org/2000/svg" xmlns:xlink="http://www.w3.org/1999/xlink" xml:space="preserve" xmlns:serif="http://www.serif.com/" style="fill-rule:evenodd;clip-rule:evenodd;stroke-linejoin:round;stroke-miterlimit:2;">
    <g transform="matrix(4.16652,0.0347822,-0.0347822,4.16652,32.6742,-2316.57)">
        <path d="M-3.043,574.919L-2.893,592.815C2.007,591.515 8.68,591.1 10.48,591.1C14.38,591 20.08,590.9 25.88,594.1C26.28,594.4 26.78,594.6 27.18,594.9C28.68,591.2 30.78,587.7 33.48,584.7C45.08,571.8 61.98,572.9 68.08,573.3C91.78,574.9 105.08,593.1 106.58,595.3C108.38,597.7 123.58,619.4 114.48,634.7C107.98,645.5 92.88,647 82.08,646.7C92.38,660.8 96.88,681.2 92.08,698.5C93.68,698.5 95.08,698.4 96.18,698.4C109.08,698.1 128.58,697.6 148.18,708.5C196.58,735.4 219.38,817 184.28,866.6C183.08,868.3 181.78,869.9 180.48,871.5C181.38,871.6 182.28,871.7 182.98,871.7C206.68,873.3 219.98,891.5 221.48,893.7C222.18,894.8 225.28,899.1 227.98,905C247.98,885.5 275.48,887.3 285.58,888C326.88,890.8 350.18,922.6 352.88,926.4C354.48,928.7 363.08,940.9 368.08,955.9C395.08,930.9 431.18,933.3 444.68,934.2C488.88,937.2 517.88,964.7 529.88,978.7C530.28,978 530.68,977.4 531.08,976.7C545.88,953.5 573.58,952.9 580.68,952.7C587.18,952.5 596.88,952.3 606.68,957.7C616.28,963 623.78,972.6 628.38,983.8C628.88,983 629.48,982.2 630.18,981.5C641.78,968.6 658.68,969.7 664.78,970.1C688.48,971.7 701.78,989.9 703.28,992.1C703.88,993 706.08,996 708.28,1000.3C709.18,999.1 710.18,997.9 711.18,996.8C728.88,976.9 754.88,978.7 764.18,979.3C776.58,980.2 787.18,984 795.78,988.8C810.28,981.2 825.28,978.8 835.38,978C829.28,962.7 830.18,944.5 839.38,930C854.18,906.8 881.88,906.2 888.98,906C895.48,905.8 905.18,905.6 914.98,911C933.38,921.2 944.38,947.3 940.78,970.1C946.08,969.8 950.58,970.1 953.48,970.3C961.88,970.9 969.38,972.8 976.08,975.5C997.98,949 1032.88,948.2 1042.28,948C1051.58,947.7 1065.58,947.4 1079.58,955.2C1094.98,963.8 1106.88,980.1 1112.98,998.8C1125.28,991.3 1139.28,992.2 1144.98,992.6C1149.68,993 1154.08,993.9 1158.08,995.1C1156.48,985 1159.68,973.8 1166.78,965.8C1178.38,952.9 1195.28,954 1201.38,954.4C1215.18,955.3 1225.48,961.9 1231.98,967.7C1233.88,960.3 1236.88,953.1 1241.08,946.4C1262.18,913.2 1302.08,912.2 1312.28,912C1321.58,911.7 1335.58,911.4 1349.58,919.2C1365.58,928.1 1377.58,945.2 1383.58,964.6C1395.98,948 1412.98,939.1 1418.78,936.1C1427.08,931.8 1439.48,925.3 1455.48,926.1C1457.48,926.3 1459.48,926.5 1461.58,926.8C1459.28,916.2 1462.38,904.1 1469.98,895.6C1481.58,882.7 1498.48,883.8 1504.58,884.2C1525.38,885.6 1538.18,899.8 1541.98,904.7C1569.08,888.8 1598.88,888.1 1608.68,887.9C1615.48,887.7 1623.98,887.5 1633.38,888.9C1634.18,886.9 1635.08,884.9 1636.08,883C1628.08,879.1 1618.48,872.3 1617.08,861.8C1615.78,852 1622.38,843.5 1629.38,837.2C1613.88,805.4 1614.48,765.5 1634.28,734.4C1663.78,688 1719.38,686.7 1733.58,686.4C1746.48,686.1 1765.98,685.6 1785.58,696.5C1788.28,698 1790.88,699.7 1793.48,701.5C1795.38,691.5 1799.68,681.8 1807.48,673.6C1817.38,663.2 1831.68,656.7 1846.58,655.3C1841.08,650.1 1836.58,643.7 1834.08,635.7C1828.58,618.4 1833.18,597.7 1845.78,583.5C1863.48,563.6 1889.48,565.4 1898.78,566C1906.26,566.499 1911.03,567.904 1917.22,570.098L1917.13,558.88L1909.2,555.3C1901.1,552.3 1892.6,550.5 1884.1,550C1873.4,549.3 1840.8,547.1 1817.8,573C1801.3,591.5 1795.4,618.2 1802.7,641.1C1803.2,642.7 1803.8,644.2 1804.4,645.7C1795.1,649.8 1786.7,655.5 1779.9,662.6C1775.5,667.2 1771.8,672.4 1768.8,678C1748.6,669.5 1729.6,670 1717.5,670.3C1652.6,671.8 1620.3,701.4 1604.7,725.9C1584.5,757.7 1580.8,798.2 1594.3,834.1C1585.2,845.8 1584,856.6 1585,864.2C1585.3,866.5 1585.9,869.1 1586.8,871.7C1574.6,872.2 1552.4,874.3 1529.7,884.5C1521.1,877 1507.9,869 1490.1,867.8C1469.5,866.4 1453.3,872.1 1442.1,884.7C1435.7,891.8 1431.5,900.7 1429.7,910C1414.6,911.6 1403,917.6 1395.6,921.5C1391.7,923.6 1382.9,928.2 1373.3,935.9C1365.2,922.5 1354.5,911.7 1342.2,904.8C1324.2,894.8 1306.9,895.2 1296.5,895.5C1247.9,896.6 1223.6,919 1211.8,937.5C1210.6,939.3 1209.5,941.2 1208.5,943.1C1202.3,940.4 1195.2,938.5 1187.1,937.9C1166.5,936.5 1150.3,942.2 1139.1,954.8C1133.7,960.9 1129.8,968.2 1127.7,976C1122.8,975.8 1115.1,975.7 1106.6,977.7C1098.3,961.6 1086.2,948.6 1072.2,940.8C1054.2,930.8 1036.9,931.2 1026.5,931.5C991.7,932.3 969.6,944.2 956,956.6C951.5,955.4 946.9,954.6 942.2,954.1C940,930.1 926.8,907.2 907.6,896.6C893.9,889 880.5,889.3 873.3,889.5C837.3,890.3 819.1,907.1 810.2,921.1C802,933.9 798.6,949.2 800,964.3C793.3,965.8 786.8,967.8 780.8,970.4C771,966.1 760.7,963.5 750.1,962.8C741.1,962.2 716.8,960.6 695.6,975.3C687.7,967 672.6,955.2 650.9,953.7C638.2,952.8 627.2,954.7 618,959.2C612.8,952.6 606.6,947.2 599.7,943.4C586,935.8 572.6,936.1 565.4,936.3C540.9,936.9 524.7,944.8 514,954.2C496.4,938.2 468.6,920.4 430.9,917.9C419.4,917.1 388.6,915.1 360.1,930.8C356.9,924.8 353.7,920 351.5,916.9C346.5,909.9 319.4,874.8 271.9,871.6C263.1,871 239.8,869.4 217.9,881.3C213.8,876.2 205,867.1 191.9,861.1C203.4,837 206.1,807.5 199.4,777.9C191,741.1 169.4,709.9 141.4,694.4C125,685.3 108.7,682.8 95.7,682.3C95.5,674.9 94.3,667.5 92,660.3C103.6,656.4 110.1,649.6 113.8,643.5C127,621.4 112.2,596 105.3,586.1C102.2,581.6 84.9,559.2 54.5,557.2C33.9,555.8 17.7,561.5 6.5,574.1C6.1,574.6 5.7,575 5.3,575.5C3.4,575.2 -1.443,575.019 -3.043,574.919Z" style="fill-opacity:0.1;"/>
    </g>
    <g transform="matrix(0.999965,0.00834772,-0.00834772,0.999965,9.44709,-33.3562)">
        <path d="M771.167,1465.84C766.167,1472.92 760.751,1479.59 755.334,1486.26C759.501,1486.67 762.834,1486.67 765.751,1487.09C864.084,1493.76 919.501,1569.59 926.167,1578.76C929.084,1582.92 942.001,1601.26 953.251,1625.84C1037,1544.59 1151.17,1552.09 1193.25,1555.01C1365.33,1566.67 1462.42,1699.17 1473.67,1715.01C1480.34,1724.59 1516.59,1775.84 1537,1837.92C1649.5,1733.76 1800.34,1743.76 1856.17,1747.51C2040.34,1760.01 2161.17,1874.59 2211.17,1932.92C2212.84,1930.01 2214.5,1927.09 2216.17,1924.59C2277.42,1827.92 2393.25,1825.42 2422.84,1824.59C2449.92,1823.76 2490.34,1822.92 2531.17,1845.42C2571.17,1867.51 2602.42,1907.51 2621.59,1954.17C2624.09,1950.84 2626.59,1947.92 2629.09,1944.59C2677.42,1890.42 2747.84,1895.42 2773.25,1897.09C2871.59,1903.76 2927,1979.59 2933.67,1988.76C2936.17,1992.09 2945.34,2005.01 2954.5,2022.92C2958.25,2017.92 2962.42,2012.92 2966.59,2008.34C3040.34,1925.42 3148.67,1932.92 3187.42,1935.42C3239.09,1938.76 3283.25,1955.01 3319.09,1975.01C3379.5,1943.76 3442.42,1933.34 3484.09,1930.01C3467,1887.09 3462.84,1838.76 3474.09,1793.34C3432.42,1797.51 3374.92,1808.34 3319.09,1837.51C3283.25,1817.51 3239.09,1801.67 3187.42,1797.92C3148.67,1795.42 3040.34,1787.92 2966.59,1870.84C2962.42,1875.42 2958.25,1880.42 2954.5,1885.42C2945.34,1867.51 2936.17,1855.01 2933.67,1851.26C2927.42,1842.09 2872,1766.26 2773.25,1759.59C2747.84,1757.92 2677.42,1753.34 2629.09,1807.09C2626.17,1810.01 2623.67,1813.34 2621.59,1816.67C2602.42,1770.01 2571.17,1730.01 2531.17,1707.92C2490.34,1685.42 2449.92,1686.26 2422.84,1687.09C2393.25,1687.92 2277.84,1690.42 2216.17,1787.09C2214.5,1790.01 2212.84,1792.51 2211.17,1795.42C2161.17,1737.09 2040.34,1622.51 1856.17,1610.01C1799.92,1606.26 1649.5,1596.26 1537,1700.42C1516.17,1637.92 1480.34,1587.09 1473.67,1577.51C1462.42,1561.67 1365.33,1429.17 1193.25,1417.51C1151.17,1414.59 1036.58,1407.09 953.251,1488.34C942.001,1463.76 929.084,1445.84 926.167,1441.26C921.167,1434.17 885.334,1385.42 822.417,1362.09C810.751,1398.34 793.667,1433.76 771.167,1465.84ZM3500.34,1728.76C3561.59,1632.09 3677.42,1629.59 3707,1628.76C3734.09,1627.92 3774.5,1627.09 3815.34,1649.59C3892,1692.09 3937.84,1800.84 3922.84,1895.84C3944.92,1894.59 3963.67,1895.84 3975.75,1896.67C4010.75,1899.17 4042.42,1907.09 4069.92,1918.34C4161.17,1807.92 4306.59,1804.59 4345.75,1803.76C4384.5,1802.92 4442.84,1801.67 4501.17,1833.76C4565.75,1869.59 4614.92,1937.51 4640.34,2015.42C4691.59,1984.17 4749.92,1988.34 4773.67,1989.59C4793.25,1990.84 4811.59,1994.59 4828.25,2000.01C4821.59,1957.92 4834.92,1911.26 4864.5,1877.92C4912.84,1823.76 4983.25,1828.76 5008.67,1830.42C5066.17,1834.17 5109.09,1861.67 5136.17,1885.84C5144.09,1854.59 5156.59,1824.59 5174.09,1797.09C5262.42,1658.34 5428.67,1654.59 5470.75,1653.76C5509.5,1652.92 5567.84,1651.67 5626.17,1683.76C5692.42,1720.84 5742.84,1792.09 5767.84,1872.92C5819.51,1804.17 5889.92,1767.09 5914.51,1754.17C5948.67,1736.26 6000.76,1709.17 6067.42,1712.51C6075.76,1712.92 6084.51,1713.76 6092.84,1715.42C6083.26,1671.26 6096.17,1620.84 6127.84,1585.42C6176.17,1531.26 6246.59,1536.26 6272.01,1537.92C6358.67,1543.76 6411.59,1602.92 6427.84,1623.34C6541.17,1557.09 6664.92,1554.17 6705.76,1553.34C6734.09,1552.51 6769.51,1552.09 6808.67,1557.51C6812.01,1549.17 6815.76,1540.84 6819.92,1532.92C6786.59,1516.67 6746.17,1488.34 6740.76,1444.59C6739.51,1434.17 6740.34,1424.59 6742.42,1415.01C6729.51,1415.01 6717.01,1415.01 6706.17,1415.42C6665.34,1416.26 6541.17,1419.17 6428.26,1485.42C6412.42,1465.01 6359.09,1405.84 6272.42,1400.01C6247.01,1398.34 6176.59,1393.76 6128.26,1447.51C6096.59,1482.92 6083.67,1533.34 6093.26,1577.51C6084.51,1576.26 6076.17,1575.42 6067.84,1574.59C6001.17,1571.26 5949.51,1598.34 5914.92,1616.26C5890.76,1628.76 5819.92,1665.84 5768.26,1735.01C5743.26,1654.17 5693.26,1582.92 5626.59,1545.84C5568.25,1513.34 5509.92,1514.59 5471.17,1515.84C5428.67,1516.67 5262.42,1520.84 5174.5,1659.17C5157,1687.09 5144.5,1717.09 5136.59,1747.92C5109.5,1723.76 5066.59,1696.26 5009.09,1692.51C4983.67,1690.84 4913.25,1686.26 4864.92,1740.01C4835.34,1773.34 4822,1820.01 4828.67,1862.09C4812,1857.09 4793.67,1853.34 4774.09,1851.67C4750.34,1850.01 4692,1846.26 4640.75,1877.51C4615.34,1799.59 4565.75,1731.67 4501.59,1695.84C4443.25,1663.34 4384.92,1664.59 4346.17,1665.84C4307,1666.67 4161.59,1670.01 4070.34,1780.42C4042.42,1769.17 4011.17,1761.26 3976.17,1758.76C3964.09,1757.92 3945.34,1756.67 3923.25,1757.92C3938.25,1662.92 3892.42,1554.17 3815.75,1511.67C3774.92,1489.17 3734.5,1490.01 3707.42,1490.84C3677.84,1491.67 3562.42,1494.17 3500.75,1590.84C3465.34,1646.26 3459.5,1715.01 3478.67,1775.01C3483.67,1759.59 3491.17,1743.76 3500.34,1728.76ZM6772.01,1363.76C6778.67,1356.26 6785.34,1349.17 6792.84,1342.92C6777.42,1311.67 6766.17,1278.34 6758.67,1244.17C6746.17,1263.34 6738.67,1284.59 6741.59,1307.92C6744.09,1330.42 6756.59,1348.76 6772.01,1363.76ZM403.667,627.506C399.084,627.506 393.25,627.922 386.584,627.922C393.667,602.089 396.167,574.589 393.667,547.089C376.584,549.589 359.5,550.006 344.5,549.589C387.834,608.756 406.584,693.339 386.167,765.422C392.834,765.006 398.667,765.006 403.25,765.006C457.417,763.756 538.667,761.672 619.917,807.089C735.751,871.256 816.584,1011.26 836.584,1157.51C863.667,968.339 772.417,754.172 619.917,669.589C539.084,624.172 457.834,626.256 403.667,627.506ZM6813.26,914.173C6936.17,720.839 7168.26,715.422 7227.01,714.172C7281.17,712.922 7362.42,710.839 7443.67,756.256C7454.92,762.506 7465.76,769.589 7476.59,777.089C7484.51,735.422 7502.42,695.006 7534.92,660.839C7576.17,617.506 7635.76,590.422 7697.84,584.589C7674.92,562.922 7656.59,536.256 7645.76,502.922C7641.17,489.172 7638.67,474.589 7637.01,460.006C7597.84,472.922 7562.42,494.589 7534.51,523.756C7502.01,557.922 7484.09,598.339 7476.17,640.006C7465.34,632.506 7454.51,625.422 7443.26,619.172C7361.59,573.756 7280.34,575.839 7226.59,577.089C7167.42,578.339 6935.76,583.756 6812.84,777.089C6755.34,867.089 6736.59,975.006 6752.42,1077.09C6761.59,1019.59 6781.59,964.173 6813.26,914.173ZM110.75,330.422C112.833,331.255 114.5,332.505 116.167,333.755C122.417,318.339 131.167,303.755 142.417,291.255C190.75,237.089 261.167,242.089 286.584,243.755C384.917,250.422 440.334,326.255 447,335.422C449.5,339.172 460.334,354.172 470.334,374.589C473.667,370.839 477,366.672 479.5,362.089C517.417,298.339 454.084,207.922 446.584,197.922C440.334,188.755 384.917,112.922 286.167,106.255C260.75,104.589 190.333,100.005 142,153.755C130.75,166.255 122,180.839 115.75,196.255C114.083,195.005 112,194.172 110.333,192.922C86.167,179.589 62.417,180.005 46.167,180.422C38.667,180.422 12.531,181.656 -7.886,187.072L-6.744,323.818C13.672,318.401 38.667,317.922 46.167,317.922C62.417,317.505 86.583,317.089 110.75,330.422ZM7915.76,75.005C7877.01,72.505 7768.67,65.005 7694.92,147.922C7642.42,207.089 7623.26,293.339 7646.17,365.422C7646.59,366.672 7647.01,367.922 7647.42,369.589C7657.01,338.755 7672.84,310.005 7694.51,285.839C7768.26,202.922 7876.59,210.422 7915.34,212.922C7946.59,215.005 7967.91,219.442 7993.74,229.025L7992.59,90.8C7967.17,81.216 7947.01,77.089 7915.76,75.005Z" style="fill:rgb(255,200,190);fill-rule:nonzero;"/>
    </g>
    <g transform="matrix(0.999965,0.00834772,-0.00834772,0.999965,9.44709,-33.3562)">
        <path d="M6810.31,1079.93L6810.36,1080.08C6810.88,1081.72 6811.39,1083.37 6812.01,1085.01C6814.92,1092.09 6817.01,1099.17 6819.92,1105.01C6822.42,1111.26 6824.92,1116.67 6827.42,1121.26C6829.92,1125.84 6831.59,1130.01 6833.26,1132.92C6837.01,1140.01 6840.76,1146.26 6844.92,1152.51C6836.59,1151.67 6827.84,1151.67 6819.92,1152.51C6807.84,1153.76 6797.84,1156.67 6790.34,1158.76C6786.59,1160.01 6783.67,1161.26 6782.01,1162.09C6779.92,1162.92 6779.09,1163.34 6779.09,1163.34C6779.09,1163.34 6777.84,1164.17 6775.76,1165.01C6774.51,1165.42 6773.26,1166.26 6771.59,1167.09C6769.92,1167.92 6768.26,1169.17 6766.17,1170.42C6758.67,1175.01 6748.26,1182.92 6739.09,1193.34C6729.92,1203.76 6722.84,1217.09 6718.26,1230.42C6713.67,1243.34 6712.01,1256.26 6711.59,1265.42C6710.76,1281.67 6713.26,1293.76 6715.34,1302.92C6716.59,1307.51 6717.84,1311.26 6719.09,1314.59C6720.34,1317.92 6721.59,1320.42 6722.42,1322.51C6724.09,1325.84 6725.76,1328.76 6727.42,1332.09C6729.09,1335.01 6731.17,1337.92 6732.84,1340.42C6736.59,1345.42 6740.76,1350.01 6745.34,1354.17C6746.17,1355.01 6746.59,1355.42 6747.42,1356.26C6737.01,1355.42 6727.01,1354.59 6717.42,1354.59C6689.09,1353.76 6665.76,1355.42 6649.92,1357.09C6642.01,1357.92 6635.76,1358.76 6631.17,1359.59C6627.01,1360.42 6624.51,1360.42 6624.51,1360.42C6624.51,1360.42 6622.42,1360.84 6617.84,1361.26C6613.67,1362.09 6607.42,1363.34 6599.51,1365.01C6583.67,1368.34 6560.76,1374.17 6534.09,1384.17C6507.42,1394.17 6477.01,1409.17 6447.01,1429.59C6437.01,1436.67 6426.59,1444.17 6416.59,1452.51C6415.34,1445.42 6412.84,1438.76 6409.51,1432.51C6407.01,1427.92 6403.67,1422.51 6398.26,1415.01C6392.42,1407.92 6384.51,1398.76 6371.17,1389.17C6360.76,1381.67 6345.76,1372.92 6328.26,1367.09C6310.76,1361.26 6291.59,1357.92 6274.09,1356.67C6256.59,1355.42 6240.76,1356.26 6229.09,1357.51C6223.26,1358.34 6218.26,1358.76 6215.34,1359.59C6212.01,1360.42 6210.34,1360.42 6210.34,1360.42C6210.34,1360.42 6208.67,1360.84 6206.17,1361.26C6203.26,1362.09 6199.51,1362.92 6194.51,1364.59C6184.51,1367.92 6170.76,1373.34 6157.42,1383.34C6150.76,1388.34 6144.09,1393.76 6138.26,1400.42C6132.42,1406.67 6126.59,1413.76 6122.01,1420.84C6112.42,1435.42 6105.76,1450.42 6101.17,1463.34C6094.51,1482.92 6091.59,1499.59 6090.76,1512.92C6089.51,1526.26 6089.92,1536.26 6090.76,1542.92C6091.59,1550.01 6092.42,1556.67 6094.09,1562.92C6094.92,1566.67 6095.76,1570.42 6096.59,1574.17C6099.09,1587.09 6103.26,1600.01 6108.67,1612.09L6106.59,1612.09C6093.67,1612.09 6069.09,1610.84 6029.92,1616.67C6025.76,1617.09 6021.17,1617.92 6016.59,1618.76C6012.01,1619.59 6007.01,1620.42 6002.01,1621.67C5997.01,1622.51 5992.01,1623.76 5987.01,1625.01C5982.01,1626.26 5976.59,1627.51 5971.59,1628.76C5966.17,1630.01 5961.17,1632.09 5956.17,1633.34C5951.17,1635.01 5945.76,1636.67 5940.76,1638.34C5930.76,1642.09 5920.76,1645.84 5911.59,1649.59C5902.42,1653.76 5894.09,1657.92 5886.17,1661.26C5878.67,1665.42 5872.01,1669.17 5866.17,1672.09C5863.26,1673.76 5860.76,1675.01 5858.67,1676.26C5856.59,1677.51 5854.51,1678.76 5853.26,1679.59C5850.34,1681.67 5848.67,1682.51 5848.67,1682.51C5848.67,1682.51 5846.59,1683.76 5843.26,1685.84C5839.51,1687.92 5834.51,1691.26 5828.26,1695.84C5825.34,1697.92 5822.01,1700.42 5818.26,1702.92C5815.34,1705.01 5812.42,1707.09 5809.51,1709.59C5811.17,1703.76 5813.26,1696.26 5814.92,1686.67C5817.42,1673.76 5819.51,1657.51 5819.09,1637.09C5819.09,1631.26 5818.67,1625.01 5818.26,1618.76C5817.84,1612.51 5817.01,1606.26 5815.76,1600.01C5813.26,1587.09 5810.34,1574.17 5805.76,1561.26C5801.59,1548.34 5795.34,1535.42 5788.67,1522.92C5785.34,1516.67 5781.59,1510.42 5777.42,1504.59C5773.67,1498.34 5769.09,1492.51 5764.92,1486.67C5755.76,1475.01 5746.17,1464.17 5735.34,1454.17C5730.34,1449.17 5724.51,1444.59 5719.09,1439.59C5716.17,1437.09 5713.26,1435.01 5710.34,1432.92C5707.42,1430.84 5704.51,1428.34 5701.59,1426.67C5698.67,1424.59 5695.76,1422.51 5692.42,1420.42C5689.51,1418.34 5686.17,1416.67 5683.26,1415.01C5677.01,1411.26 5670.76,1407.92 5664.51,1405.01C5658.26,1402.09 5651.59,1399.17 5645.34,1396.67C5639.09,1394.17 5632.42,1391.67 5626.17,1389.59C5600.34,1381.26 5575.75,1377.09 5553.25,1374.17C5530.75,1371.26 5510.75,1370.84 5494.09,1370.42C5477.42,1370.01 5464.09,1370.42 5454.5,1370.42C5445.34,1370.84 5439.92,1371.26 5439.92,1371.26C5439.92,1371.26 5437.84,1371.26 5433.67,1371.67C5429.5,1372.09 5423.67,1372.51 5415.75,1373.34C5400.34,1375.01 5377.84,1378.76 5351.59,1387.92C5325.75,1397.09 5296.59,1411.67 5268.25,1432.09C5254.09,1442.51 5240.34,1454.17 5227,1467.51C5213.67,1480.84 5201.59,1495.42 5189.92,1510.84C5167.42,1542.09 5148.67,1577.09 5136.17,1613.34C5132,1625.84 5128.25,1637.92 5125.34,1650.42C5120.75,1644.59 5114.92,1638.34 5107.84,1633.34C5098.25,1626.26 5086.59,1620.84 5074.09,1617.92C5061.59,1614.59 5048.25,1613.76 5035.34,1614.17C5022.42,1614.59 5009.5,1616.26 4997.42,1618.76C4984.92,1620.84 4973.25,1624.59 4962,1627.92C4939.92,1635.42 4921.17,1645.01 4908.25,1653.34C4902,1657.51 4897,1660.84 4893.67,1663.34C4890.34,1665.84 4888.67,1667.09 4888.67,1667.09C4888.67,1667.09 4888.25,1667.51 4887,1668.34C4886.17,1669.17 4884.5,1670.42 4882.42,1672.09C4878.67,1675.42 4873.25,1680.01 4867,1686.26C4864.09,1689.59 4860.34,1692.92 4857,1697.09C4855.34,1699.17 4853.67,1701.26 4852,1703.34C4850.34,1705.42 4848.67,1707.92 4847,1710.42C4839.92,1720.01 4833.25,1731.26 4827.84,1744.17C4822.42,1757.09 4818.67,1771.67 4817.42,1786.26C4816.17,1800.84 4816.59,1815.01 4817.84,1827.92C4818.25,1833.34 4819.09,1838.76 4819.92,1844.17C4817,1841.67 4814.09,1839.59 4810.75,1837.09C4804.92,1833.34 4795.75,1827.92 4782.42,1823.34C4769.09,1818.76 4751.59,1815.01 4730.34,1816.26C4726.59,1816.26 4721.59,1817.09 4717.42,1817.51C4713.25,1818.34 4710.34,1818.76 4710.34,1818.76C4710.34,1818.76 4709.5,1818.76 4707.84,1819.17C4706.17,1819.59 4704.09,1820.01 4702,1820.42C4697.42,1821.26 4692.42,1822.92 4689.09,1824.17C4674.09,1829.17 4663.67,1835.01 4655.75,1840.01C4648.25,1845.01 4643.25,1848.76 4639.5,1851.26C4631.17,1857.92 4624.5,1865.01 4618.67,1871.67C4618.67,1866.67 4618.67,1861.26 4618.25,1855.84C4617,1835.84 4613.67,1815.42 4608.25,1795.01C4602.42,1774.59 4594.09,1755.01 4583.67,1736.67C4573.67,1718.34 4560.75,1701.67 4547.42,1687.09C4544.09,1683.76 4540.34,1680.01 4537,1676.67C4533.67,1673.34 4529.92,1670.42 4526.17,1667.51C4524.5,1665.84 4522.84,1664.59 4520.75,1662.92C4519.09,1661.67 4517,1660.42 4515.34,1658.76C4511.59,1656.26 4508.25,1653.76 4504.5,1651.26L4515.34,1658.76C4511.59,1656.26 4508.25,1653.76 4504.5,1651.26C4500.75,1648.76 4497.42,1647.09 4493.67,1645.01C4490.34,1642.92 4487,1640.84 4483.67,1639.17C4477,1635.84 4470.75,1632.92 4464.5,1630.42C4458.25,1627.92 4453.25,1626.26 4448.67,1624.59C4443.67,1623.34 4439.5,1622.09 4436.17,1621.26C4432.84,1620.42 4430.34,1619.59 4428.25,1619.17C4426.59,1618.76 4425.34,1618.76 4425.34,1618.76C4425.34,1618.76 4420.75,1617.92 4412.42,1616.26C4408.25,1615.42 4403.25,1615.01 4397.42,1614.17C4394.5,1613.76 4391.59,1613.34 4388.25,1613.34C4384.92,1613.34 4381.59,1613.34 4377.84,1612.92C4362.84,1612.09 4345.34,1613.76 4326.17,1616.67C4307,1620.01 4286.17,1626.26 4265.75,1635.42C4245.34,1644.59 4225.34,1657.51 4207.84,1673.34C4189.92,1688.76 4175.34,1707.92 4164.09,1727.92C4159.92,1735.42 4156.17,1743.34 4153.25,1751.26C4153.25,1750.84 4152.84,1750.84 4152.84,1750.42C4149.92,1746.67 4145.34,1741.67 4139.5,1736.26C4133.67,1730.84 4126.17,1725.42 4117.84,1720.42C4109.5,1715.42 4101.17,1710.01 4091.59,1705.01C4072.42,1694.59 4049.92,1684.59 4026.59,1680.84C4014.92,1678.76 4003.67,1678.34 3992.84,1679.17C3982,1680.01 3972.42,1682.51 3964.5,1685.01C3956.59,1687.92 3949.92,1691.26 3944.5,1694.17C3941.17,1696.26 3937.84,1698.34 3935.34,1700.01C3939.5,1685.01 3942.84,1669.59 3944.5,1653.34C3946.59,1632.09 3945.34,1611.26 3942,1591.26C3938.67,1571.26 3934.09,1552.09 3927.84,1533.76C3921.59,1515.01 3913.67,1497.51 3904.09,1481.26C3894.5,1465.01 3882.84,1450.84 3869.5,1439.17C3856.59,1427.51 3842,1418.76 3828.25,1412.92C3814.5,1407.09 3801.17,1403.76 3789.5,1401.26C3777.84,1399.17 3767.84,1397.92 3759.5,1397.51C3751.17,1397.09 3744.92,1396.67 3740.75,1396.67L3734.09,1396.67C3734.09,1396.67 3724.92,1396.67 3709.09,1397.51C3693.25,1398.34 3669.92,1400.42 3642.42,1406.67C3614.92,1412.92 3582.84,1422.92 3550.34,1440.01C3517.84,1457.09 3485.75,1482.09 3460.34,1514.17C3434.92,1545.84 3415.75,1585.42 3409.5,1626.26C3407,1641.26 3406.17,1656.26 3406.17,1671.26C3396.17,1665.01 3384.5,1660.42 3371.59,1657.51C3367,1656.67 3360.75,1655.42 3352,1654.59C3343.25,1654.17 3331.17,1653.34 3315.34,1656.26C3307.84,1657.51 3297,1660.42 3286.59,1665.01C3276.17,1669.59 3265.34,1675.84 3256.59,1682.92C3247.84,1690.01 3240.75,1697.51 3235.75,1702.92C3233.25,1705.84 3231.59,1708.34 3230.34,1710.01C3229.09,1711.67 3228.25,1712.51 3228.25,1712.51C3228.25,1712.51 3227.84,1713.34 3226.59,1714.59C3225.75,1715.84 3224.09,1718.34 3222.42,1720.84C3219.09,1726.26 3214.92,1734.17 3211.59,1743.76C3208.25,1752.92 3205.34,1763.76 3204.09,1774.59C3203.25,1782.92 3202.84,1790.84 3203.25,1797.92C3201.17,1796.67 3199.09,1795.42 3196.59,1794.17C3190.34,1790.84 3181.17,1786.67 3168.25,1783.34C3155.34,1779.59 3138.25,1776.67 3117.42,1777.09C3112,1777.09 3104.09,1777.51 3097.84,1778.34C3091.59,1779.17 3086.59,1780.01 3086.59,1780.01C3086.59,1780.01 3080.75,1780.84 3073.67,1782.09C3066.59,1783.34 3058.67,1785.42 3053.67,1787.09C3039.09,1791.26 3027.84,1795.84 3019.5,1800.84C3011.17,1805.84 3005.75,1810.01 3002,1813.76C2996.59,1818.76 2992.42,1824.17 2988.67,1829.17C2987.42,1830.84 2986.17,1832.51 2985.34,1834.17C2984.5,1823.34 2982.84,1810.42 2979.09,1795.42C2975.75,1782.09 2971.17,1767.51 2964.5,1753.34C2958.25,1738.76 2949.5,1724.17 2939.09,1710.42C2928.67,1696.67 2915.75,1684.17 2901.17,1674.17C2886.59,1664.17 2871.17,1656.67 2855.75,1652.09C2840.34,1647.09 2825.34,1644.59 2811.17,1643.76C2797.42,1642.92 2784.92,1643.76 2774.92,1645.01C2764.92,1646.26 2756.59,1648.34 2751.17,1649.59C2745.75,1650.84 2742.84,1652.09 2742.84,1652.09C2742.84,1652.09 2739.09,1652.92 2732.84,1655.42C2726.59,1657.51 2717.42,1661.26 2707,1666.67C2696.59,1672.09 2684.09,1679.59 2671.59,1689.59C2665.34,1694.59 2659.09,1700.42 2653.25,1707.09C2647.42,1713.76 2642,1721.26 2637,1728.76C2631.59,1737.09 2627,1746.26 2622.84,1755.01C2622,1752.51 2621.17,1750.01 2619.92,1747.51C2614.09,1734.59 2604.92,1720.01 2592,1704.59C2577.84,1687.51 2559.09,1667.92 2534.09,1652.92C2522,1645.42 2508.25,1639.59 2494.09,1635.42C2479.92,1631.67 2465.75,1630.01 2452.84,1630.01C2427,1629.59 2404.5,1632.09 2388.67,1635.01C2384.5,1635.84 2381.17,1636.26 2377.84,1637.09C2374.5,1637.92 2372,1638.34 2369.92,1638.76C2365.34,1639.59 2363.25,1640.42 2363.25,1640.42C2363.25,1640.42 2360.34,1641.26 2355.34,1642.51C2350.34,1643.76 2342.84,1646.26 2333.67,1649.17C2315.75,1655.42 2291.17,1665.84 2267,1680.84C2242.42,1695.84 2217.84,1715.84 2198.25,1737.92C2188.25,1748.76 2179.92,1760.01 2172.42,1771.26C2165.34,1782.09 2159.5,1792.92 2154.92,1802.09C2152.84,1806.26 2151.17,1810.42 2149.5,1814.17C2138.25,1795.42 2124.92,1778.34 2109.92,1762.92C2107.84,1760.42 2105.75,1757.92 2103.67,1755.01C2095.34,1745.01 2084.09,1732.92 2068.67,1719.59C2050.34,1704.17 2027,1687.92 2001.17,1674.59C1975.34,1660.84 1947.42,1650.01 1921.59,1642.09C1914.92,1640.42 1908.67,1638.34 1902.84,1637.09C1896.59,1635.84 1890.75,1634.17 1884.92,1632.92C1873.67,1630.84 1863.25,1628.76 1854.92,1627.92C1850.75,1627.51 1846.59,1627.09 1843.25,1626.26C1839.92,1625.84 1837,1625.84 1834.5,1625.42C1829.5,1625.01 1827,1625.01 1827,1625.01C1827,1625.01 1814.5,1623.76 1794.09,1624.17C1773.67,1624.17 1745.75,1625.84 1715.75,1631.67C1685.75,1637.51 1653.67,1647.51 1625.34,1660.01C1597,1672.51 1572.42,1687.09 1554.92,1699.59C1538.25,1711.26 1528.25,1719.17 1521.17,1725.01C1523.25,1714.59 1525.34,1704.17 1526.17,1693.76C1528.25,1672.09 1528.25,1650.01 1525.75,1628.34C1522.84,1606.67 1517.84,1585.42 1510.75,1565.01C1496.17,1524.17 1472.42,1487.51 1445.33,1460.01C1418.25,1431.67 1388.25,1411.67 1362,1397.09C1335.33,1382.51 1312,1374.59 1295.33,1369.59C1291.17,1368.34 1287.42,1367.09 1284.5,1366.26C1281.17,1365.42 1278.67,1364.59 1276.17,1364.17C1271.58,1362.92 1269.5,1362.51 1269.5,1362.51C1269.5,1362.51 1267,1361.67 1262.83,1360.84C1258.25,1360.01 1251.58,1358.34 1243.25,1357.09C1226.17,1354.17 1201.58,1352.09 1171.17,1352.92C1156.17,1353.76 1139.92,1355.01 1122.42,1357.51C1113.67,1358.76 1104.92,1360.84 1096.17,1362.51C1091.58,1363.34 1087,1364.59 1082.83,1365.84C1081.83,1366.04 1080.72,1366.34 1079.61,1366.64L1079.39,1366.7C1078.28,1367.01 1077.18,1367.3 1076.17,1367.51C1074.08,1368.34 1071.58,1368.76 1069.08,1369.59C1050.75,1375.01 1032,1382.09 1013.25,1390.84C994.501,1399.59 976.167,1409.59 958.251,1421.67C953.667,1424.59 949.501,1427.92 945.334,1430.84C940.751,1433.76 936.584,1437.09 932.417,1440.84C924.084,1447.51 915.751,1454.59 907.834,1462.09C903.667,1466.26 899.917,1470.01 895.751,1474.59C895.334,1462.92 892.417,1450.42 887.417,1437.92C885.751,1433.76 883.251,1427.92 879.501,1420.42C875.751,1412.92 870.751,1403.34 863.251,1390.42C861.584,1387.92 859.084,1383.76 856.584,1380.01C854.084,1376.67 852.001,1373.76 852.001,1373.76C852.001,1373.76 850.334,1371.26 847.834,1368.34C845.751,1365.42 842.417,1361.67 840.334,1359.17C833.251,1351.26 826.167,1344.59 818.667,1339.17C811.584,1333.76 804.501,1330.01 797.834,1326.67C784.917,1320.84 773.667,1318.76 766.167,1318.34C783.667,1298.34 798.667,1276.67 810.751,1255.01C822.834,1234.17 831.167,1212.51 837.834,1191.67C844.084,1170.84 847.834,1150.84 850.334,1132.09C854.917,1095.01 853.667,1064.59 852.834,1043.76C852.417,1033.34 851.584,1025.01 851.167,1019.59C850.751,1014.17 850.334,1011.26 850.334,1011.26C850.334,1011.26 849.501,999.589 846.584,978.756C843.667,957.923 839.084,928.339 829.917,892.923C820.751,857.506 806.584,815.839 782.834,774.172C759.084,732.922 726.584,692.089 686.167,657.922C665.751,640.839 643.251,625.839 619.084,613.756C594.917,601.672 568.25,592.922 541.584,589.589C514.5,585.839 488.25,587.506 463.25,590.839C462,590.839 460.75,591.256 459.084,591.672C464.5,582.089 468.25,570.422 469.084,558.756C469.917,546.256 467.834,534.172 464.917,525.422C463.667,521.256 462,517.922 461.167,515.422C459.917,513.339 459.5,512.089 459.5,512.089C459.5,512.089 458.667,510.839 457.417,508.756C456.167,506.672 454.084,503.339 451.584,500.006C446.584,492.922 438.667,484.172 428.667,477.506C422.834,473.339 416.167,469.589 409.5,466.672C414.917,462.506 420.75,457.922 426.584,452.922C440.334,440.839 454.084,427.089 468.25,412.089C482.417,397.089 497.417,378.755 507.834,356.672C518.25,335.005 523.25,311.255 525.334,288.755C526.584,277.505 527,266.255 527.417,255.422C527.417,244.589 527.417,233.755 527,223.339C525.75,202.089 522.417,181.672 515.334,163.339C508.667,145.422 499.5,130.839 491.167,119.589C482.834,108.339 475.334,100.005 469.917,94.589C467.417,91.672 465.334,89.589 463.667,88.339C462,87.089 461.584,86.255 461.584,86.255C461.584,86.255 457.834,82.922 451.167,77.089C444.5,71.255 434.5,63.339 421.167,54.172C407.834,45.422 390.334,35.005 368.25,29.589C346.167,24.589 321.584,25.422 297.834,29.589C274.084,34.172 249.917,41.672 227,52.922C204.083,64.172 182.833,78.339 164.5,94.589C155.333,102.922 147,111.672 139.5,120.422C132,129.589 125.333,138.755 119.5,147.922C113.667,157.089 108.667,166.255 104.5,175.005C102.417,179.172 100.75,183.339 99.083,187.505C98.25,185.422 97,182.922 95.75,180.839C89.917,170.005 80.333,159.589 67.833,151.672C63.667,149.172 57.833,145.422 49.083,142.089C40.333,138.755 28.25,135.005 12,133.755C9.083,133.339 -4.589,132.75 -8.339,132.75L-8.033,169.482C-5.116,169.482 7.417,166.255 9.917,166.672C22,166.672 30.75,169.172 37,171.672C43.25,174.172 47.417,176.672 50.333,178.339C57,182.505 62,186.672 66.167,191.672C73.25,200.839 78.25,210.422 81.167,222.089C82.833,228.755 83.667,235.422 84.083,242.089C83.25,246.672 82.833,250.005 82.833,252.922C80.333,280.005 84.083,300.839 89.083,319.172C94.5,337.922 102,354.172 111.167,373.339C112,351.672 112.417,333.755 112.417,315.839C112.833,297.505 112.417,279.172 114.917,256.255C115.333,252.505 115.75,247.089 117.417,240.005C118.667,232.505 121.167,222.922 125.333,210.422C134.5,182.505 154.083,146.672 186.583,117.922C202.417,103.339 221.167,90.839 241.167,81.255C261.167,71.255 282.417,64.589 303.667,60.839C324.5,56.672 344.5,56.672 360.75,60.422C377,64.172 391.584,72.089 402.834,80.005C414.5,87.922 423.667,95.422 429.917,100.422C436.167,105.422 439.084,108.755 439.084,108.755C439.084,108.755 439.917,109.589 441.167,110.839C442.417,112.089 444.5,113.755 446.584,116.255C451.167,121.255 457.834,127.922 464.917,137.505C472,147.089 479.084,159.172 484.5,173.339C489.917,187.505 492.834,204.589 494.084,223.755C495.75,262.089 494.5,306.672 477.834,341.255C469.917,358.755 457.417,373.755 444.084,387.922C430.334,402.089 417,415.839 404.5,426.256C377,450.006 357.417,458.756 347,462.506C325.75,470.422 308.25,474.589 291.167,477.506C282.417,479.172 274.084,480.422 264.917,480.839C255.75,481.672 246.167,482.089 235.334,481.256C244.5,486.672 253.667,491.256 262.834,494.589C272,497.922 281.584,500.006 291.584,501.256C302.834,502.506 314.917,502.506 327.834,500.839C342,500.422 355.75,496.672 369.917,495.006C379.084,494.172 387.834,494.172 397,496.672C399.5,497.506 402.417,497.922 404.917,499.172C406.584,500.006 407.834,500.839 409.084,502.089C415.75,507.089 421.584,512.506 424.917,517.506C428.25,522.089 429.917,525.422 429.917,525.422C429.917,525.422 430.334,526.256 431.167,527.506C431.167,527.922 431.584,528.339 431.584,528.756C433.667,536.256 434.5,544.172 433.25,550.422C432.417,556.672 430.334,562.922 428.25,569.172C427.417,570.839 426.167,572.506 425.334,574.172C420.75,582.089 416.167,590.006 409.5,596.256C408.25,597.506 407,598.756 405.334,599.589C400.75,600.422 396.167,601.672 392,602.922C380.75,605.839 369.917,608.756 359.5,611.672C354.084,613.339 349.084,615.006 344.084,616.672C341.584,617.506 339.084,618.339 336.584,619.172C335.558,619.582 334.533,619.892 333.507,620.199L333.41,620.229C332.384,620.536 331.359,620.845 330.334,621.256C323.25,623.756 316.584,626.256 310.334,628.756C298.25,633.756 288.667,637.922 282.417,641.256C259.084,652.922 242.417,665.006 228.667,678.756C214.917,692.506 203.667,707.506 193.25,726.256C211.167,714.172 226.584,706.256 242.834,697.922C258.667,689.589 275.334,680.839 297,670.422C302.834,667.506 311.584,663.339 322.834,658.756C328.667,656.672 334.5,654.172 341.584,651.672C342.593,651.269 343.504,650.963 344.412,650.66L344.588,650.601C345.496,650.299 346.408,649.993 347.417,649.589C348.628,649.185 349.741,648.782 350.851,648.378L351.066,648.3C352.176,647.896 353.289,647.493 354.5,647.089C359.5,645.422 364.084,643.756 369.084,642.506C379.084,639.589 389.5,636.672 399.917,634.172C421.167,629.172 444.084,624.172 467,620.839C489.917,617.922 513.667,616.672 536.584,619.589C559.5,622.506 582.417,630.006 604.084,640.839C625.751,651.256 646.167,665.422 664.501,680.839C702.001,712.089 732.001,749.589 754.084,787.922C775.751,826.256 789.084,865.006 797.834,898.756C806.584,932.506 811.167,960.839 813.667,980.839C816.584,1000.84 817.417,1012.09 817.417,1012.09C817.417,1012.09 817.834,1015.01 818.251,1020.42C818.667,1025.84 819.501,1033.34 819.917,1043.34C820.751,1063.34 822.001,1092.09 817.834,1125.84C813.667,1160.01 803.667,1198.76 782.417,1237.09C761.167,1275.42 729.917,1312.09 692.417,1343.76C654.917,1375.42 611.584,1402.51 567.834,1425.01C545.75,1436.26 523.667,1445.42 501.584,1452.92C490.334,1456.67 479.5,1459.59 468.667,1462.51C463.25,1463.76 457.834,1465.01 452.417,1465.84C449.917,1466.26 447,1466.67 444.5,1467.09L452.417,1465.84C449.917,1466.26 447,1466.67 444.5,1467.09L440.334,1467.92L437.417,1468.34C406.584,1472.51 380.75,1470.42 368.25,1468.76C356.584,1467.51 346.584,1465.42 337,1463.76C327.417,1462.09 318.667,1459.59 310.334,1457.92C293.25,1453.34 276.584,1448.76 257,1439.59C269.917,1456.67 284.084,1469.59 300.75,1480.01C309.5,1485.01 318.25,1489.59 329.084,1492.92C339.5,1496.67 351.167,1499.59 364.084,1501.26C371.167,1502.51 382,1503.34 395.334,1503.76C408.667,1504.17 424.5,1503.34 442,1501.26L445.334,1500.84L449.917,1500.01C452.834,1499.59 455.75,1499.17 458.667,1498.34C464.5,1497.51 470.334,1495.84 476.584,1494.59C488.25,1491.67 500.334,1488.34 512.417,1484.17C536.167,1476.26 559.917,1465.84 582.834,1454.17C628.667,1430.84 674.084,1402.51 714.084,1368.76C719.501,1364.17 724.501,1359.59 729.501,1355.01C732.001,1353.76 734.917,1352.92 737.834,1352.09C745.751,1349.59 754.501,1347.92 763.667,1349.17C768.251,1349.59 775.334,1350.84 784.501,1355.01C789.084,1357.09 794.084,1360.01 799.501,1363.76C804.917,1367.51 810.334,1372.51 815.751,1379.17C817.417,1381.26 819.917,1384.17 822.001,1386.67C824.084,1389.17 825.334,1391.26 825.334,1391.26C825.334,1391.26 827.001,1393.76 829.084,1396.67C831.167,1399.59 833.251,1403.76 834.917,1405.84C842.001,1417.51 846.584,1427.09 850.334,1433.76C853.667,1440.42 855.751,1445.42 857.417,1448.76C861.584,1459.17 864.501,1467.92 865.751,1476.67C867.001,1485.42 867.417,1493.76 867.417,1502.51C867.417,1505.84 867.417,1509.17 867.001,1512.51L867.001,1512.92C856.167,1532.09 848.667,1552.51 843.667,1572.92C838.667,1592.92 836.167,1612.92 835.334,1631.67C834.917,1641.26 834.501,1650.42 834.501,1659.17L834.501,1684.17C834.917,1691.67 835.334,1698.76 835.334,1705.01C836.167,1717.92 837.001,1727.92 837.417,1735.01C839.501,1760.01 843.667,1780.84 852.001,1799.17C856.167,1808.34 861.167,1817.09 867.417,1824.59C873.667,1832.51 881.584,1839.17 891.167,1844.59C885.334,1835.42 882.001,1826.67 879.501,1817.92C877.001,1809.17 875.751,1800.84 874.501,1792.09C872.417,1774.59 871.584,1756.26 869.501,1731.67C869.084,1725.01 868.251,1715.01 867.417,1702.51C867.001,1696.26 866.584,1689.59 866.584,1682.51L866.584,1658.76C866.584,1650.42 867.001,1641.67 867.417,1632.92C869.501,1598.34 876.584,1560.84 894.917,1528.34C912.834,1495.84 944.084,1469.17 976.167,1447.09C992.417,1435.84 1009.5,1426.67 1026.58,1418.76C1043.67,1410.84 1061.17,1404.17 1077.83,1399.17C1078.86,1398.76 1079.88,1398.45 1080.91,1398.15L1081.01,1398.12C1082.03,1397.81 1083.06,1397.5 1084.08,1397.09C1086.17,1396.67 1088.25,1395.84 1090.33,1395.42C1094.5,1394.59 1098.67,1393.34 1102.83,1392.09C1111.17,1390.42 1119.08,1388.76 1127,1387.51C1142.83,1385.01 1157.83,1383.76 1171.58,1383.34C1199.08,1382.51 1222,1384.59 1237.42,1387.09C1245.33,1388.34 1251.17,1389.59 1255.33,1390.42C1259.5,1391.26 1261.58,1391.67 1261.58,1391.67C1261.58,1391.67 1263.67,1392.09 1267.83,1393.34C1269.92,1393.76 1272.42,1394.59 1275.33,1395.42C1278.25,1396.26 1281.58,1397.51 1285.33,1398.34C1300.33,1402.92 1322,1410.42 1346.17,1423.76C1370.33,1437.09 1397.42,1455.01 1421.58,1480.42C1446.17,1505.42 1467,1537.51 1479.92,1573.76C1486.17,1592.09 1490.75,1611.26 1493.25,1630.42C1495.75,1649.59 1495.75,1669.17 1493.67,1688.34C1492.84,1697.92 1490.75,1707.09 1489.09,1716.26C1487.84,1720.84 1486.59,1725.42 1485.34,1729.59C1484.09,1734.17 1482.42,1738.34 1481.17,1742.51C1480.76,1743.53 1480.45,1744.56 1480.14,1745.58L1480.11,1745.68C1479.8,1746.71 1479.5,1747.73 1479.09,1748.76C1478.25,1750.84 1477.42,1752.92 1476.17,1755.01C1474.09,1759.17 1472.84,1763.34 1470.75,1767.09C1468.67,1770.84 1466.59,1774.59 1464.5,1778.34C1462.42,1781.67 1460.34,1785.42 1457.84,1788.76C1440.75,1814.17 1421.17,1830.84 1411.17,1838.76C1409.08,1840.84 1406.58,1842.51 1404.5,1843.76C1402.42,1845.42 1400.33,1847.09 1398.25,1848.76C1394.08,1851.67 1389.92,1855.01 1385.75,1857.51C1381.58,1860.42 1377.83,1862.92 1374.08,1865.42C1373.08,1866.03 1372.16,1866.63 1371.26,1867.24L1371.08,1867.36C1370.17,1867.96 1369.26,1868.57 1368.25,1869.17C1366.17,1870.42 1364.5,1871.67 1362.42,1872.51C1347.42,1881.67 1332.42,1890.84 1312.42,1899.59C1333.67,1901.26 1352.83,1899.59 1371.58,1894.59C1372.8,1894.19 1373.91,1893.88 1375.02,1893.58L1375.23,1893.52C1376.34,1893.22 1377.46,1892.91 1378.67,1892.51C1381.17,1891.67 1383.25,1890.84 1385.75,1890.01C1390.75,1888.34 1395.33,1886.26 1400.33,1883.76C1405.33,1881.67 1410.33,1878.34 1415.33,1875.42C1417.83,1873.76 1420.33,1872.09 1422.83,1870.42C1425.33,1868.76 1428.25,1866.67 1430.75,1864.59C1436.58,1860.42 1444.92,1853.34 1454.5,1843.76C1467,1834.17 1477,1820.42 1487.42,1808.76C1500.34,1793.76 1513.25,1778.76 1527,1764.17C1539.09,1751.67 1551.59,1740.01 1565.34,1730.01C1567.84,1728.34 1570.34,1726.67 1572.84,1724.59C1582.42,1717.92 1594.5,1710.42 1608.67,1702.92C1612.42,1700.84 1616.17,1699.17 1620.34,1697.51C1621.17,1697.09 1622,1696.67 1622.42,1695.84C1627.42,1693.34 1632.84,1690.84 1638.25,1688.34C1664.5,1676.67 1694.09,1667.51 1721.59,1662.09C1749.5,1656.67 1775.34,1655.01 1794.09,1655.01C1812.84,1655.01 1824.5,1655.84 1824.5,1655.84C1824.5,1655.84 1827,1655.84 1831.59,1656.26C1833.67,1656.26 1836.59,1656.67 1839.5,1657.09C1842.84,1657.51 1846.17,1657.92 1850.34,1658.34C1858.25,1659.17 1867.84,1661.26 1878.25,1662.92C1883.25,1664.17 1889.09,1665.42 1894.5,1666.67C1900.34,1667.92 1906.17,1670.01 1912,1671.67C1936.17,1678.76 1962,1689.17 1985.75,1701.67C2009.5,1714.17 2031.17,1729.17 2047.42,1742.92C2074.92,1766.26 2087,1785.42 2093.67,1794.59C2106.59,1814.17 2115.75,1830.01 2124.5,1845.84C2127.84,1852.09 2131.17,1857.92 2134.5,1864.17L2124.5,1845.84C2127.84,1852.09 2131.17,1857.92 2134.5,1864.17C2134.5,1864.59 2134.92,1865.01 2134.92,1865.42C2132,1885.42 2132.42,1902.09 2134.09,1917.51C2136.17,1936.67 2140.75,1954.17 2147,1974.59C2151.59,1953.76 2154.92,1935.84 2158.25,1917.92C2161.59,1900.01 2164.09,1881.26 2169.09,1858.34C2169.92,1854.59 2171.17,1849.59 2173.25,1842.09C2175.34,1835.01 2178.67,1825.42 2184.5,1813.76C2188.25,1805.84 2193.25,1796.67 2199.5,1787.09C2205.75,1777.51 2213.25,1767.51 2222,1757.92C2239.5,1738.34 2261.59,1720.42 2283.67,1706.67C2305.75,1692.92 2327.84,1683.34 2344.09,1677.92C2352.42,1675.01 2359.09,1672.92 2363.67,1671.67C2368.25,1670.42 2371.17,1669.59 2371.17,1669.59C2371.17,1669.59 2373.25,1669.17 2377.42,1668.34C2379.5,1667.92 2382,1667.51 2384.92,1666.67C2387.84,1666.26 2391.17,1665.42 2394.5,1665.01C2409.09,1662.51 2429.5,1660.42 2452.42,1660.84C2463.67,1661.26 2475.34,1662.51 2486.17,1665.42C2497,1668.34 2507.84,1672.92 2517.84,1679.17C2537.84,1691.26 2554.5,1708.34 2567,1723.34C2578.67,1737.51 2586.17,1749.17 2590.34,1758.76C2594.5,1767.92 2595.75,1775.42 2596.59,1780.84C2598.25,1791.26 2598.25,1801.26 2598.25,1810.84C2598.25,1812.09 2597.84,1813.76 2597.84,1815.01C2596.59,1818.34 2595.75,1821.26 2594.5,1824.59C2589.5,1841.26 2585.75,1858.34 2584.09,1874.59C2582.42,1890.84 2582.84,1905.42 2584.09,1917.92C2585.75,1933.34 2587.84,1944.17 2589.92,1952.92C2592,1961.26 2593.67,1967.09 2595.34,1971.26C2603.67,1996.26 2614.92,2015.42 2629.92,2029.59C2645.34,2043.76 2662.84,2050.84 2682.84,2058.34C2668.25,2042.51 2656.59,2028.76 2648.25,2014.59C2639.92,2000.01 2633.25,1983.76 2626.17,1961.26C2624.92,1957.51 2623.25,1952.51 2621.59,1945.01C2619.92,1937.51 2617.84,1927.92 2616.59,1915.01C2615.75,1904.17 2615.34,1891.67 2616.59,1878.34C2617.84,1864.59 2621.17,1850.01 2625.75,1834.59C2630.34,1819.17 2636.59,1803.34 2643.25,1787.51C2649.92,1771.67 2656.59,1756.26 2664.5,1743.76C2679.92,1718.34 2703.25,1702.51 2721.17,1693.34C2730.34,1688.76 2737.84,1685.84 2743.25,1683.76C2748.67,1681.67 2751.59,1680.84 2751.59,1680.84C2751.59,1680.84 2754.09,1680.01 2758.67,1678.76C2763.25,1677.51 2769.92,1675.84 2778.67,1675.01C2795.75,1672.92 2819.92,1672.51 2845.34,1680.42C2857.84,1684.59 2870.75,1690.42 2882,1698.34C2893.67,1706.26 2903.67,1716.26 2912.42,1727.51C2921.17,1738.76 2928.67,1751.26 2934.09,1763.76C2939.92,1776.26 2943.67,1788.76 2946.59,1800.01C2950.75,1817.09 2952,1831.67 2952.42,1842.92C2952.84,1854.17 2952.42,1862.92 2952,1868.34C2950.34,1891.67 2947,1909.59 2944.09,1927.09C2940.75,1944.59 2937.42,1961.67 2929.92,1981.67C2945.75,1967.09 2957.42,1952.51 2966.59,1935.01C2972.42,1923.34 2977.42,1910.42 2980.75,1895.42C2985.75,1885.01 2991.17,1875.01 2997.42,1865.01C2997.84,1864.17 2998.67,1863.34 2999.09,1862.51C3000.75,1860.42 3002,1858.34 3003.67,1856.26C3009.92,1848.76 3016.17,1840.01 3023.25,1833.34C3028.25,1829.17 3035.75,1822.09 3061.59,1814.59C3065.75,1813.34 3072.84,1811.67 3079.09,1810.42C3085.34,1809.17 3090.34,1808.34 3090.34,1808.34C3090.34,1808.34 3094.5,1807.51 3099.92,1807.09C3105.34,1806.67 3112,1806.26 3116.59,1806.26C3134.09,1805.84 3147.84,1808.34 3158.25,1811.26C3168.67,1814.17 3176.17,1817.51 3180.75,1820.01C3190.75,1825.01 3198.67,1830.01 3205.75,1835.84C3206.56,1836.44 3207.37,1837.15 3208.17,1837.86L3208.33,1837.99C3209.14,1838.7 3209.95,1839.4 3210.75,1840.01C3212.42,1844.17 3213.67,1847.92 3215.34,1851.67C3221.17,1864.17 3227,1872.51 3230.75,1878.34C3247.84,1900.84 3267,1912.92 3285.75,1920.01C3304.5,1927.09 3324.09,1929.17 3345.34,1926.26C3325.34,1918.76 3310.75,1909.17 3297,1898.76C3283.25,1888.34 3269.92,1876.67 3257,1858.76C3253.67,1854.59 3249.5,1847.92 3244.92,1837.92C3240.34,1828.34 3236.17,1815.01 3234.5,1798.34C3234.09,1791.67 3233.67,1783.76 3234.92,1775.42C3235.75,1767.09 3237.84,1759.17 3240.34,1752.09C3242.84,1745.01 3245.75,1738.76 3248.67,1734.59C3249.92,1732.51 3250.75,1730.84 3251.59,1729.59C3252.42,1728.34 3252.84,1727.92 3252.84,1727.92C3252.84,1727.92 3253.25,1727.09 3254.09,1725.84C3254.92,1724.59 3256.59,1722.51 3258.25,1720.42C3262,1716.26 3267.42,1710.42 3274.09,1705.01C3280.75,1699.59 3288.67,1695.01 3296.59,1691.67C3304.5,1688.34 3312,1686.26 3317.84,1685.42C3329.92,1683.34 3339.5,1683.76 3346.59,1684.17C3353.67,1684.59 3358.67,1685.42 3362.42,1686.26C3373.25,1688.34 3382,1691.26 3389.92,1695.01C3395.75,1697.92 3401.17,1700.84 3405.75,1704.17C3407,1715.84 3408.67,1727.09 3410.75,1737.92C3412.42,1746.67 3414.5,1755.01 3416.59,1762.92C3417.42,1767.09 3418.67,1770.84 3419.92,1775.01C3420.34,1777.09 3421.17,1778.76 3421.59,1780.84C3422,1782.51 3422.42,1784.17 3422.84,1785.84C3424.92,1793.34 3427,1800.01 3429.09,1806.26C3433.25,1818.76 3437.42,1828.34 3440.34,1835.01C3445.75,1847.09 3451.59,1857.51 3457.42,1866.67C3463.67,1875.84 3470.34,1883.76 3477.42,1890.42C3491.59,1904.17 3508.67,1914.17 3529.09,1920.84C3521.59,1912.92 3515.34,1905.84 3510.34,1898.34C3507.42,1894.59 3505.34,1890.84 3502.84,1887.09C3500.75,1883.34 3498.25,1879.59 3496.17,1875.84C3492,1868.34 3487.84,1860.01 3483.25,1851.67C3479.09,1842.92 3474.5,1833.34 3469.92,1822.51C3467.42,1816.67 3463.67,1807.51 3459.92,1796.26C3457.84,1790.42 3455.75,1784.17 3454.09,1777.51C3453.67,1775.84 3453.25,1774.59 3452.84,1772.92C3452.42,1771.26 3452,1769.17 3451.17,1767.51C3450.76,1765.66 3450.25,1763.82 3449.74,1761.97L3449.69,1761.79C3449.17,1759.95 3448.66,1758.1 3448.25,1756.26C3446.17,1748.76 3444.5,1740.84 3442.84,1732.51C3439.5,1716.26 3437.42,1699.59 3436.59,1682.09C3435.75,1664.59 3436.17,1647.09 3439.5,1629.59C3444.92,1594.59 3461.17,1560.84 3483.67,1532.51C3506.17,1504.17 3534.5,1482.09 3563.67,1466.67C3592.84,1451.26 3622,1442.09 3647.42,1436.26C3672.84,1430.84 3694.09,1428.76 3709.09,1427.92C3724.09,1427.09 3732.42,1427.09 3732.42,1427.09L3738.67,1427.09C3742.84,1427.09 3748.25,1427.09 3755.75,1427.92C3770.34,1428.76 3791.17,1431.26 3813.67,1440.42C3824.92,1445.01 3835.75,1451.67 3846.17,1461.26C3856.59,1470.42 3866.17,1482.09 3874.5,1495.84C3890.75,1523.34 3902,1558.34 3908.25,1594.17C3911.17,1612.09 3912.42,1630.42 3910.75,1647.92C3909.09,1665.42 3904.5,1683.34 3899.09,1701.26C3893.67,1718.76 3887,1736.67 3880.75,1753.76C3877.84,1762.09 3874.5,1770.42 3871.59,1778.76L3880.75,1753.76C3877.84,1762.09 3874.5,1770.42 3871.59,1778.76C3869.92,1782.92 3868.25,1786.67 3866.59,1790.42C3865.75,1792.51 3864.92,1794.17 3864.09,1796.26C3863.25,1797.92 3862.42,1799.59 3862,1801.26C3855.34,1815.84 3848.67,1828.34 3842.42,1838.34C3836.17,1848.34 3830.75,1855.84 3826.59,1860.84C3812,1878.76 3799.09,1891.26 3786.17,1902.51C3779.5,1908.34 3772.84,1913.34 3765.34,1918.34C3757.84,1923.34 3749.5,1927.92 3739.5,1931.67C3760.75,1934.17 3780.34,1930.84 3798.67,1922.92C3817,1914.59 3834.92,1902.09 3852,1881.26C3856.59,1875.84 3863.25,1866.67 3870.34,1855.42C3877.42,1844.17 3884.92,1830.01 3892,1814.59C3892.41,1813.78 3892.81,1812.88 3893.21,1811.97L3893.29,1811.79C3893.7,1810.89 3894.1,1809.98 3894.5,1809.17L3902,1790.42C3904.5,1784.17 3907,1777.92 3909.09,1771.67C3917,1760.42 3925.75,1748.76 3937.84,1736.67C3940.34,1734.17 3944.09,1730.42 3949.5,1726.26C3954.92,1722.09 3962.84,1717.09 3974.09,1712.92C3985.34,1708.76 4002,1706.67 4020.34,1710.01C4038.67,1712.92 4057.84,1721.26 4075.34,1730.84C4084.09,1735.42 4092.42,1740.42 4099.92,1745.01C4107,1749.59 4112.84,1753.76 4117.42,1757.51C4121.59,1761.26 4124.92,1764.59 4126.59,1767.09C4128.25,1769.59 4129.09,1770.84 4129.09,1770.84C4129.09,1770.84 4129.92,1772.09 4131.17,1774.17C4132.42,1776.26 4134.09,1779.59 4135.34,1784.59C4137.42,1790.84 4139.09,1799.59 4139.92,1809.17C4139.09,1819.17 4139.09,1828.34 4139.5,1836.67C4137.84,1849.59 4134.5,1863.34 4129.09,1875.84C4122.42,1892.51 4112.42,1907.09 4103.25,1918.34C4092,1931.67 4081.17,1941.26 4072,1948.34C4062.84,1955.42 4055.75,1959.59 4051.17,1962.92C4041.17,1969.17 4032.42,1973.76 4024.09,1977.09C4015.75,1980.42 4007.84,1982.92 3999.5,1985.01C3982.84,1988.76 3964.92,1990.84 3943.67,1992.92C3963.67,2000.84 3980.75,2007.09 4001.17,2008.76C4011.17,2009.59 4022,2008.76 4033.67,2005.84C4044.92,2002.92 4056.59,1997.92 4067.84,1990.84C4073.25,1987.51 4081.59,1982.51 4092,1974.59C4102.42,1966.67 4114.92,1955.84 4128.25,1940.01C4135.34,1931.26 4142.84,1920.84 4149.5,1909.17C4154.5,1927.51 4161.17,1942.51 4169.09,1955.84C4179.09,1972.51 4190.75,1987.09 4206.17,2001.67C4199.5,1981.26 4195.34,1964.17 4191.17,1946.67C4187,1929.17 4182.42,1910.84 4177.84,1887.92C4176.59,1880.01 4173.67,1867.09 4172,1840.01L4172,1838.76C4172.42,1834.59 4172.84,1830.84 4172.84,1826.67C4172.84,1821.26 4172.84,1815.84 4172.42,1810.42C4174.09,1788.34 4179.5,1763.76 4192,1741.26C4201.17,1724.59 4213.67,1708.34 4229.09,1695.01C4243.67,1681.67 4260.75,1670.42 4278.67,1662.51C4296.17,1654.59 4314.5,1649.17 4331.17,1646.26C4347.84,1643.76 4363.25,1642.51 4376.17,1642.92C4379.5,1642.92 4382.42,1642.92 4385.34,1643.34C4388.25,1643.76 4390.75,1643.76 4393.67,1644.17C4398.67,1644.59 4403.25,1645.01 4406.59,1645.84C4413.67,1647.09 4417.84,1647.92 4417.84,1647.92C4417.84,1647.92 4418.67,1647.92 4420.34,1648.34C4422,1648.76 4424.09,1649.17 4427,1650.01C4429.92,1650.84 4433.67,1651.67 4437.84,1652.92C4442,1654.59 4446.59,1656.26 4451.59,1657.92C4456.59,1660.01 4462,1662.92 4467.84,1665.42C4470.75,1666.67 4473.67,1668.76 4476.59,1670.42C4479.5,1672.09 4482.84,1673.76 4485.75,1675.84C4488.67,1677.92 4491.59,1680.01 4494.92,1682.51C4496.59,1683.76 4498.25,1684.59 4499.5,1685.84C4501.17,1687.09 4502.42,1688.34 4504.09,1689.59C4507,1692.09 4510.34,1694.59 4513.25,1697.51C4516.17,1700.42 4519.09,1703.34 4522,1706.67C4533.67,1719.17 4544.92,1733.76 4553.67,1750.01C4562.84,1766.26 4569.92,1783.76 4575.34,1801.67C4580.34,1819.59 4583.25,1837.92 4584.09,1855.01C4584.09,1863.76 4584.5,1872.09 4583.67,1880.42C4583.25,1884.59 4583.25,1888.34 4582.84,1892.51C4582.42,1896.26 4581.59,1900.01 4581.17,1903.76C4580.75,1908.34 4579.5,1912.09 4578.67,1916.26C4577.84,1920.01 4577,1923.76 4575.75,1927.51C4573.67,1934.59 4571.59,1940.42 4569.5,1945.84C4565.34,1956.26 4561.59,1963.34 4558.67,1968.34C4547,1987.92 4535.75,2000.42 4523.25,2011.26C4517,2016.67 4509.92,2021.67 4502.42,2025.84C4494.5,2030.01 4485.75,2033.76 4475.34,2035.84C4485.75,2038.76 4496.17,2040.01 4506.17,2039.17C4516.17,2038.34 4526.17,2035.84 4535.75,2031.67C4554.5,2023.34 4572.84,2008.34 4587,1985.01C4590.34,1979.17 4595.34,1970.42 4600.34,1958.34C4602.84,1952.09 4605.34,1945.01 4607.84,1937.09C4609.09,1932.92 4609.92,1928.76 4611.17,1924.17C4611.17,1923.76 4611.17,1923.34 4611.59,1922.92C4613.67,1920.42 4615.75,1917.92 4617.84,1915.42C4629.5,1902.09 4641.59,1888.76 4659.09,1874.59C4662,1872.51 4666.17,1869.17 4672,1865.42C4677.84,1861.67 4686.17,1857.09 4698.25,1852.92C4700.75,1852.09 4704.92,1850.84 4708.67,1850.01C4710.34,1849.59 4712,1849.17 4713.25,1848.76C4714.5,1848.34 4715.34,1848.34 4715.34,1848.34C4715.34,1848.34 4717.84,1847.92 4721.17,1847.51C4724.5,1847.09 4728.25,1846.67 4731.17,1846.67C4747.84,1845.84 4761.17,1848.76 4771.17,1852.09C4781.17,1855.42 4787.42,1859.59 4792,1862.51C4809.92,1874.59 4822,1887.92 4834.5,1900.84C4834.92,1901.26 4834.92,1901.67 4835.34,1901.67C4839.5,1912.09 4843.25,1920.01 4847,1926.26C4851.17,1933.76 4854.5,1938.76 4857,1942.92C4864.5,1954.17 4872.84,1962.92 4881.17,1970.42C4889.5,1977.92 4897.84,1983.76 4906.59,1988.76C4923.67,1998.34 4942,2004.17 4963.25,2007.09C4945.75,1994.59 4933.25,1982.51 4921.17,1970.01C4914.92,1963.76 4909.09,1957.09 4902.84,1949.59C4896.59,1942.09 4890.34,1934.17 4884.09,1924.59C4882,1921.26 4879.09,1917.09 4875.75,1910.84C4872,1904.59 4867.84,1895.84 4863.25,1883.34C4857.84,1868.34 4852.42,1846.67 4849.92,1822.92C4848.67,1811.26 4848.25,1799.17 4849.5,1787.51C4850.75,1775.84 4853.25,1765.01 4857.42,1755.01C4861.59,1745.01 4867,1735.84 4873.25,1727.92C4874.5,1725.84 4876.17,1724.17 4877.42,1722.09C4879.09,1720.42 4880.34,1718.76 4882,1716.67C4884.92,1713.34 4887.84,1710.42 4890.34,1707.51C4895.75,1702.09 4900.34,1697.92 4903.67,1695.42C4905.34,1694.17 4906.59,1692.92 4907.42,1692.09C4908.25,1691.26 4908.67,1690.84 4908.67,1690.84C4908.67,1690.84 4910.34,1689.59 4913.25,1687.51C4916.17,1685.42 4920.34,1682.51 4926.17,1678.76C4937.42,1671.67 4953.67,1663.34 4972.84,1656.67C4982.42,1653.34 4992.84,1650.42 5003.67,1648.34C5014.5,1646.26 5025.75,1644.59 5036.17,1644.59C5047,1644.17 5057,1645.01 5066.17,1647.51C5075.34,1649.59 5082.84,1653.34 5088.67,1657.51C5100.34,1666.26 5106.17,1677.51 5109.5,1687.51C5112.84,1697.51 5114.09,1705.42 5114.92,1710.84L5114.92,1711.67C5114.92,1712.7 5114.82,1713.83 5114.72,1714.95L5114.71,1715.06C5114.61,1716.19 5114.5,1717.31 5114.5,1718.34C5113.67,1726.67 5113.67,1735.01 5113.67,1743.34C5113.67,1747.51 5113.25,1751.26 5113.67,1755.42C5113.67,1759.17 5114.09,1762.92 5114.09,1766.26C5114.5,1770.01 5114.5,1773.76 5114.92,1777.51C5115.34,1781.26 5115.75,1784.59 5116.17,1787.92C5117.42,1800.84 5119.5,1811.26 5120.75,1818.34C5121.59,1824.59 5123.67,1830.84 5125.34,1836.26C5127,1842.09 5128.25,1847.51 5130.34,1852.51C5134.09,1862.51 5138.67,1872.09 5143.67,1880.42C5154.09,1897.09 5167.42,1912.09 5186.17,1922.51C5174.5,1904.59 5169.92,1887.92 5165.34,1871.26C5163.25,1862.92 5161.17,1853.76 5159.09,1844.17C5157.84,1839.17 5157,1834.17 5156.17,1829.17C5155.34,1823.76 5153.67,1818.34 5152.84,1812.51C5152,1806.26 5149.92,1796.67 5148.67,1784.59C5148.25,1781.67 5147.84,1778.34 5147.84,1775.42C5147.42,1772.09 5147.42,1768.76 5147.42,1765.01C5147.42,1762.92 5147.42,1761.26 5147,1759.17C5147.42,1754.17 5148.25,1748.76 5148.67,1742.92C5149.09,1734.17 5149.5,1724.17 5148.25,1713.34C5150.75,1684.17 5157,1653.34 5167.42,1622.92C5178.67,1589.59 5195.75,1557.51 5216.59,1529.17C5227,1515.01 5238.25,1501.67 5250.34,1489.59C5262.42,1477.51 5274.92,1466.67 5287.84,1457.51C5313.25,1438.76 5339.5,1425.84 5362.42,1417.51C5385.75,1409.59 5405.34,1406.26 5419.5,1404.59C5426.59,1403.76 5432,1403.34 5435.75,1402.92C5439.5,1402.51 5441.59,1402.51 5441.59,1402.51C5441.59,1402.51 5446.59,1402.09 5455.34,1401.67C5464.09,1401.26 5477,1401.26 5493.25,1401.67C5509.09,1402.09 5528.25,1402.92 5549.5,1405.42C5570.34,1407.92 5593.25,1412.09 5616.17,1419.59C5622.01,1421.26 5627.84,1423.34 5633.26,1425.84C5638.67,1428.34 5644.51,1430.84 5650.34,1433.34C5655.76,1436.26 5661.59,1438.76 5667.01,1442.51C5669.92,1444.17 5672.42,1445.84 5675.34,1447.51L5667.01,1442.51C5669.92,1444.17 5672.42,1445.84 5675.34,1447.51L5683.26,1452.92C5686.17,1454.59 5688.67,1456.67 5691.17,1458.76C5693.67,1460.84 5696.17,1462.51 5698.67,1464.59C5703.67,1468.76 5708.67,1472.92 5713.26,1477.51C5722.84,1486.26 5731.17,1496.26 5739.09,1506.26C5742.84,1511.26 5746.59,1516.67 5750.34,1522.09C5754.09,1527.51 5757.01,1532.92 5759.92,1538.34C5765.76,1549.59 5770.76,1560.42 5774.51,1572.09C5778.67,1583.34 5781.17,1594.59 5783.26,1605.84C5784.09,1611.26 5784.92,1616.67 5785.34,1622.09C5785.76,1627.51 5786.17,1632.51 5786.17,1637.92C5786.59,1655.84 5784.51,1670.01 5782.42,1681.26C5780.34,1692.51 5777.84,1700.42 5776.59,1706.26C5775.76,1709.17 5774.92,1712.09 5773.67,1715.01C5763.26,1737.51 5752.01,1759.59 5736.17,1778.76C5731.59,1784.17 5727.01,1789.59 5722.01,1794.59C5718.26,1797.92 5714.09,1801.26 5709.51,1805.01C5706.17,1807.51 5702.01,1810.84 5695.76,1815.42C5689.51,1820.42 5681.17,1826.26 5669.51,1834.17C5664.09,1837.51 5655.76,1843.34 5647.84,1847.92C5644.09,1850.01 5640.34,1852.51 5637.84,1853.76C5635.34,1855.01 5633.67,1856.26 5633.67,1856.26C5633.67,1856.26 5628.26,1859.17 5621.17,1862.92C5614.09,1866.26 5605.75,1870.84 5599.5,1873.76C5565.75,1889.59 5544.09,1896.26 5532.84,1900.01C5509.92,1907.09 5491.59,1912.51 5474.5,1918.76C5457,1924.59 5440.75,1930.42 5419.92,1936.67C5441.17,1940.84 5459.09,1942.51 5478.67,1942.09C5497.84,1941.26 5517.84,1938.76 5542.84,1931.26C5554.92,1927.09 5578.25,1920.01 5614.09,1903.34C5620.75,1900.42 5629.51,1895.42 5637.01,1891.67L5614.09,1903.34C5620.75,1900.42 5629.51,1895.42 5637.01,1891.67C5644.51,1887.51 5649.92,1884.59 5649.92,1884.59C5649.92,1884.59 5651.59,1883.76 5654.51,1882.09C5657.42,1880.42 5660.76,1878.34 5664.92,1875.84C5669.51,1873.34 5674.09,1870.42 5678.26,1867.51C5675.76,1871.67 5674.09,1875.01 5672.42,1877.51C5660.34,1900.01 5652.84,1919.17 5648.67,1937.92C5644.51,1956.67 5642.84,1975.42 5643.67,1996.67C5652.84,1977.09 5661.59,1962.09 5670.76,1946.26C5679.92,1930.42 5689.09,1914.17 5700.76,1892.92C5704.92,1885.84 5711.17,1873.76 5726.59,1850.42C5734.92,1837.92 5746.17,1821.67 5759.92,1805.01C5773.26,1788.34 5789.09,1771.26 5804.51,1757.09C5808.26,1753.34 5812.42,1750.01 5816.17,1747.09C5819.92,1743.76 5823.67,1740.84 5827.01,1737.92C5830.34,1735.01 5834.09,1732.51 5837.42,1730.01C5840.76,1727.51 5843.67,1725.42 5846.59,1723.34C5852.01,1719.17 5857.01,1716.26 5860.34,1714.17C5863.67,1712.09 5865.34,1710.84 5865.34,1710.84C5865.34,1710.84 5867.01,1710.01 5869.51,1707.92C5870.76,1707.09 5872.84,1705.84 5874.51,1704.59C5876.59,1703.34 5879.09,1702.09 5881.59,1700.84C5887.01,1697.92 5893.26,1694.59 5899.92,1690.84C5907.01,1687.51 5915.34,1683.76 5923.67,1680.01C5932.42,1676.67 5941.59,1672.92 5950.76,1669.59C5955.34,1667.92 5960.34,1666.67 5964.92,1665.01C5969.92,1663.76 5974.51,1661.67 5979.51,1660.84C5984.51,1659.59 5989.09,1658.34 5994.09,1657.09C5998.67,1655.84 6003.67,1654.59 6008.26,1653.76C6012.84,1652.92 6017.42,1652.09 6021.59,1651.26C6025.76,1650.42 6029.92,1649.59 6034.09,1649.17C6070.76,1643.76 6093.67,1645.01 6105.34,1644.59C6111.17,1644.59 6117.01,1645.01 6122.42,1645.01C6127.84,1645.01 6133.26,1645.42 6138.26,1645.01C6148.26,1645.42 6157.42,1645.84 6166.59,1645.84C6175.76,1646.26 6184.51,1646.26 6194.09,1646.26C6203.26,1646.67 6213.26,1647.09 6224.09,1647.09C6214.92,1641.67 6206.17,1637.09 6197.42,1632.51C6188.67,1628.76 6179.92,1625.01 6170.76,1622.09C6163.67,1620.01 6156.59,1618.34 6148.67,1616.67C6143.67,1609.17 6139.92,1601.67 6136.17,1594.17C6129.51,1578.76 6124.51,1562.09 6122.84,1540.01C6122.42,1534.59 6122.01,1526.67 6122.84,1515.42C6123.67,1504.59 6126.17,1490.42 6132.01,1473.76C6135.76,1462.92 6141.17,1450.42 6149.09,1438.76C6152.84,1432.92 6157.42,1427.51 6162.01,1422.51C6166.59,1417.51 6171.59,1413.34 6176.59,1409.59C6186.59,1402.09 6197.01,1397.92 6204.92,1395.42C6208.67,1394.17 6212.01,1393.34 6214.09,1392.92C6216.17,1392.51 6217.42,1392.09 6217.42,1392.09C6217.42,1392.09 6219.09,1391.67 6221.59,1391.26C6224.51,1390.84 6228.26,1390.01 6233.26,1389.59C6243.26,1388.34 6257.42,1387.92 6272.84,1388.76C6288.26,1389.59 6304.51,1392.51 6318.67,1397.51C6332.84,1402.09 6344.51,1409.17 6352.84,1415.01C6362.84,1422.51 6369.09,1429.17 6373.26,1434.59C6377.42,1440.01 6379.92,1444.17 6381.59,1447.09C6386.17,1455.84 6388.26,1463.76 6387.84,1469.59C6387.84,1473.76 6386.17,1477.92 6384.51,1482.92C6377.01,1490.84 6369.51,1498.76 6362.42,1507.51C6349.51,1523.34 6337.84,1540.42 6327.84,1557.92C6325.34,1562.51 6322.84,1566.67 6320.34,1571.26C6317.84,1575.84 6315.76,1580.42 6313.26,1585.01C6309.09,1594.17 6304.92,1603.76 6301.59,1613.34C6287.42,1651.26 6280.76,1690.42 6278.67,1725.84C6277.84,1734.59 6277.84,1743.34 6277.84,1752.09L6277.84,1775.84C6278.26,1783.34 6278.67,1790.42 6279.09,1797.09C6280.34,1810.01 6281.59,1820.42 6282.42,1827.09C6284.09,1840.01 6286.59,1850.84 6289.09,1861.26C6292.01,1871.26 6294.92,1880.84 6298.67,1889.59C6300.34,1894.17 6302.42,1898.34 6304.09,1902.51C6306.17,1906.67 6308.26,1910.84 6310.76,1915.01C6314.92,1923.34 6320.34,1932.09 6326.17,1941.26C6325.34,1930.42 6324.51,1920.84 6324.09,1911.26L6321.59,1883.76C6320.76,1874.59 6319.92,1865.42 6318.26,1855.42C6317.42,1845.42 6315.34,1834.59 6314.09,1822.51C6313.26,1815.84 6312.01,1806.26 6310.76,1794.17C6310.34,1787.92 6309.92,1781.26 6309.51,1774.17C6309.51,1767.09 6309.09,1759.59 6309.09,1752.09C6309.51,1744.17 6309.51,1736.26 6309.92,1727.92C6312.01,1695.01 6318.26,1659.17 6331.17,1624.59C6334.09,1615.84 6337.84,1607.51 6341.59,1598.76C6343.67,1594.59 6345.76,1590.42 6347.84,1586.26C6349.92,1582.09 6352.42,1577.92 6354.51,1573.76C6363.67,1557.51 6374.51,1542.09 6386.17,1527.51C6397.84,1512.92 6410.76,1500.01 6424.09,1487.51C6437.42,1475.42 6451.17,1464.59 6465.34,1455.01C6493.26,1436.26 6521.17,1422.51 6545.76,1412.92C6570.34,1403.76 6591.59,1398.34 6606.17,1395.01C6613.67,1393.76 6619.51,1392.51 6623.26,1391.67C6627.01,1390.84 6629.51,1390.84 6629.51,1390.84C6629.51,1390.84 6631.59,1390.42 6635.76,1390.01C6639.51,1389.17 6645.76,1388.76 6653.26,1387.92C6668.26,1386.26 6689.92,1384.59 6716.59,1385.84C6742.84,1386.67 6774.09,1390.01 6807.42,1397.09C6840.34,1404.59 6874.92,1416.26 6903.67,1437.92C6918.26,1448.76 6932.01,1461.67 6945.34,1475.42C6958.67,1489.17 6972.01,1503.76 6984.09,1517.92C6996.17,1532.09 7007.42,1547.09 7017.42,1561.67C7022.42,1569.17 7026.59,1576.67 7030.76,1583.76C7032.84,1587.51 7034.51,1591.26 7036.59,1595.01C7037.42,1597.09 7038.26,1598.76 7039.09,1600.42L7040.34,1603.34C7040.76,1604.17 7041.17,1605.42 7041.17,1605.42C7047.01,1619.59 7051.17,1632.92 7053.67,1644.17C7056.17,1655.42 7057.01,1665.01 7057.84,1671.26C7059.92,1694.59 7059.92,1713.34 7060.76,1731.67C7061.59,1750.01 7062.42,1767.51 7063.26,1789.17C7072.84,1770.01 7079.92,1752.92 7084.51,1734.17C7089.51,1715.42 7092.01,1695.01 7090.34,1668.34C7089.51,1661.26 7088.67,1650.42 7085.76,1637.09C7082.84,1623.76 7078.26,1608.34 7071.59,1592.09C7071.59,1591.67 7070.76,1590.42 7070.34,1589.59L7069.09,1586.26C7068.26,1584.17 7067.01,1582.09 7066.17,1580.01C7064.09,1575.84 7062.01,1571.67 7059.51,1567.51C7054.92,1559.17 7049.92,1550.84 7044.51,1542.92C7033.67,1526.67 7022.01,1511.26 7009.09,1495.84C6996.17,1480.84 6982.84,1466.26 6969.09,1451.67C6955.34,1437.09 6940.34,1422.92 6923.67,1410.84C6907.01,1398.34 6888.26,1388.34 6869.92,1380.84C6851.59,1373.34 6832.84,1368.34 6815.34,1364.17C6814.73,1363.97 6814.23,1363.87 6813.72,1363.77L6813.62,1363.75C6813.12,1363.64 6812.61,1363.54 6812.01,1363.34C6805.76,1360.01 6799.92,1356.67 6793.67,1352.92C6787.84,1349.59 6782.42,1345.84 6777.01,1342.09C6773.67,1338.76 6770.76,1335.01 6767.84,1331.67C6764.92,1328.34 6762.42,1324.17 6759.51,1320.42C6758.26,1318.34 6757.01,1316.26 6755.76,1314.17C6754.51,1312.09 6753.67,1309.59 6752.42,1307.51C6751.59,1305.84 6751.17,1304.17 6749.92,1301.67C6749.09,1299.17 6748.26,1296.67 6747.42,1293.34C6745.76,1286.67 6744.09,1277.92 6744.51,1265.42C6744.92,1258.34 6746.17,1248.76 6749.51,1239.59C6752.84,1230.01 6758.26,1220.42 6764.51,1212.92C6770.76,1205.42 6778.26,1200.01 6783.67,1196.67C6784.92,1195.84 6786.59,1195.01 6787.42,1194.17C6788.67,1193.76 6789.51,1192.92 6790.34,1192.51C6792.01,1191.67 6792.84,1191.26 6792.84,1191.26C6792.84,1191.26 6793.67,1190.84 6794.92,1190.42C6796.17,1190.01 6798.67,1189.17 6801.17,1187.92C6806.59,1186.26 6814.51,1184.17 6823.26,1183.34C6832.01,1182.51 6842.01,1182.92 6851.17,1185.01C6860.34,1187.09 6868.67,1190.42 6875.34,1194.59C6889.09,1202.92 6898.67,1212.92 6904.92,1221.67C6911.59,1230.42 6915.34,1237.51 6918.26,1242.51C6928.67,1262.51 6934.51,1280.01 6941.17,1297.09C6947.42,1314.17 6953.67,1330.84 6961.59,1350.84C6964.09,1329.59 6965.76,1311.26 6964.51,1292.09C6964.09,1287.51 6963.67,1282.92 6963.26,1278.34C6972.01,1285.01 6982.84,1291.26 6995.34,1296.26C7004.09,1299.59 7018.26,1305.84 7049.09,1309.17C7060.76,1310.42 7075.76,1310.84 7092.01,1310.01C7108.26,1309.17 7125.76,1307.09 7141.17,1304.59C7157.01,1301.67 7171.17,1298.34 7181.59,1295.42C7192.01,1292.51 7198.26,1290.42 7198.26,1290.42C7198.26,1290.42 7219.51,1284.17 7245.34,1272.51C7258.26,1266.67 7272.42,1260.01 7285.34,1252.09C7298.67,1244.59 7310.76,1236.26 7320.76,1229.17C7337.01,1217.51 7349.09,1207.09 7358.67,1198.34C7367.84,1189.59 7374.51,1182.51 7378.67,1177.92C7396.17,1158.34 7407.01,1140.42 7414.09,1122.09C7421.17,1103.76 7424.92,1085.42 7425.34,1063.76C7414.51,1082.51 7404.09,1096.26 7393.26,1110.42C7382.01,1124.59 7370.34,1138.76 7354.51,1156.26C7346.59,1164.59 7331.17,1181.67 7301.59,1202.92C7283.26,1216.26 7255.76,1232.51 7232.01,1242.92C7208.26,1253.76 7188.67,1259.59 7188.67,1259.59C7188.67,1259.59 7182.84,1261.67 7173.26,1264.17C7163.67,1266.67 7150.76,1270.01 7136.17,1272.51C7121.59,1275.01 7105.76,1276.67 7090.76,1277.51C7075.76,1278.34 7062.42,1277.92 7052.42,1276.67C7026.17,1273.76 7014.92,1268.76 7007.42,1266.26C6986.59,1257.92 6971.17,1248.34 6956.59,1238.76C6954.51,1237.51 6952.42,1235.84 6950.34,1234.59C6949.51,1232.51 6948.26,1230.01 6947.01,1227.51C6944.09,1221.67 6939.09,1212.92 6931.17,1202.09C6922.84,1191.26 6911.17,1177.92 6892.01,1166.67C6891.17,1165.84 6889.92,1165.42 6888.67,1164.59C6880.76,1150.42 6872.01,1135.42 6862.01,1116.67C6860.34,1113.76 6858.67,1110.01 6856.59,1105.84C6854.51,1101.67 6852.42,1096.67 6849.92,1091.26C6847.42,1085.84 6845.34,1079.59 6842.84,1072.92C6842.01,1070.01 6840.76,1067.09 6839.92,1063.76C6838.67,1060.42 6837.84,1057.09 6837.01,1053.76C6836.17,1050.42 6834.92,1047.09 6834.09,1043.34C6833.26,1040.01 6832.42,1036.26 6831.59,1032.51C6828.26,1017.92 6825.76,1002.51 6824.09,986.673C6822.84,970.839 6822.01,954.173 6822.84,937.506C6823.67,904.173 6829.09,869.589 6837.84,836.672C6846.59,803.756 6858.26,772.506 6871.17,745.006C6884.51,717.506 6899.09,693.756 6914.09,675.839C6928.67,657.506 6943.26,645.006 6953.26,636.256C6958.67,632.089 6962.84,628.756 6965.34,626.672C6966.59,625.422 6967.84,624.589 6968.67,624.172C6969.51,623.756 6969.92,623.339 6969.92,623.339C6969.92,623.339 6973.67,620.839 6980.34,616.256C6982.01,615.006 6984.09,613.756 6986.17,612.506C6988.26,611.256 6990.76,610.006 6993.26,608.339C6998.26,605.422 7004.09,601.672 7010.76,598.756C7014.09,597.089 7017.42,595.422 7021.17,593.339C7024.92,591.672 7028.67,590.006 7032.84,588.339C7040.76,584.589 7049.92,581.672 7059.09,577.922C7077.84,571.672 7099.09,565.422 7122.01,561.256C7144.92,556.672 7169.51,554.589 7194.51,553.756C7219.51,552.922 7244.92,554.589 7268.67,559.589C7280.34,562.089 7292.01,565.839 7302.42,570.422C7312.84,575.006 7322.84,580.839 7332.01,587.089C7350.34,600.422 7366.59,616.256 7381.59,630.839C7395.34,644.172 7405.76,654.589 7414.09,663.339C7422.01,672.089 7427.42,678.756 7431.17,683.339C7436.59,690.006 7441.17,696.256 7445.34,702.089C7451.17,712.506 7455.76,723.339 7459.51,734.172C7460.76,742.089 7461.59,746.256 7461.59,746.256C7461.59,746.256 7462.42,750.422 7464.51,757.922C7466.59,765.422 7470.34,776.256 7476.17,788.339C7479.09,794.589 7482.84,800.839 7486.59,807.922C7488.67,811.256 7491.17,814.589 7493.26,818.339C7495.76,821.672 7497.84,825.422 7500.76,829.172C7511.17,843.756 7524.51,858.339 7540.34,872.089C7556.17,885.839 7574.09,898.756 7594.09,909.173C7614.09,919.589 7635.76,927.923 7657.84,932.506C7679.92,937.089 7702.84,938.339 7724.09,936.256C7745.76,934.173 7765.76,928.339 7782.42,920.839C7787.42,918.756 7791.59,916.673 7795.76,914.589C7799.92,912.506 7803.67,910.423 7807.42,908.339C7811.17,906.256 7814.51,904.173 7817.42,902.089C7820.34,900.006 7823.26,897.923 7826.17,895.839C7827.42,895.006 7828.67,893.756 7829.92,892.923C7831.17,892.089 7832.42,890.839 7833.26,890.006C7835.34,887.923 7837.42,886.256 7839.51,885.006C7843.26,882.089 7846.17,878.756 7848.67,876.673C7867.84,857.506 7878.26,838.339 7884.51,819.172C7890.34,800.006 7892.01,780.839 7888.26,759.589C7881.59,780.006 7872.42,794.589 7862.84,809.172C7852.84,823.339 7842.01,837.506 7825.76,853.756C7823.67,855.839 7821.17,858.339 7818.26,860.839C7816.59,862.089 7814.92,863.756 7813.26,865.006C7812.42,865.839 7811.59,866.673 7810.34,867.506C7809.09,868.339 7808.26,869.173 7807.01,870.006C7804.51,871.673 7802.42,873.339 7799.51,875.006C7797.01,877.089 7794.09,878.339 7790.76,880.423C7787.84,882.506 7784.51,884.173 7780.76,885.839C7777.01,887.506 7773.67,889.589 7769.51,891.256C7755.34,897.506 7738.26,902.089 7720.76,904.173C7702.84,906.256 7683.67,905.006 7664.51,900.839C7645.34,896.673 7626.59,890.006 7609.09,880.839C7591.59,871.673 7575.76,860.423 7562.01,848.339C7548.26,836.256 7536.17,822.922 7527.01,810.422C7524.51,807.506 7522.42,804.172 7520.34,800.839C7518.26,797.506 7516.17,794.589 7514.51,791.672C7510.76,785.839 7507.84,780.006 7505.34,775.006C7500.34,764.589 7497.42,755.839 7495.76,750.006C7494.09,744.172 7493.67,740.422 7493.67,740.422C7493.67,740.422 7492.84,736.256 7491.59,728.756C7490.76,721.256 7489.92,710.006 7489.51,695.839C7489.51,681.256 7489.51,664.589 7492.01,646.256C7493.26,637.089 7494.92,627.922 7497.42,618.756C7499.92,609.589 7503.67,600.422 7508.26,591.672C7517.42,573.756 7531.17,557.089 7547.01,541.672C7562.84,526.256 7581.17,512.922 7599.09,500.839C7617.42,488.756 7634.92,478.756 7652.01,473.756C7664.51,470.006 7676.59,468.339 7687.42,467.922C7711.17,472.089 7734.51,478.339 7755.34,489.589C7773.26,499.172 7787.42,512.922 7800.34,527.922C7801.17,528.756 7801.59,530.006 7802.42,530.839C7805.76,535.839 7808.67,540.422 7811.59,545.006C7812.84,547.089 7814.92,549.172 7816.59,551.256C7818.26,553.339 7819.92,555.006 7821.59,557.089C7824.92,560.839 7828.26,564.589 7831.59,567.922C7838.67,574.589 7845.76,580.839 7853.26,586.672C7861.17,592.506 7869.51,597.506 7878.67,603.339C7873.26,594.172 7868.26,585.839 7863.67,577.506C7859.51,569.172 7854.92,561.256 7850.76,553.339C7848.67,549.172 7846.59,545.006 7844.51,541.256C7843.26,539.172 7842.01,537.089 7841.17,535.006C7839.92,532.922 7838.67,530.839 7837.84,528.756C7835.76,524.172 7833.26,519.589 7830.76,515.006C7829.51,512.506 7827.84,510.422 7826.59,507.922C7825.34,505.422 7824.09,502.922 7822.84,500.006C7821.17,496.256 7818.67,491.672 7815.34,484.589C7814.09,480.839 7812.01,477.089 7810.34,472.089C7809.51,469.589 7808.26,467.089 7807.01,464.172C7805.76,461.256 7804.51,458.339 7803.67,455.006C7800.76,445.839 7796.59,435.422 7794.09,423.339C7793.26,420.422 7792.42,417.089 7791.59,414.172L7794.09,423.339C7793.26,420.422 7792.42,417.089 7791.59,414.172C7791.17,412.505 7790.76,410.839 7790.34,409.589C7789.92,407.922 7789.92,406.255 7789.51,404.589C7788.26,397.922 7787.01,391.255 7785.76,384.589C7782.01,357.089 7780.76,327.089 7782.84,299.589C7783.67,292.922 7784.09,286.255 7784.92,279.589L7782.84,299.589C7783.67,292.922 7784.09,286.255 7784.92,279.589C7785.76,273.339 7787.01,267.089 7788.26,261.255C7788.67,258.339 7789.09,255.422 7789.92,252.505C7790.76,249.589 7791.17,247.089 7792.01,244.589C7793.26,239.589 7794.51,234.589 7795.76,230.422C7796.59,225.839 7798.67,222.089 7799.51,218.755C7800.76,215.422 7801.59,212.505 7802.42,210.005C7804.09,205.005 7804.92,202.505 7804.92,202.505C7804.92,202.505 7805.76,200.422 7807.42,196.255C7809.09,192.089 7811.59,186.672 7814.92,179.589C7821.59,165.839 7832.01,146.672 7847.01,128.339C7861.59,109.589 7881.17,91.672 7902.42,77.089C7923.67,62.505 7946.59,51.672 7965.76,44.589C7969.92,42.922 7974.09,41.255 7977.84,40.422C7981.59,39.172 7985.34,38.339 7989.09,37.089C7993.67,35.839 7987.97,37.018 7992.13,36.185L7991.86,3.256C7985.61,4.506 7988.67,3.338 7980.76,5.422C7977.01,6.672 7972.84,7.922 7968.26,9.172C7964.09,10.422 7959.51,12.505 7954.92,14.172C7933.26,22.089 7907.84,33.755 7884.09,50.422C7860.34,66.672 7838.26,87.089 7821.59,108.339C7812.84,118.755 7805.76,129.172 7799.92,139.172C7794.09,149.172 7789.09,157.922 7785.76,165.839C7782.01,173.339 7779.51,179.589 7777.42,184.172C7775.76,188.339 7774.51,190.839 7774.51,190.839C7774.51,190.839 7773.67,193.755 7771.59,199.172C7770.76,201.672 7769.51,205.005 7768.26,208.755C7767.01,212.505 7765.34,216.672 7764.09,221.672C7762.84,226.672 7761.59,231.672 7759.92,237.505C7759.09,240.422 7758.26,243.339 7757.42,246.255C7757.01,249.172 7756.17,252.505 7755.76,255.839C7754.51,262.089 7753.26,269.172 7752.42,275.839C7751.59,282.922 7750.76,290.005 7749.92,297.505C7747.42,327.505 7748.67,360.005 7752.84,390.005C7754.09,397.505 7755.76,404.589 7757.01,411.672C7757.42,413.339 7757.84,415.005 7757.84,417.089L7761.59,432.089C7763.26,440.422 7765.76,447.506 7768.26,454.589C7764.09,452.506 7759.92,450.422 7755.34,448.339C7753.26,447.506 7750.76,446.672 7747.84,445.422C7744.92,444.172 7741.17,443.339 7737.01,442.089C7734.92,441.672 7732.42,440.839 7729.92,440.006C7727.42,439.589 7724.51,438.756 7721.59,438.339C7715.76,437.089 7708.67,436.256 7701.17,435.422C7684.09,434.172 7663.67,435.422 7642.01,442.089C7620.34,448.339 7600.34,460.422 7580.76,473.339C7561.59,486.256 7542.01,500.839 7524.09,517.922C7506.17,535.006 7490.34,554.589 7478.67,576.256C7473.26,587.089 7468.67,598.339 7465.34,609.589C7462.01,620.839 7459.92,631.672 7458.67,641.672C7457.84,649.589 7457.01,657.089 7456.59,664.589C7456.17,664.172 7455.76,663.756 7455.76,663.339C7451.59,658.339 7445.76,650.839 7437.01,641.672C7428.26,632.506 7417.01,620.839 7403.26,607.922C7388.26,593.339 7371.17,576.256 7349.92,561.256C7339.09,553.756 7327.42,546.672 7314.51,541.256C7301.59,535.839 7288.26,531.672 7274.51,528.756C7247.01,522.922 7219.51,521.256 7192.42,522.089C7165.76,522.506 7139.09,525.422 7114.51,530.006C7089.92,534.589 7067.01,541.256 7046.59,547.922C7036.59,552.089 7027.01,555.006 7018.26,559.172C7013.67,561.256 7009.51,562.922 7005.76,565.006C7002.01,567.089 6998.26,569.172 6994.51,570.839C6987.01,574.589 6981.17,578.339 6975.34,581.672C6972.42,583.339 6969.92,585.006 6967.84,586.256C6965.34,587.922 6963.26,589.172 6961.59,590.422C6954.09,595.422 6949.92,598.339 6949.92,598.339C6949.92,598.339 6949.51,598.756 6948.67,599.172C6947.84,600.006 6946.59,600.839 6945.34,602.089C6942.01,604.589 6937.84,607.922 6932.01,612.506C6920.76,622.506 6904.51,636.256 6888.26,656.672C6871.59,676.672 6855.34,702.922 6841.17,732.506C6827.01,762.089 6814.92,795.006 6805.34,830.006C6796.17,865.006 6790.34,901.673 6789.51,937.923C6789.09,955.839 6789.51,973.756 6791.17,991.256C6792.84,1008.76 6795.76,1025.42 6799.09,1041.26C6799.92,1045.42 6800.76,1049.17 6802.01,1052.92C6802.84,1056.67 6804.09,1060.42 6805.34,1064.17C6806.59,1067.92 6807.42,1071.67 6808.67,1075.01C6809.29,1076.65 6809.8,1078.29 6810.31,1079.93Z" style="fill:rgb(210,140,130);fill-rule:nonzero;"/>
    </g>
</svg>
