<?xml version="1.0" encoding="UTF-8" standalone="no"?>
<!DOCTYPE svg PUBLIC "-//W3C//DTD SVG 1.1//EN" "http://www.w3.org/Graphics/SVG/1.1/DTD/svg11.dtd">
<svg width="100%" height="100%" viewBox="0 0 446 97" version="1.1" xmlns="http://www.w3.org/2000/svg" xmlns:xlink="http://www.w3.org/1999/xlink" xml:space="preserve" xmlns:serif="http://www.serif.com/" style="fill-rule:evenodd;clip-rule:evenodd;stroke-miterlimit:10;">
    <g transform="matrix(1,0,0,1,-8,-975)">
        <g>
            <path id="_x30_1._00000152234173854536548430000011914037267937367225_" d="M108.5,1000.8C107.9,998.3 107.2,995.9 106.3,993.7C105.4,991.4 104.3,989.3 103,987.4C100.3,983.3 97,980.4 93.2,978.6C85.4,975.1 75.7,977 74.7,977.2C70.4,978.1 67.9,979.5 65,981.2C63.6,982 62.2,982.8 60.5,983.6C53.6,986.9 48.9,986.9 44.4,987C40.9,987 37.6,987.1 33.6,988.6C31.8,989.3 30,990.2 28.3,991.3C26.6,992.4 25,993.7 23.4,995.2C21.9,996.7 20.4,998.3 19.1,1000.2C17.8,1002 16.6,1003.9 15.5,1006C13.3,1010.2 11.7,1014.7 10.8,1019.4C9.9,1024.4 9.8,1029.3 10.5,1034.1C10.6,1034.7 11.4,1039.9 14.5,1046.2C16.2,1049.8 18.4,1053.1 20.8,1056C23.9,1059.6 27.5,1062.6 31.5,1064.8C33.8,1066.1 36.3,1067.2 38.8,1068C41,1068.7 43.3,1069.2 45.6,1069.6C48.3,1070 50.8,1070.1 53,1070.1C54.1,1070.1 55.2,1070.1 56.2,1070C63.4,1069.8 70.4,1068.1 77.1,1065C82.1,1062.7 85.7,1060.2 87.9,1058.5C89.4,1057.4 93.3,1054.4 97.3,1049.8C102.1,1044.3 105.5,1038.2 107.5,1031.6C108.9,1027 109.8,1021.8 109.9,1016.4C110.1,1011 109.6,1005.6 108.5,1000.8ZM104.6,1030.6C101.5,1040.4 95.3,1049 86,1056C74.6,1064.6 63.4,1066.7 56,1066.9C55.1,1066.9 54,1067 52.8,1067C47.7,1067 40.5,1066.4 32.9,1062.1C26.1,1058.3 20.8,1052.4 17.1,1044.8C14.2,1038.8 13.4,1033.8 13.4,1033.6C12.1,1024.9 13.7,1015.6 18.1,1007.4C22.2,999.6 28.2,993.8 34.6,991.4C38.1,990.1 41,990 44.4,990C49,989.9 54.2,989.9 61.7,986.3C63.5,985.4 65.1,984.6 66.4,983.8C69.2,982.2 71.4,981 75.2,980.2C75.5,980.1 78,979.7 81.2,979.6C85.3,979.5 89,980.1 91.9,981.4C98.3,984.3 103.2,991.4 105.5,1001.5C107.7,1010.9 107.4,1021.7 104.6,1030.6Z" style="fill:white;fill-rule:nonzero;stroke:rgb(245,245,245);stroke-width:0.25px;"/>
            <path id="_x30_2_x3B__00000090267699177949546840000005818681299894944412_" d="M59,1015.9C59.9,1016.7 60.9,1016.8 61.2,1016.8C64.2,1017 65.1,1012.9 71,1006.5C72.8,1004.5 74.1,1003.4 74.8,1001.2C75.1,1000.3 75.9,997.7 74.4,996C73.4,994.7 71.7,994.5 71.2,994.5C69.2,994.3 67.6,995.3 66.9,995.7C61.1,998.9 54.9,1012.3 59,1015.9Z" style="fill:white;fill-rule:nonzero;stroke:rgb(245,245,245);stroke-width:0.25px;"/>
            <path id="_x30_3_x3B__00000135661494033493161440000017954453006163758489_" d="M92,1000.1C91,999.7 90,1000.2 89.8,1000.3C86.4,1001.9 88.6,1007.6 85.5,1014.5C83.1,1019.9 79.3,1021.7 80.3,1024.7C80.5,1025.2 81.1,1026.8 82.8,1027.6C84.2,1028.2 85.5,1027.9 86,1027.8C86.7,1027.6 88.2,1026.9 89.7,1024.5C93,1019.2 93.8,1014.2 93.8,1014.2C93.8,1013.4 95.7,1001.6 92,1000.1Z" style="fill:white;fill-rule:nonzero;stroke:rgb(245,245,245);stroke-width:0.25px;"/>
            <path id="_x30_4_x3B__00000013902797333201763590000017564153971632759433_" d="M92.5,1031.7C91.5,1030.9 89.9,1030.4 88.9,1031C87.9,1031.7 88.1,1033.2 87.9,1034.2C86.8,1038.5 77.3,1039 74.2,1039.2C70,1039.5 66.8,1038.9 65.2,1038.6C61.6,1038 58.9,1037 57.8,1036.7C52.8,1034.9 49.3,1032.4 47.2,1030.9C42.3,1027.3 40.4,1024.2 39.6,1022.9C38,1020.2 36.5,1017.6 37.3,1014.9C38.5,1010.8 44.6,1011.1 45.2,1007.3C45.4,1005.8 44.7,1004.1 43.6,1003C43.4,1002.8 42.5,1002 40.3,1001.7C35.8,1001 32.2,1002.9 31.6,1003.2C29,1004.6 27.5,1006.4 26.6,1007.5C24.8,1009.7 24,1011.6 23.9,1012.1C23,1014.4 22.7,1015.2 22.7,1015.8C22.7,1016.5 22.7,1018 23.7,1019C25.1,1020.4 27,1019.1 29.3,1020.5C30,1020.9 30.1,1021.2 31.7,1023.4C32.5,1024.5 33.7,1026.1 35.2,1027.9C36.7,1029.9 39.2,1032.7 42.7,1035.5C49.3,1040.7 56.2,1042.2 59.6,1043C62.2,1043.6 65.9,1044.3 70.8,1043.9C72.6,1043.7 75.1,1043.5 78.1,1042.5C83.1,1040.8 86.2,1038.1 88.3,1039.4C89.2,1040 89.4,1041 90.4,1041C91.7,1041.1 92.9,1039.4 93.1,1039.1C94.5,1037.2 94.6,1033.4 92.5,1031.7Z" style="fill:white;fill-rule:nonzero;stroke:rgb(245,245,245);stroke-width:0.25px;"/>
            <path id="_x30_1._00000035492408505236938930000002802693872530975143_" d="M96,977.2L96.9,977.2L96.9,979.4L97.8,979.4L97.8,977.2L98.7,977.2L98.7,976.5L96,976.5L96,977.2Z" style="fill:white;fill-rule:nonzero;stroke:rgb(245,245,245);stroke-width:0.25px;"/>
            <path id="_x30_2_x3B__00000057853365351902378140000011909355731423502231_" d="M101.2,976.5L100.7,978.2L100.3,976.5L99.1,976.5L99.1,979.4L99.8,979.4L99.8,977.2L100.4,979.4L101.1,979.4L101.6,977.2L101.6,979.4L102.4,979.4L102.4,976.5L101.2,976.5Z" style="fill:white;fill-rule:nonzero;stroke:rgb(245,245,245);stroke-width:0.25px;"/>
            <g id="_x30_2_x3B__00000095309404840577294300000009111061611202461078_">
                <path d="M154.3,1013.9C155.5,1012.7 156.1,1010.7 156.1,1008L156.1,1002.6C156.1,999.9 155.5,997.9 154.3,996.7C153.1,995.5 151.2,994.8 148.6,994.8L141.7,994.8L141.7,997.1L143.5,997.1L143.5,1013.4L141.7,1013.4L141.7,1015.8L148.6,1015.8C151.2,1015.7 153.1,1015.1 154.3,1013.9ZM146,1013.4L146,997.1L148.2,997.1C149.1,997.1 149.9,997.2 150.6,997.4C151.3,997.6 151.8,997.9 152.3,998.3C152.7,998.7 153.1,999.3 153.3,1000C153.5,1000.7 153.6,1001.6 153.6,1002.7L153.6,1007.7C153.6,1008.8 153.5,1009.7 153.3,1010.4C153.1,1011.1 152.8,1011.7 152.3,1012.1C151.9,1012.5 151.3,1012.8 150.6,1013C149.9,1013.2 149.1,1013.3 148.2,1013.3L146,1013.4Z" style="fill:white;fill-rule:nonzero;stroke:rgb(245,245,245);stroke-width:0.5px;"/>
                <path d="M161.9,1014C162.5,1014.7 163.3,1015.2 164.2,1015.6C165.1,1016 166.1,1016.2 167.1,1016.2C169,1016.2 170.5,1015.8 171.7,1014.9C172.8,1014 173.6,1012.9 174,1011.5L171.8,1010.9C171.7,1011.3 171.5,1011.7 171.2,1012.1C171,1012.5 170.7,1012.8 170.3,1013.1C169.9,1013.4 169.5,1013.6 169,1013.8C168.5,1014 167.9,1014 167.2,1014C165.7,1014 164.5,1013.5 163.6,1012.6C162.7,1011.7 162.3,1010.5 162.2,1009L174.2,1009L174.2,1007.1C174.2,1006.4 174.1,1005.7 173.8,1004.9C173.5,1004.1 173.1,1003.4 172.5,1002.7C171.9,1002 171.2,1001.5 170.3,1001C169.4,1000.5 168.4,1000.3 167.1,1000.3C166.1,1000.3 165.1,1000.5 164.2,1000.9C163.3,1001.3 162.5,1001.8 161.9,1002.4C161.2,1003.1 160.7,1003.8 160.4,1004.7C160,1005.6 159.8,1006.6 159.8,1007.6L159.8,1008.3C159.8,1009.4 160,1010.5 160.3,1011.4C160.8,1012.5 161.3,1013.3 161.9,1014ZM162.8,1005.2C163.1,1004.7 163.4,1004.2 163.8,1003.9C164.2,1003.5 164.7,1003.2 165.3,1003C165.9,1002.8 166.5,1002.7 167.1,1002.7C167.7,1002.7 168.2,1002.8 168.8,1003C169.3,1003.2 169.8,1003.5 170.3,1003.8C170.7,1004.2 171.1,1004.6 171.3,1005.1C171.6,1005.6 171.7,1006.2 171.8,1006.8L162.2,1006.8C162.3,1006.3 162.5,1005.7 162.8,1005.2Z" style="fill:white;fill-rule:nonzero;stroke:rgb(245,245,245);stroke-width:0.5px;"/>
                <path d="M187.7,1015.7L192.9,1000.9L190.1,1000.9L185.6,1014.7L185.2,1014.7L180.7,1000.9L177.9,1000.9L183.1,1015.7L187.7,1015.7Z" style="fill:white;fill-rule:nonzero;stroke:rgb(245,245,245);stroke-width:0.5px;"/>
                <path d="M209.3,1002.8C208.7,1002.1 208,1001.6 207.1,1001.1C206.2,1000.6 205.2,1000.4 203.9,1000.4C202.9,1000.4 201.9,1000.6 201,1001C200.1,1001.4 199.3,1001.9 198.7,1002.5C198,1003.2 197.5,1003.9 197.2,1004.8C196.8,1005.7 196.6,1006.7 196.6,1007.7L196.6,1008.4C196.6,1009.5 196.8,1010.6 197.1,1011.5C197.5,1012.4 198,1013.3 198.6,1013.9C199.2,1014.6 200,1015.1 200.9,1015.5C201.8,1015.9 202.8,1016.1 203.8,1016.1C205.7,1016.1 207.2,1015.7 208.4,1014.8C209.5,1013.9 210.3,1012.8 210.7,1011.4L208.5,1010.8C208.4,1011.2 208.2,1011.6 207.9,1012C207.7,1012.4 207.4,1012.7 207,1013C206.6,1013.3 206.2,1013.5 205.7,1013.7C205.2,1013.9 204.6,1013.9 203.9,1013.9C202.4,1013.9 201.2,1013.4 200.3,1012.5C199.4,1011.6 199,1010.4 198.9,1008.9L210.9,1008.9L210.9,1007C210.9,1006.3 210.8,1005.6 210.5,1004.8C210.2,1004.2 209.8,1003.4 209.3,1002.8ZM199,1006.9C199.1,1006.3 199.3,1005.7 199.5,1005.2C199.8,1004.7 200.1,1004.2 200.5,1003.9C200.9,1003.5 201.4,1003.2 202,1003C202.6,1002.8 203.2,1002.7 203.8,1002.7C204.4,1002.7 204.9,1002.8 205.5,1003C206,1003.2 206.5,1003.5 207,1003.8C207.4,1004.2 207.8,1004.6 208,1005.1C208.3,1005.6 208.4,1006.2 208.5,1006.8L199,1006.8L199,1006.9Z" style="fill:white;fill-rule:nonzero;stroke:rgb(245,245,245);stroke-width:0.5px;"/>
                <path d="M228.7,1013.6L223.3,1013.6L223.3,994.7L215.8,994.7L215.8,996.9L221,996.9L221,1013.6L215.6,1013.6L215.6,1015.7L228.7,1015.7L228.7,1013.6Z" style="fill:white;fill-rule:nonzero;stroke:rgb(245,245,245);stroke-width:0.5px;"/>
                <path d="M245.7,1002.4C245,1001.7 244.2,1001.2 243.3,1000.9C242.4,1000.6 241.5,1000.4 240.5,1000.4C239.5,1000.4 238.6,1000.6 237.7,1000.9C236.8,1001.2 236,1001.7 235.3,1002.4C234.6,1003.1 234.1,1003.9 233.7,1004.8C233.3,1005.8 233.1,1006.8 233.1,1008.1L233.1,1008.5C233.1,1009.7 233.3,1010.8 233.7,1011.8C234.1,1012.8 234.7,1013.6 235.3,1014.2C236,1014.9 236.8,1015.3 237.7,1015.7C238.6,1016.1 239.5,1016.2 240.5,1016.2C241.5,1016.2 242.4,1016 243.3,1015.7C244.2,1015.4 245,1014.9 245.7,1014.2C246.4,1013.6 246.9,1012.8 247.3,1011.8C247.7,1010.8 247.9,1009.8 247.9,1008.5L247.9,1008.1C247.9,1006.9 247.7,1005.8 247.3,1004.8C246.9,1003.9 246.4,1003.1 245.7,1002.4ZM245.6,1008.5C245.6,1009.3 245.5,1010.1 245.2,1010.8C244.9,1011.5 244.6,1012 244.1,1012.5C243.6,1013 243.1,1013.3 242.5,1013.6C241.9,1013.9 241.2,1014 240.5,1014C239.8,1014 239.1,1013.9 238.5,1013.6C237.9,1013.3 237.4,1013 236.9,1012.5C236.4,1012 236.1,1011.4 235.8,1010.8C235.5,1010.1 235.4,1009.4 235.4,1008.5L235.4,1008.1C235.4,1007.3 235.5,1006.6 235.8,1005.9C236.1,1005.2 236.4,1004.7 236.9,1004.2C237.4,1003.7 237.9,1003.3 238.5,1003.1C239.1,1002.8 239.8,1002.7 240.5,1002.7C241.2,1002.7 241.9,1002.8 242.5,1003.1C243.1,1003.4 243.7,1003.7 244.1,1004.2C244.6,1004.7 244.9,1005.3 245.2,1005.9C245.5,1006.6 245.6,1007.3 245.6,1008.1L245.6,1008.5Z" style="fill:white;fill-rule:nonzero;stroke:rgb(245,245,245);stroke-width:0.5px;"/>
                <path d="M254.1,1013.5L254.5,1013.5C254.8,1014 255.1,1014.4 255.5,1014.7C255.9,1015 256.3,1015.3 256.7,1015.5C257.2,1015.7 257.6,1015.9 258.1,1016C258.6,1016.1 259.1,1016.2 259.6,1016.2C260.5,1016.2 261.4,1016 262.3,1015.7C263.2,1015.4 263.9,1014.9 264.5,1014.2C265.1,1013.6 265.6,1012.8 266,1011.8C266.4,1010.9 266.5,1009.8 266.5,1008.6L266.5,1008C266.5,1006.8 266.3,1005.7 265.9,1004.8C265.5,1003.9 265,1003.1 264.4,1002.4C263.8,1001.8 263,1001.3 262.2,1000.9C261.4,1000.6 260.5,1000.4 259.6,1000.4C258.5,1000.4 257.5,1000.6 256.6,1001.1C255.7,1001.6 255,1002.3 254.4,1003.2L254,1003.2L254,1000.9L251.7,1000.9L251.7,1021.8L254,1021.8L254.1,1013.5ZM254.1,1008.1C254.1,1007.3 254.2,1006.6 254.5,1005.9C254.8,1005.2 255.1,1004.7 255.6,1004.2C256.1,1003.7 256.6,1003.3 257.2,1003.1C257.8,1002.8 258.4,1002.7 259.1,1002.7C259.8,1002.7 260.5,1002.8 261.1,1003.1C261.7,1003.4 262.2,1003.7 262.7,1004.2C263.1,1004.7 263.5,1005.2 263.7,1005.9C263.9,1006.6 264.1,1007.3 264.1,1008.1L264.1,1008.7C264.1,1009.5 264,1010.3 263.7,1010.9C263.4,1011.5 263.1,1012.1 262.7,1012.6C262.2,1013.1 261.7,1013.4 261.1,1013.7C260.5,1013.9 259.8,1014.1 259.1,1014.1C258.4,1014.1 257.8,1014 257.2,1013.7C256.6,1013.4 256.1,1013.1 255.6,1012.6C255.1,1012.1 254.8,1011.5 254.5,1010.9C254.2,1010.2 254.1,1009.5 254.1,1008.7L254.1,1008.1Z" style="fill:white;fill-rule:nonzero;stroke:rgb(245,245,245);stroke-width:0.5px;"/>
                <path d="M272.1,1014C272.7,1014.7 273.5,1015.2 274.4,1015.6C275.3,1016 276.3,1016.2 277.3,1016.2C279.2,1016.2 280.7,1015.8 281.9,1014.9C283,1014 283.8,1012.9 284.2,1011.5L282,1010.9C281.9,1011.3 281.7,1011.7 281.4,1012.1C281.2,1012.5 280.9,1012.8 280.5,1013.1C280.1,1013.4 279.7,1013.6 279.2,1013.8C278.7,1014 278.1,1014 277.4,1014C275.9,1014 274.7,1013.5 273.8,1012.6C272.9,1011.7 272.5,1010.5 272.4,1009L284.4,1009L284.4,1007.1C284.4,1006.4 284.3,1005.7 284,1004.9C283.7,1004.1 283.3,1003.4 282.7,1002.7C282.1,1002 281.4,1001.5 280.5,1001C279.6,1000.5 278.6,1000.3 277.3,1000.3C276.3,1000.3 275.3,1000.5 274.4,1000.9C273.5,1001.3 272.7,1001.8 272.1,1002.4C271.4,1003.1 270.9,1003.8 270.6,1004.7C270.2,1005.6 270,1006.6 270,1007.6L270,1008.3C270,1009.4 270.2,1010.5 270.5,1011.4C270.9,1012.5 271.4,1013.3 272.1,1014ZM272.9,1005.2C273.2,1004.7 273.5,1004.2 273.9,1003.9C274.3,1003.5 274.8,1003.2 275.4,1003C276,1002.8 276.6,1002.7 277.2,1002.7C277.8,1002.7 278.3,1002.8 278.9,1003C279.4,1003.2 279.9,1003.5 280.4,1003.8C280.8,1004.2 281.2,1004.6 281.4,1005.1C281.7,1005.6 281.8,1006.2 281.9,1006.8L272.3,1006.8C272.5,1006.3 272.7,1005.7 272.9,1005.2Z" style="fill:white;fill-rule:nonzero;stroke:rgb(245,245,245);stroke-width:0.5px;"/>
                <path d="M300.5,1003.2L300.1,1003.2C299.6,1002.3 298.9,1001.6 298,1001.1C297.1,1000.6 296.2,1000.4 295.1,1000.4C294.1,1000.4 293.2,1000.6 292.4,1000.9C291.5,1001.2 290.8,1001.7 290.2,1002.4C289.6,1003 289,1003.9 288.7,1004.8C288.3,1005.8 288.1,1006.8 288.1,1008L288.1,1008.5C288.1,1009.7 288.3,1010.8 288.7,1011.8C289.1,1012.8 289.6,1013.5 290.2,1014.2C290.8,1014.8 291.6,1015.3 292.5,1015.7C293.4,1016 294.3,1016.2 295.3,1016.2C295.7,1016.2 296.2,1016.1 296.7,1016C297.2,1015.9 297.6,1015.7 298.1,1015.5C298.5,1015.3 298.9,1015 299.3,1014.7C299.7,1014.4 300,1014 300.2,1013.5L300.6,1013.5L300.6,1015.8L302.9,1015.8L302.9,994.8L300.6,994.8L300.5,1003.2ZM300.5,1008.5C300.5,1009.3 300.4,1010.1 300.1,1010.7C299.8,1011.4 299.5,1011.9 299,1012.4C298.5,1012.9 298,1013.3 297.4,1013.5C296.8,1013.8 296.2,1013.9 295.5,1013.9C294.8,1013.9 294.1,1013.8 293.5,1013.5C292.9,1013.2 292.4,1012.9 291.9,1012.4C291.4,1011.9 291.1,1011.4 290.9,1010.7C290.7,1010 290.5,1009.3 290.5,1008.5L290.5,1008C290.5,1007.2 290.6,1006.5 290.9,1005.8C291.2,1005.1 291.5,1004.6 291.9,1004.1C292.4,1003.6 292.9,1003.3 293.5,1003C294.1,1002.7 294.8,1002.6 295.5,1002.6C296.2,1002.6 296.8,1002.7 297.4,1003C298,1003.3 298.5,1003.6 299,1004.1C299.5,1004.6 299.8,1005.2 300.1,1005.8C300.4,1006.5 300.5,1007.2 300.5,1008L300.5,1008.5Z" style="fill:white;fill-rule:nonzero;stroke:rgb(245,245,245);stroke-width:0.5px;"/>
                <path d="M337.8,1002.4C337.2,1001.8 336.4,1001.3 335.6,1000.9C334.8,1000.6 333.9,1000.4 333,1000.4C331.9,1000.4 330.9,1000.6 330,1001.1C329.1,1001.6 328.4,1002.3 327.8,1003.2L327.4,1003.2L327.4,994.7L325.1,994.7L325.1,1015.7L327.4,1015.7L327.4,1013.4L327.8,1013.4C328.1,1013.9 328.4,1014.3 328.8,1014.6C329.2,1014.9 329.6,1015.2 330,1015.4C330.5,1015.6 330.9,1015.8 331.4,1015.9C331.9,1016 332.4,1016.1 332.9,1016.1C333.8,1016.1 334.7,1015.9 335.6,1015.6C336.5,1015.3 337.2,1014.8 337.8,1014.1C338.4,1013.5 338.9,1012.7 339.3,1011.7C339.7,1010.8 339.8,1009.7 339.8,1008.5L339.8,1007.9C339.8,1006.7 339.6,1005.6 339.2,1004.7C339,1003.8 338.5,1003.1 337.8,1002.4ZM337.5,1008.6C337.5,1009.4 337.4,1010.2 337.1,1010.8C336.8,1011.4 336.5,1012 336.1,1012.5C335.6,1013 335.1,1013.3 334.5,1013.6C333.9,1013.8 333.2,1014 332.5,1014C331.8,1014 331.2,1013.9 330.6,1013.6C330,1013.3 329.5,1013 329,1012.5C328.5,1012 328.2,1011.4 327.9,1010.8C327.6,1010.1 327.5,1009.4 327.5,1008.6L327.5,1008.2C327.5,1007.4 327.6,1006.7 327.9,1006C328.2,1005.3 328.5,1004.8 329,1004.3C329.5,1003.8 330,1003.4 330.6,1003.2C331.2,1002.9 331.8,1002.8 332.5,1002.8C333.2,1002.8 333.9,1002.9 334.5,1003.2C335.1,1003.5 335.6,1003.8 336.1,1004.3C336.5,1004.8 336.9,1005.3 337.1,1006C337.3,1006.7 337.5,1007.4 337.5,1008.2L337.5,1008.6Z" style="fill:white;fill-rule:nonzero;stroke:rgb(245,245,245);stroke-width:0.5px;"/>
                <path d="M354.9,1008.6C354.9,1010.2 354.5,1011.5 353.7,1012.5C352.9,1013.5 351.8,1014 350.4,1014C349.1,1014 348.1,1013.6 347.5,1012.9C346.9,1012.2 346.5,1011 346.5,1009.5L346.5,1000.9L344.2,1000.9L344.2,1009.8C344.2,1010.9 344.3,1011.8 344.6,1012.6C344.9,1013.4 345.3,1014.1 345.7,1014.6C346.2,1015.1 346.8,1015.5 347.5,1015.8C348.2,1016.1 348.9,1016.2 349.8,1016.2C351,1016.2 352,1015.9 352.8,1015.4C353.6,1014.9 354.2,1014.1 354.7,1013.1L355.1,1013.1L355.1,1018.7C355.1,1019.3 354.8,1019.6 354.3,1019.6L346.7,1019.6L346.7,1021.8L355.2,1021.8C355.9,1021.8 356.4,1021.6 356.9,1021.1C357.3,1020.7 357.5,1020.1 357.5,1019.4L357.5,1000.9L355.2,1000.9L355.2,1008.6L354.9,1008.6Z" style="fill:white;fill-rule:nonzero;stroke:rgb(245,245,245);stroke-width:0.5px;"/>
                <path d="M145,1024.7L140,1045.7L144.1,1045.7L145.1,1041.2L152.2,1041.2L153.2,1045.7L157.3,1045.7L152.3,1024.7L145,1024.7ZM146,1037.5L148.5,1026.8L149,1026.8L151.4,1037.5L146,1037.5Z" style="fill:white;fill-rule:nonzero;stroke:rgb(245,245,245);stroke-width:0.5px;"/>
                <path d="M171.9,1030.4C171.1,1030.4 170.5,1030.6 170,1030.9C169.5,1031.3 169.2,1031.7 169,1032.2L168.5,1032.2C168.3,1031.7 168,1031.2 167.6,1030.9C167.1,1030.6 166.6,1030.4 165.9,1030.4C165.2,1030.4 164.6,1030.6 164.2,1030.9C163.8,1031.3 163.5,1031.7 163.4,1032.2L162.9,1032.2L162.9,1030.8L159,1030.8L159,1045.7L162.8,1045.7L162.8,1035.4C162.8,1034.9 162.9,1034.6 163.2,1034.3C163.4,1034.1 163.7,1033.9 164.1,1033.9C164.4,1033.9 164.7,1034 164.9,1034.2C165.1,1034.4 165.2,1034.7 165.2,1035.1L165.2,1045.5L169,1045.5L169,1035.2C169,1034.7 169.1,1034.4 169.3,1034.1C169.5,1033.9 169.8,1033.7 170.2,1033.7C170.5,1033.7 170.8,1033.8 171,1034C171.2,1034.2 171.3,1034.5 171.3,1034.9L171.3,1045.3L175.1,1045.3L175.1,1033.8C175.1,1032.6 174.8,1031.7 174.2,1031C173.7,1030.8 172.9,1030.4 171.9,1030.4Z" style="fill:white;fill-rule:nonzero;stroke:rgb(245,245,245);stroke-width:0.5px;"/>
                <path d="M191.3,1032.4C190.7,1031.7 190,1031.3 189.2,1030.9C188.4,1030.6 187.6,1030.4 186.7,1030.4C185.5,1030.4 184.5,1030.6 183.8,1031.1C183,1031.6 182.5,1032.2 182.1,1033L181.6,1033L181.6,1030.8L177.8,1030.8L177.8,1051.7L181.6,1051.7L181.6,1043.5L182.1,1043.5C182.3,1043.8 182.5,1044.2 182.7,1044.5C182.9,1044.8 183.3,1045.1 183.6,1045.3C184,1045.5 184.4,1045.7 184.9,1045.9C185.4,1046.1 186,1046.1 186.7,1046.1C187.6,1046.1 188.5,1045.9 189.3,1045.6C190.1,1045.3 190.8,1044.8 191.4,1044.1C192,1043.5 192.4,1042.7 192.8,1041.7C193.1,1040.8 193.3,1039.7 193.3,1038.5L193.3,1038C193.3,1036.8 193.1,1035.7 192.8,1034.8C192.4,1033.9 191.9,1033.1 191.3,1032.4ZM189.5,1038.5C189.5,1039.8 189.1,1040.8 188.4,1041.5C187.7,1042.2 186.7,1042.6 185.5,1042.6C184.3,1042.6 183.4,1042.2 182.6,1041.5C181.9,1040.7 181.5,1039.8 181.5,1038.5L181.5,1038.1C181.5,1036.9 181.9,1035.9 182.6,1035.1C183.3,1034.3 184.3,1034 185.5,1034C186.7,1034 187.6,1034.4 188.4,1035.1C189.1,1035.8 189.5,1036.8 189.5,1038.1L189.5,1038.5Z" style="fill:white;fill-rule:nonzero;stroke:rgb(245,245,245);stroke-width:0.5px;"/>
                <path d="M209.4,1031.9C208.9,1031.4 208.4,1031.1 207.8,1030.8C207.2,1030.6 206.5,1030.4 205.8,1030.4C204.7,1030.4 203.8,1030.6 203.1,1031.1C202.4,1031.6 201.8,1032.3 201.4,1033.2L200.9,1033.2L200.9,1024.7L197,1024.7L197,1045.7L200.8,1045.7L200.8,1038C200.8,1036.7 201.1,1035.7 201.6,1035C202.1,1034.3 203,1033.9 204.1,1033.9C205.1,1033.9 205.8,1034.2 206.3,1034.8C206.8,1035.4 207.1,1036.2 207.1,1037.3L207.1,1045.8L210.9,1045.8L210.9,1036.4C210.9,1035.4 210.8,1034.5 210.5,1033.7C210.2,1033 209.9,1032.4 209.4,1031.9Z" style="fill:white;fill-rule:nonzero;stroke:rgb(245,245,245);stroke-width:0.5px;"/>
                <path d="M227.8,1032.8C227.2,1032.1 226.4,1031.5 225.5,1031.1C224.6,1030.6 223.5,1030.4 222.2,1030.4C221.2,1030.4 220.2,1030.6 219.3,1031C218.4,1031.4 217.6,1031.9 216.9,1032.5C216.2,1033.1 215.7,1034 215.3,1034.9C214.9,1035.8 214.7,1036.9 214.7,1038L214.7,1038.2C214.7,1039.4 214.9,1040.6 215.3,1041.5C215.7,1042.5 216.2,1043.3 216.9,1044C217.6,1044.7 218.4,1045.2 219.3,1045.6C220.2,1046 221.2,1046.1 222.4,1046.1C223.4,1046.1 224.2,1046 225,1045.8C225.7,1045.6 226.4,1045.3 226.9,1045C227.4,1044.7 227.8,1044.3 228.1,1043.9C228.4,1043.5 228.7,1043.1 228.9,1042.7L225.7,1040.9C225.5,1041.4 225.1,1041.8 224.6,1042.1C224.1,1042.4 223.4,1042.6 222.4,1042.6C221.9,1042.6 221.5,1042.5 221,1042.4C220.6,1042.3 220.2,1042 219.9,1041.8C219.6,1041.5 219.3,1041.2 219.1,1040.8C218.9,1040.4 218.8,1040 218.8,1039.6L229.7,1039.6L229.7,1037.6C229.7,1036.8 229.6,1036 229.3,1035.2C229,1034.4 228.4,1033.5 227.8,1032.8ZM218.7,1036.3C218.9,1035.7 219.3,1035.1 219.9,1034.6C220.5,1034.1 221.3,1033.9 222.2,1033.9C223.1,1033.9 224,1034.1 224.6,1034.6C225.2,1035.1 225.6,1035.6 225.7,1036.3L218.7,1036.3Z" style="fill:white;fill-rule:nonzero;stroke:rgb(245,245,245);stroke-width:0.5px;"/>
                <path d="M241.4,1024.7L237.6,1024.7L237.6,1030.8L233.2,1030.8L233.2,1034.4L237.6,1034.4L237.6,1043.3C237.6,1044 237.8,1044.5 238.2,1045C238.6,1045.4 239.2,1045.7 239.9,1045.7L246.2,1045.7L246.2,1042.1L242.2,1042.1C241.7,1042.1 241.4,1041.8 241.4,1041.2L241.4,1034.4L246.8,1034.4L246.8,1030.8L241.4,1030.8L241.4,1024.7Z" style="fill:white;fill-rule:nonzero;stroke:rgb(245,245,245);stroke-width:0.5px;"/>
                <path d="M265.7,1041.2L265.7,1030.8L261.9,1030.8L261.9,1032.6L261.4,1032.6C261,1031.8 260.5,1031.3 259.9,1030.9C259.2,1030.5 258.4,1030.4 257.3,1030.4C256.4,1030.4 255.6,1030.6 254.8,1030.9C254,1031.3 253.4,1031.8 252.8,1032.4C252.2,1033 251.8,1033.9 251.4,1034.8C251.1,1035.7 250.9,1036.8 250.9,1038L250.9,1038.5C250.9,1039.7 251.1,1040.8 251.4,1041.7C251.7,1042.6 252.2,1043.4 252.8,1044.1C253.4,1044.8 254.1,1045.3 254.9,1045.6C255.7,1045.9 256.5,1046.1 257.4,1046.1C258.4,1046.1 259.2,1045.9 259.9,1045.5C260.6,1045.1 261.2,1044.4 261.6,1043.5L262.1,1043.5C262.1,1044.1 262.3,1044.7 262.7,1045.1C263.1,1045.5 263.7,1045.7 264.4,1045.7L267,1045.7L267,1042.1L266.4,1042.1C266,1042.1 265.7,1041.8 265.7,1041.2ZM261.9,1038.5C261.9,1039.8 261.6,1040.8 260.9,1041.5C260.2,1042.2 259.4,1042.6 258.3,1042.6C257.2,1042.6 256.3,1042.2 255.7,1041.5C255,1040.8 254.7,1039.8 254.7,1038.5L254.7,1038.1C254.7,1036.8 255,1035.8 255.7,1035.1C256.4,1034.4 257.2,1034 258.3,1034C259.4,1034 260.3,1034.4 260.9,1035.1C261.6,1035.8 261.9,1036.8 261.9,1038.1L261.9,1038.5Z" style="fill:white;fill-rule:nonzero;stroke:rgb(245,245,245);stroke-width:0.5px;"/>
                <path d="M282,1030.4C281.2,1030.4 280.6,1030.6 280.1,1030.9C279.6,1031.3 279.3,1031.7 279.1,1032.2L278.6,1032.2C278.4,1031.7 278.1,1031.2 277.7,1030.9C277.2,1030.6 276.7,1030.4 276,1030.4C275.3,1030.4 274.7,1030.6 274.3,1030.9C273.9,1031.3 273.6,1031.7 273.5,1032.2L273,1032.2L273,1030.8L269.2,1030.8L269.2,1045.7L273,1045.7L273,1035.4C273,1034.9 273.1,1034.6 273.4,1034.3C273.6,1034.1 273.9,1033.9 274.3,1033.9C274.6,1033.9 274.9,1034 275.1,1034.2C275.3,1034.4 275.4,1034.7 275.4,1035.1L275.4,1045.5L279.2,1045.5L279.2,1035.2C279.2,1034.7 279.3,1034.4 279.5,1034.1C279.7,1033.9 280,1033.7 280.4,1033.7C280.7,1033.7 281,1033.8 281.2,1034C281.4,1034.2 281.5,1034.5 281.5,1034.9L281.5,1045.3L285.3,1045.3L285.3,1033.8C285.3,1032.6 285,1031.7 284.4,1031C283.8,1030.8 283,1030.4 282,1030.4Z" style="fill:white;fill-rule:nonzero;stroke:rgb(245,245,245);stroke-width:0.5px;"/>
                <path d="M297.8,1030.9L289.4,1030.9L289.4,1034.5L294.1,1034.5L294.1,1042.1L289,1042.1L289,1045.7L302.2,1045.7L302.2,1042.1L297.8,1042.1L297.8,1030.9Z" style="fill:white;fill-rule:nonzero;stroke:rgb(245,245,245);stroke-width:0.5px;"/>
                <path d="M294.8,1029.1C295.1,1029.3 295.5,1029.3 295.9,1029.3C296.3,1029.3 296.6,1029.2 297,1029.1C297.3,1028.9 297.7,1028.8 297.9,1028.5C298.1,1028.2 298.4,1028 298.5,1027.6C298.7,1027.3 298.7,1026.9 298.7,1026.5C298.7,1026.1 298.6,1025.7 298.5,1025.4C298.4,1025.1 298.1,1024.8 297.9,1024.5C297.6,1024.3 297.3,1024.1 297,1023.9C296.6,1023.7 296.3,1023.7 295.9,1023.7C295.5,1023.7 295.1,1023.8 294.8,1023.9C294.5,1024.1 294.2,1024.3 293.9,1024.5C293.6,1024.8 293.4,1025.1 293.3,1025.4C293.2,1025.8 293.1,1026.1 293.1,1026.5C293.1,1026.9 293.2,1027.3 293.3,1027.6C293.5,1028 293.7,1028.3 293.9,1028.5C294.1,1028.7 294.5,1028.9 294.8,1029.1Z" style="fill:white;fill-rule:nonzero;stroke:rgb(245,245,245);stroke-width:0.5px;"/>
                <path d="M319.4,1031.8C318.9,1031.3 318.4,1031 317.7,1030.7C317.1,1030.5 316.4,1030.4 315.7,1030.4C314.7,1030.4 313.8,1030.6 313,1031.1C312.2,1031.6 311.7,1032.2 311.4,1033.1L310.9,1033.1L310.9,1030.9L307.1,1030.9L307.1,1045.8L310.9,1045.8L310.9,1038.1C310.9,1036.8 311.2,1035.8 311.7,1035.1C312.2,1034.3 313.1,1034 314.2,1034C315.2,1034 315.9,1034.3 316.4,1034.9C316.9,1035.5 317.2,1036.3 317.2,1037.4L317.2,1045.9L321,1045.9L321,1036.5C321,1035.5 320.9,1034.6 320.6,1033.9C320.3,1032.9 319.9,1032.3 319.4,1031.8Z" style="fill:white;fill-rule:nonzero;stroke:rgb(245,245,245);stroke-width:0.5px;"/>
                <path d="M338,1032.8C337.4,1032.1 336.6,1031.5 335.7,1031.1C334.8,1030.6 333.7,1030.4 332.4,1030.4C331.4,1030.4 330.4,1030.6 329.5,1031C328.6,1031.4 327.8,1031.9 327.1,1032.5C326.4,1033.1 325.9,1034 325.5,1034.9C325.1,1035.8 324.9,1036.9 324.9,1038L324.9,1038.2C324.9,1039.4 325.1,1040.6 325.5,1041.5C325.9,1042.5 326.4,1043.3 327.1,1044C327.8,1044.7 328.6,1045.2 329.5,1045.6C330.4,1046 331.4,1046.1 332.6,1046.1C333.6,1046.1 334.4,1046 335.2,1045.8C335.9,1045.6 336.6,1045.3 337.1,1045C337.6,1044.7 338,1044.3 338.3,1043.9C338.6,1043.5 338.9,1043.1 339.1,1042.7L335.9,1040.9C335.7,1041.4 335.3,1041.8 334.8,1042.1C334.3,1042.4 333.6,1042.6 332.6,1042.6C332.1,1042.6 331.7,1042.5 331.2,1042.4C330.8,1042.3 330.4,1042 330.1,1041.8C329.8,1041.5 329.5,1041.2 329.3,1040.8C329.1,1040.4 329,1040 329,1039.6L339.9,1039.6L339.9,1037.6C339.9,1036.8 339.8,1036 339.5,1035.2C339.2,1034.4 338.6,1033.5 338,1032.8ZM328.9,1036.3C329.1,1035.7 329.5,1035.1 330.1,1034.6C330.7,1034.1 331.5,1033.9 332.4,1033.9C333.3,1033.9 334.2,1034.1 334.8,1034.6C335.4,1035.1 335.8,1035.6 335.9,1036.3L328.9,1036.3Z" style="fill:white;fill-rule:nonzero;stroke:rgb(245,245,245);stroke-width:0.5px;"/>
                <path d="M361.5,1028.5L367,1028.5L367,1045.7L371,1045.7L371,1028.5L376.6,1028.5L376.6,1024.7L361.5,1024.7L361.5,1028.5Z" style="fill:white;fill-rule:nonzero;stroke:rgb(245,245,245);stroke-width:0.5px;"/>
                <path d="M389.6,1030.9L381.2,1030.9L381.2,1034.5L385.9,1034.5L385.9,1042.1L380.8,1042.1L380.8,1045.7L394,1045.7L394,1042.1L389.6,1042.1L389.6,1030.9Z" style="fill:white;fill-rule:nonzero;stroke:rgb(245,245,245);stroke-width:0.5px;"/>
                <path d="M385.7,1028.5C386,1028.7 386.3,1028.9 386.6,1029.1C386.9,1029.3 387.3,1029.3 387.7,1029.3C388.1,1029.3 388.4,1029.2 388.8,1029.1C389.1,1028.9 389.5,1028.8 389.7,1028.5C389.9,1028.2 390.2,1028 390.3,1027.6C390.5,1027.3 390.5,1026.9 390.5,1026.5C390.5,1026.1 390.4,1025.7 390.3,1025.4C390.2,1025.1 389.9,1024.8 389.7,1024.5C389.4,1024.3 389.1,1024.1 388.8,1023.9C388.4,1023.7 388.1,1023.7 387.7,1023.7C387.3,1023.7 386.9,1023.8 386.6,1023.9C386.3,1024.1 386,1024.3 385.7,1024.5C385.4,1024.8 385.2,1025.1 385.1,1025.4C385,1025.8 384.9,1026.1 384.9,1026.5C384.9,1026.9 385,1027.3 385.1,1027.6C385.2,1027.9 385.4,1028.2 385.7,1028.5Z" style="fill:white;fill-rule:nonzero;stroke:rgb(245,245,245);stroke-width:0.5px;"/>
                <path d="M410.5,1030.4C409.7,1030.4 409.1,1030.6 408.6,1030.9C408.1,1031.3 407.8,1031.7 407.6,1032.2L407.1,1032.2C406.9,1031.7 406.6,1031.2 406.2,1030.9C405.7,1030.6 405.2,1030.4 404.5,1030.4C403.8,1030.4 403.2,1030.6 402.8,1030.9C402.4,1031.3 402.1,1031.7 402,1032.2L401.5,1032.2L401.5,1030.8L397.7,1030.8L397.7,1045.7L401.5,1045.7L401.5,1035.4C401.5,1034.9 401.6,1034.6 401.9,1034.3C402.1,1034.1 402.4,1033.9 402.8,1033.9C403.1,1033.9 403.4,1034 403.6,1034.2C403.8,1034.4 403.9,1034.7 403.9,1035.1L403.9,1045.5L407.7,1045.5L407.7,1035.2C407.7,1034.7 407.8,1034.4 408,1034.1C408.2,1033.9 408.5,1033.7 408.9,1033.7C409.2,1033.7 409.5,1033.8 409.7,1034C409.9,1034.2 410,1034.5 410,1034.9L410,1045.3L413.8,1045.3L413.8,1033.8C413.8,1032.6 413.5,1031.7 412.9,1031C412.3,1030.8 411.5,1030.4 410.5,1030.4Z" style="fill:white;fill-rule:nonzero;stroke:rgb(245,245,245);stroke-width:0.5px;"/>
                <path d="M429.8,1032.8C429.2,1032.1 428.4,1031.5 427.5,1031.1C426.6,1030.6 425.5,1030.4 424.2,1030.4C423.2,1030.4 422.2,1030.6 421.3,1031C420.4,1031.4 419.6,1031.9 418.9,1032.5C418.2,1033.1 417.7,1034 417.3,1034.9C416.9,1035.8 416.7,1036.9 416.7,1038L416.7,1038.2C416.7,1039.4 416.9,1040.6 417.3,1041.5C417.7,1042.5 418.2,1043.3 418.9,1044C419.6,1044.7 420.4,1045.2 421.3,1045.6C422.2,1046 423.2,1046.1 424.4,1046.1C425.4,1046.1 426.2,1046 427,1045.8C427.7,1045.6 428.4,1045.3 428.9,1045C429.4,1044.7 429.8,1044.3 430.1,1043.9C430.4,1043.5 430.7,1043.1 430.9,1042.7L427.7,1040.9C427.5,1041.4 427.1,1041.8 426.6,1042.1C426.1,1042.4 425.4,1042.6 424.4,1042.6C423.9,1042.6 423.5,1042.5 423,1042.4C422.6,1042.3 422.2,1042 421.9,1041.8C421.6,1041.5 421.3,1041.2 421.1,1040.8C420.9,1040.4 420.8,1040 420.8,1039.6L431.7,1039.6L431.7,1037.6C431.7,1036.8 431.6,1036 431.3,1035.2C431,1034.4 430.4,1033.5 429.8,1032.8ZM420.7,1036.3C420.9,1035.7 421.3,1035.1 421.9,1034.6C422.5,1034.1 423.3,1033.9 424.2,1033.9C425.1,1033.9 426,1034.1 426.6,1034.6C427.2,1035.1 427.6,1035.6 427.7,1036.3L420.7,1036.3Z" style="fill:white;fill-rule:nonzero;stroke:rgb(245,245,245);stroke-width:0.5px;"/>
                <path d="M434.2,1026.9L436.4,1026.9L436.4,1033.4L438.8,1033.4L438.8,1026.9L441,1026.9L441,1024.7L434.2,1024.7L434.2,1026.9Z" style="fill:white;fill-rule:nonzero;stroke:rgb(245,245,245);stroke-width:0.5px;"/>
                <path d="M446.8,1024.7L446.4,1030.7L446.4,1031.8L446.1,1031.8L446.1,1030.7L445.7,1024.7L441.7,1024.7L441.7,1033.4L444,1033.4L444,1026.4L444.4,1026.4L444.4,1027.4L444.8,1033.4L447.7,1033.4L448.1,1027.4L448.1,1026.4L448.5,1026.4L448.5,1033.4L450.7,1033.4L450.7,1024.7L446.8,1024.7Z" style="fill:white;fill-rule:nonzero;stroke:rgb(245,245,245);stroke-width:0.5px;"/>
            </g>
        </g>
    </g>
</svg>
