<?xml version="1.0" encoding="UTF-8" standalone="no"?>
<!DOCTYPE svg PUBLIC "-//W3C//DTD SVG 1.1//EN" "http://www.w3.org/Graphics/SVG/1.1/DTD/svg11.dtd">
<svg width="100%" height="100%" viewBox="0 0 1378 1191" version="1.1" xmlns="http://www.w3.org/2000/svg" xmlns:xlink="http://www.w3.org/1999/xlink" xml:space="preserve" xmlns:serif="http://www.serif.com/" style="fill-rule:evenodd;clip-rule:evenodd;stroke-linejoin:round;stroke-miterlimit:2;">
    <g transform="matrix(3.21875,0,0,2.78231,-2208.54,-764.941)">
        <clipPath id="_clip1">
            <rect x="686.149" y="274.93" width="428.335" height="428.335"/>
        </clipPath>
        <g clip-path="url(#_clip1)">
            <g opacity="0.1">
                <rect x="686.149" y="274.93" width="428.335" height="428.335" style="fill:none;"/>
                <clipPath id="_clip2">
                    <rect x="686.149" y="274.93" width="428.335" height="428.335"/>
                </clipPath>
                <g clip-path="url(#_clip2)">
                    <g id="_x30_2_x3B__00000082368081088283870110000016471904011174246804_" transform="matrix(1.30767,0,0,1.51279,468.1,176.874)">
                        <path d="M359.9,352.4C360.9,355.9 364.5,358 368,357.1C371.5,356.1 373.6,352.5 372.7,349C371.7,345.5 368.1,343.4 364.6,344.3C361.1,345.2 358.9,348.9 359.9,352.4Z" style="fill-rule:nonzero;"/>
                        <circle cx="386.6" cy="345.3" r="6.6"/>
                        <circle cx="289.5" cy="349.5" r="6.6"/>
                        <path d="M303.5,345.7C304.4,349.2 308,351.3 311.6,350.4C315.1,349.4 317.2,345.8 316.3,342.3C315.3,338.8 311.7,336.7 308.2,337.6C304.7,338.5 302.6,342.2 303.5,345.7Z" style="fill-rule:nonzero;"/>
                        <path d="M323.7,338.6C323.7,342.2 326.7,345.2 330.3,345.2C333.9,345.2 336.9,342.2 336.9,338.6C336.9,335 333.9,332 330.3,332C326.6,332 323.7,335 323.7,338.6Z" style="fill-rule:nonzero;"/>
                        <path d="M344.2,334.8C345.2,338.3 348.8,340.4 352.3,339.5C355.8,338.5 357.9,334.9 357,331.4C356,327.9 352.4,325.8 348.9,326.7C345.4,327.7 343.3,331.3 344.2,334.8Z" style="fill-rule:nonzero;"/>
                        <path d="M364.3,327.7C364.3,331.3 367.3,334.3 370.9,334.3C374.5,334.3 377.5,331.3 377.5,327.7C377.5,324.1 374.5,321.1 370.9,321.1C367.3,321.1 364.3,324 364.3,327.7Z" style="fill-rule:nonzero;"/>
                        <path d="M186.1,355.4C187,358.9 190.6,361 194.2,360.1C197.7,359.1 199.8,355.5 198.9,352C198,348.5 194.3,346.4 190.8,347.3C187.3,348.2 185.2,351.9 186.1,355.4Z" style="fill-rule:nonzero;"/>
                        <path d="M206.5,349.9C207.4,353.4 211.1,355.5 214.6,354.6C218.1,353.6 220.2,350 219.3,346.5C218.4,343 214.7,340.9 211.2,341.8C207.7,342.7 205.5,346.4 206.5,349.9Z" style="fill-rule:nonzero;"/>
                        <path d="M226.6,342.8C226.6,346.4 229.5,349.4 233.2,349.4C236.9,349.4 239.8,346.4 239.8,342.8C239.8,339.2 236.9,336.2 233.2,336.2C229.6,336.2 226.6,339.2 226.6,342.8Z" style="fill-rule:nonzero;"/>
                        <path d="M247,337.4C247,341 249.9,344 253.6,344C257.3,344 260.2,341 260.2,337.4C260.2,333.8 257.2,330.8 253.6,330.8C249.9,330.8 247,333.7 247,337.4Z" style="fill-rule:nonzero;"/>
                        <path d="M267.5,333.5C268.5,337 272.1,339.1 275.6,338.2C279.1,337.2 281.2,333.6 280.3,330.1C279.3,326.6 275.7,324.5 272.2,325.4C268.7,326.4 266.6,330 267.5,333.5Z" style="fill-rule:nonzero;"/>
                        <path d="M287.9,328.1C288.9,331.6 292.5,333.7 296,332.8C299.5,331.8 301.6,328.2 300.7,324.7C299.7,321.2 296.1,319.1 292.6,320C289,321 286.9,324.6 287.9,328.1Z" style="fill-rule:nonzero;"/>
                        <path d="M308.2,322.6C309.2,326.1 312.8,328.2 316.3,327.3C319.8,326.3 321.9,322.7 321,319.2C320,315.7 316.4,313.6 312.9,314.5C309.4,315.5 307.3,319.1 308.2,322.6Z" style="fill-rule:nonzero;"/>
                        <path d="M333.3,309.1C329.8,310.1 327.7,313.7 328.6,317.2C329.6,320.7 333.2,322.8 336.7,321.9C340.2,320.9 342.3,317.3 341.4,313.8C340.4,310.3 336.8,308.2 333.3,309.1Z" style="fill-rule:nonzero;"/>
                        <path d="M355.3,303.5C351.7,303.5 348.7,306.5 348.7,310.1C348.7,313.7 351.7,316.7 355.3,316.7C358.9,316.7 361.9,313.7 361.9,310.1C361.9,306.4 358.9,303.5 355.3,303.5Z" style="fill-rule:nonzero;"/>
                        <path d="M374,298.2C370.5,299.2 368.4,302.8 369.3,306.3C370.3,309.8 373.9,311.9 377.4,311C380.9,310 383,306.4 382.1,302.9C381.1,299.4 377.5,297.3 374,298.2Z" style="fill-rule:nonzero;"/>
                        <path d="M170.5,337.7C171.4,341.2 175.1,343.3 178.6,342.4C182.1,341.4 184.2,337.8 183.3,334.3C182.4,330.8 178.7,328.7 175.2,329.6C171.6,330.6 169.6,334.2 170.5,337.7Z" style="fill-rule:nonzero;"/>
                        <path d="M190.9,332.3C191.8,335.8 195.5,337.9 199,337C202.5,336 204.6,332.4 203.7,328.9C202.8,325.4 199.1,323.3 195.6,324.2C192,325.2 189.9,328.8 190.9,332.3Z" style="fill-rule:nonzero;"/>
                        <path d="M211.2,326.8C212.1,330.3 215.8,332.4 219.3,331.5C222.8,330.5 224.9,326.9 224,323.4C223.1,319.9 219.4,317.8 215.9,318.7C212.4,319.7 210.3,323.3 211.2,326.8Z" style="fill-rule:nonzero;"/>
                        <path d="M231.6,321.4C232.5,324.9 236.2,327 239.7,326.1C243.2,325.2 245.3,321.5 244.4,318C243.5,314.5 239.8,312.4 236.3,313.3C232.8,314.2 230.6,317.9 231.6,321.4Z" style="fill-rule:nonzero;"/>
                        <path d="M256.6,307.9C253.1,308.9 251,312.5 251.9,316C252.8,319.5 256.5,321.6 260,320.7C263.5,319.7 265.6,316.1 264.7,312.6C263.7,309 260.1,306.9 256.6,307.9Z" style="fill-rule:nonzero;"/>
                        <path d="M276.9,302.4C273.4,303.3 271.3,307 272.2,310.5C273.2,314 276.8,316.1 280.3,315.2C283.8,314.2 285.9,310.6 285,307.1C284,303.6 280.4,301.5 276.9,302.4Z" style="fill-rule:nonzero;"/>
                        <path d="M297.3,297C293.8,297.9 291.7,301.5 292.6,305.1C293.6,308.6 297.2,310.7 300.7,309.8C304.2,308.8 306.3,305.2 305.4,301.7C304.5,298.2 300.8,296 297.3,297Z" style="fill-rule:nonzero;"/>
                        <path d="M317.6,291.5C314.1,292.4 312,296 312.9,299.6C313.9,303.1 317.5,305.2 321,304.3C324.5,303.3 326.6,299.7 325.7,296.2C324.8,292.7 321.1,290.6 317.6,291.5Z" style="fill-rule:nonzero;"/>
                        <circle cx="339.7" cy="292.4" r="6.6"/>
                        <path d="M353.7,288.6C354.6,292.1 358.3,294.2 361.8,293.3C365.3,292.3 367.4,288.7 366.5,285.2C365.5,281.7 361.9,279.6 358.4,280.5C354.9,281.4 352.7,285.1 353.7,288.6Z" style="fill-rule:nonzero;"/>
                        <path d="M154.9,320.1C155.8,323.6 159.5,325.7 163,324.8C166.5,323.8 168.6,320.2 167.7,316.7C166.8,313.2 163.1,311.1 159.6,312C156,313 153.9,316.6 154.9,320.1Z" style="fill-rule:nonzero;"/>
                        <path d="M181.6,306.4C178,306.4 175,309.4 175,313C175,316.6 177.9,319.6 181.6,319.6C185.3,319.6 188.2,316.6 188.2,313C188.1,309.3 185.2,306.4 181.6,306.4Z" style="fill-rule:nonzero;"/>
                        <circle cx="201.9" cy="307.5" r="6.6"/>
                        <path d="M220.6,295.7C217.1,296.7 215,300.2 215.9,303.8C216.8,307.3 220.5,309.4 224,308.5C227.5,307.5 229.6,303.9 228.7,300.4C227.7,296.9 224.1,294.8 220.6,295.7Z" style="fill-rule:nonzero;"/>
                        <path d="M240.9,290.2C237.4,291.1 235.3,294.7 236.2,298.3C237.1,301.8 240.8,303.9 244.3,303C247.8,302 249.9,298.4 249,294.9C248.1,291.4 244.5,289.3 240.9,290.2Z" style="fill-rule:nonzero;"/>
                        <path d="M256.4,291.2C256.4,294.8 259.4,297.8 263,297.8C266.6,297.8 269.6,294.8 269.6,291.2C269.6,287.6 266.6,284.6 263,284.6C259.3,284.6 256.4,287.5 256.4,291.2Z" style="fill-rule:nonzero;"/>
                        <path d="M277,287.4C278,290.9 281.6,293 285.1,292.1C288.6,291.1 290.7,287.5 289.8,284C288.8,280.5 285.2,278.4 281.7,279.3C278.1,280.3 276,283.9 277,287.4Z" style="fill-rule:nonzero;"/>
                        <path d="M297.1,280.3C297.1,283.9 300.1,286.9 303.7,286.9C307.3,286.9 310.3,283.9 310.3,280.3C310.3,276.7 307.3,273.7 303.7,273.7C300.1,273.7 297.1,276.6 297.1,280.3Z" style="fill-rule:nonzero;"/>
                        <path d="M317.7,276.5C318.7,280 322.3,282.1 325.8,281.2C329.3,280.2 331.4,276.6 330.5,273.1C329.5,269.6 326,267.5 322.4,268.4C318.8,269.4 316.7,273 317.7,276.5Z" style="fill-rule:nonzero;"/>
                        <circle cx="344.4" cy="269.4" r="6.6"/>
                        <path d="M358.4,265.6C359.4,269.1 363,271.2 366.5,270.3C370,269.3 372.1,265.7 371.2,262.2C370.2,258.7 366.6,256.6 363.1,257.5C359.5,258.5 357.5,262.1 358.4,265.6Z" style="fill-rule:nonzero;"/>
                        <path d="M164.2,289C160.7,290 158.6,293.6 159.5,297.1C160.4,300.6 164.1,302.7 167.6,301.8C171.1,300.9 173.2,297.2 172.3,293.7C171.4,290.2 167.8,288 164.2,289Z" style="fill-rule:nonzero;"/>
                        <path d="M179.7,289.9C179.7,293.5 182.6,296.5 186.3,296.5C190,296.5 192.9,293.5 192.9,289.9C192.9,286.3 190,283.3 186.3,283.3C182.6,283.3 179.7,286.2 179.7,289.9Z" style="fill-rule:nonzero;"/>
                        <path d="M200.1,284.5C200.1,288.1 203,291.1 206.7,291.1C210.4,291.1 213.3,288.1 213.3,284.5C213.3,280.9 210.4,277.9 206.7,277.9C203.1,277.9 200.1,280.9 200.1,284.5Z" style="fill-rule:nonzero;"/>
                        <path d="M220.6,280.7C221.5,284.2 225.2,286.3 228.7,285.4C232.2,284.4 234.3,280.8 233.4,277.3C232.5,273.8 228.8,271.7 225.3,272.6C221.8,273.6 219.7,277.2 220.6,280.7Z" style="fill-rule:nonzero;"/>
                        <path d="M240.8,273.5C240.8,277.1 243.7,280.1 247.4,280.1C251.1,280.1 254,277.1 254,273.5C254,269.9 251.1,266.9 247.4,266.9C243.7,266.9 240.8,269.9 240.8,273.5Z" style="fill-rule:nonzero;"/>
                        <path d="M261.4,269.8C262.4,273.3 266,275.4 269.5,274.5C273,273.5 275.1,269.9 274.2,266.4C273.2,262.9 269.6,260.8 266.1,261.7C262.5,262.7 260.4,266.3 261.4,269.8Z" style="fill-rule:nonzero;"/>
                        <path d="M281.7,264.3C282.7,267.8 286.3,269.9 289.8,269C293.3,268 295.4,264.4 294.5,260.9C293.5,257.4 289.9,255.3 286.4,256.2C282.9,257.2 280.8,260.8 281.7,264.3Z" style="fill-rule:nonzero;"/>
                        <path d="M301.9,257.2C301.9,260.8 304.9,263.8 308.5,263.8C312.1,263.8 315.1,260.8 315.1,257.2C315.1,253.6 312.1,250.6 308.5,250.6C304.8,250.6 301.9,253.6 301.9,257.2Z" style="fill-rule:nonzero;"/>
                        <path d="M327.1,245.4C323.6,246.3 321.5,250 322.4,253.5C323.4,257 327,259.1 330.5,258.2C334,257.3 336.1,253.6 335.2,250.1C334.2,246.5 330.6,244.4 327.1,245.4Z" style="fill-rule:nonzero;"/>
                        <path d="M347.5,239.9C344,240.8 341.9,244.5 342.8,248C343.8,251.5 347.4,253.6 350.9,252.7C354.4,251.8 356.5,248.1 355.6,244.6C354.6,241.1 351,239 347.5,239.9Z" style="fill-rule:nonzero;"/>
                        <path d="M164.3,274C165.2,277.5 168.8,279.6 172.4,278.7C175.9,277.7 178,274.1 177.1,270.6C176.2,267.1 172.5,265 169,265.9C165.5,266.8 163.4,270.5 164.3,274Z" style="fill-rule:nonzero;"/>
                        <path d="M184.5,266.8C184.5,270.4 187.4,273.4 191.1,273.4C194.8,273.4 197.7,270.4 197.7,266.8C197.7,263.2 194.8,260.2 191.1,260.2C187.4,260.2 184.5,263.1 184.5,266.8Z" style="fill-rule:nonzero;"/>
                        <circle cx="211.4" cy="261.4" r="6.6"/>
                        <path d="M225.4,257.6C226.3,261.1 230,263.2 233.5,262.3C237,261.3 239.1,257.7 238.2,254.2C237.3,250.7 233.6,248.6 230.1,249.5C226.6,250.5 224.4,254.1 225.4,257.6Z" style="fill-rule:nonzero;"/>
                        <path d="M252.1,243.9C248.5,243.9 245.5,246.8 245.5,250.5C245.5,254.1 248.4,257.1 252.1,257.1C255.8,257.1 258.7,254.2 258.7,250.5C258.7,246.8 255.7,243.9 252.1,243.9Z" style="fill-rule:nonzero;"/>
                        <path d="M270.8,238.6C267.3,239.5 265.2,243.2 266.1,246.7C267.1,250.2 270.7,252.3 274.2,251.4C277.7,250.5 279.8,246.8 278.9,243.3C277.9,239.8 274.2,237.7 270.8,238.6Z" style="fill-rule:nonzero;"/>
                        <path d="M291.1,233.2C287.6,234.1 285.5,237.8 286.4,241.3C287.4,244.8 291,246.9 294.5,246C298,245.1 300.1,241.4 299.2,237.9C298.2,234.4 294.6,232.2 291.1,233.2Z" style="fill-rule:nonzero;"/>
                        <path d="M313.1,227.5C309.5,227.5 306.5,230.4 306.5,234.1C306.5,237.8 309.5,240.7 313.1,240.7C316.7,240.7 319.7,237.8 319.7,234.1C319.7,230.4 316.8,227.5 313.1,227.5Z" style="fill-rule:nonzero;"/>
                        <path d="M327.1,230.3C328.1,233.8 331.7,235.9 335.2,235C338.7,234.1 340.8,230.5 339.9,226.9C338.9,223.4 335.3,221.3 331.8,222.2C328.3,223.2 326.2,226.8 327.1,230.3Z" style="fill-rule:nonzero;"/>
                        <path d="M347.2,223.2C347.2,226.8 350.2,229.8 353.8,229.8C357.4,229.8 360.4,226.9 360.4,223.2C360.4,219.5 357.4,216.6 353.8,216.6C350.2,216.6 347.2,219.6 347.2,223.2Z" style="fill-rule:nonzero;"/>
                        <circle cx="175.4" cy="249.2" r="6.6"/>
                        <path d="M195.7,237.2C192.1,237.2 189.1,240.1 189.1,243.8C189.1,247.5 192,250.4 195.7,250.4C199.4,250.4 202.3,247.5 202.3,243.8C202.3,240.1 199.4,237.2 195.7,237.2Z" style="fill-rule:nonzero;"/>
                        <path d="M214.4,231.9C210.9,232.8 208.8,236.5 209.7,240C210.6,243.5 214.3,245.6 217.8,244.7C221.3,243.8 223.4,240.2 222.5,236.6C221.5,233.1 217.9,230.9 214.4,231.9Z" style="fill-rule:nonzero;"/>
                        <path d="M234.8,226.4C231.3,227.3 229.2,231 230.1,234.5C231,238 234.7,240.1 238.2,239.2C241.7,238.3 243.8,234.7 242.9,231.1C241.9,227.6 238.3,225.5 234.8,226.4Z" style="fill-rule:nonzero;"/>
                        <path d="M250.5,229.1C251.4,232.6 255,234.7 258.6,233.8C262.1,232.9 264.2,229.2 263.3,225.7C262.3,222.2 258.7,220.1 255.2,221C251.6,222 249.5,225.6 250.5,229.1Z" style="fill-rule:nonzero;"/>
                        <path d="M270.8,223.6C271.7,227.1 275.3,229.2 278.9,228.3C282.4,227.4 284.5,223.7 283.6,220.2C282.6,216.7 279,214.6 275.5,215.5C272,216.5 269.9,220.1 270.8,223.6Z" style="fill-rule:nonzero;"/>
                        <circle cx="297.5" cy="216.5" r="6.6"/>
                        <path d="M311.5,212.7C312.5,216.2 316.1,218.3 319.6,217.4C323.1,216.5 325.2,212.9 324.3,209.3C323.3,205.8 319.7,203.7 316.2,204.6C312.7,205.5 310.6,209.2 311.5,212.7Z" style="fill-rule:nonzero;"/>
                        <path d="M331.6,205.6C331.6,209.2 334.6,212.2 338.2,212.2C341.8,212.2 344.8,209.3 344.8,205.6C344.8,201.9 341.8,199 338.2,199C334.5,199 331.6,201.9 331.6,205.6Z" style="fill-rule:nonzero;"/>
                        <path d="M173.5,226.1C173.5,229.7 176.4,232.7 180.1,232.7C183.8,232.7 186.7,229.8 186.7,226.1C186.7,222.5 183.8,219.5 180.1,219.5C176.4,219.6 173.5,222.5 173.5,226.1Z" style="fill-rule:nonzero;"/>
                        <path d="M193.9,220.7C193.9,224.3 196.8,227.3 200.5,227.3C204.2,227.3 207.1,224.4 207.1,220.7C207.1,217 204.2,214.1 200.5,214.1C196.8,214.1 193.9,217 193.9,220.7Z" style="fill-rule:nonzero;"/>
                        <path d="M214.2,215.2C214.2,218.8 217.1,221.8 220.8,221.8C224.5,221.8 227.4,218.9 227.4,215.2C227.4,211.5 224.5,208.6 220.8,208.6C217.1,208.6 214.2,211.6 214.2,215.2Z" style="fill-rule:nonzero;"/>
                        <circle cx="241.2" cy="209.7" r="6.6"/>
                        <path d="M255.2,206C256.2,209.5 259.8,211.6 263.3,210.7C266.8,209.8 268.9,206.1 268,202.6C267,199.1 263.4,197 259.9,197.9C256.4,198.8 254.2,202.5 255.2,206Z" style="fill-rule:nonzero;"/>
                        <path d="M275.5,200.5C276.5,204 280.1,206.1 283.6,205.2C287.1,204.3 289.2,200.6 288.3,197.1C287.3,193.6 283.7,191.5 280.2,192.4C276.7,193.3 274.6,197 275.5,200.5Z" style="fill-rule:nonzero;"/>
                        <path d="M295.9,195.1C296.9,198.6 300.5,200.7 304,199.8C307.5,198.9 309.6,195.2 308.7,191.7C307.7,188.2 304.1,186.1 300.6,187C297.1,187.9 294.9,191.6 295.9,195.1Z" style="fill-rule:nonzero;"/>
                        <path d="M322.6,181.3C319,181.3 316,184.2 316,187.9C316,191.6 319,194.5 322.6,194.5C326.2,194.5 329.2,191.6 329.2,187.9C329.2,184.2 326.2,181.3 322.6,181.3Z" style="fill-rule:nonzero;"/>
                        <circle cx="343" cy="182.5" r="6.6"/>
                        <path d="M157.9,208.5C157.9,212.1 160.8,215.1 164.5,215.1C168.2,215.1 171.1,212.2 171.1,208.5C171.1,204.8 168.2,201.9 164.5,201.9C160.8,201.9 157.9,204.9 157.9,208.5Z" style="fill-rule:nonzero;"/>
                        <path d="M178.5,204.7C179.4,208.2 183.1,210.3 186.6,209.4C190.1,208.5 192.2,204.8 191.3,201.3C190.4,197.8 186.7,195.7 183.2,196.6C179.6,197.6 177.5,201.2 178.5,204.7Z" style="fill-rule:nonzero;"/>
                        <path d="M198.8,199.3C199.7,202.8 203.4,204.9 206.9,204C210.4,203.1 212.5,199.4 211.6,195.9C210.7,192.4 207,190.3 203.5,191.2C200,192.1 197.9,195.8 198.8,199.3Z" style="fill-rule:nonzero;"/>
                        <path d="M219,192.1C219,195.7 221.9,198.7 225.6,198.7C229.3,198.7 232.2,195.8 232.2,192.1C232.2,188.4 229.3,185.5 225.6,185.5C221.9,185.5 219,188.4 219,192.1Z" style="fill-rule:nonzero;"/>
                        <path d="M244.2,180.3C240.7,181.2 238.6,184.9 239.5,188.4C240.4,191.9 244.1,194 247.6,193.1C251.1,192.2 253.2,188.5 252.3,185C251.3,181.5 247.7,179.4 244.2,180.3Z" style="fill-rule:nonzero;"/>
                        <path d="M266.2,174.6C262.6,174.6 259.6,177.5 259.6,181.2C259.6,184.9 262.6,187.8 266.2,187.8C269.8,187.8 272.8,184.9 272.8,181.2C272.8,177.5 269.9,174.6 266.2,174.6Z" style="fill-rule:nonzero;"/>
                        <path d="M286.6,169.2C283,169.2 280,172.1 280,175.8C280,179.5 283,182.4 286.6,182.4C290.2,182.4 293.2,179.5 293.2,175.8C293.2,172.2 290.2,169.2 286.6,169.2Z" style="fill-rule:nonzero;"/>
                        <path d="M305.3,163.9C301.8,164.8 299.7,168.5 300.6,172C301.6,175.5 305.2,177.6 308.7,176.7C312.2,175.8 314.3,172.1 313.4,168.6C312.4,165.1 308.8,163 305.3,163.9Z" style="fill-rule:nonzero;"/>
                        <path d="M321,166.6C322,170.1 325.6,172.2 329.1,171.3C332.6,170.4 334.7,166.7 333.8,163.2C332.8,159.7 329.2,157.6 325.7,158.5C322.1,159.4 320,163.1 321,166.6Z" style="fill-rule:nonzero;"/>
                        <circle cx="169.2" cy="185.4" r="6.6"/>
                        <path d="M187.9,173.6C184.4,174.5 182.3,178.2 183.2,181.7C184.1,185.2 187.8,187.3 191.3,186.4C194.8,185.5 196.9,181.8 196,178.3C195,174.7 191.4,172.6 187.9,173.6Z" style="fill-rule:nonzero;"/>
                        <path d="M208.2,168.1C204.7,169 202.6,172.7 203.5,176.2C204.4,179.7 208.1,181.8 211.6,180.9C215.1,180 217.2,176.3 216.3,172.8C215.3,169.3 211.7,167.2 208.2,168.1Z" style="fill-rule:nonzero;"/>
                        <path d="M228.6,162.7C225.1,163.6 223,167.3 223.9,170.8C224.8,174.3 228.5,176.4 232,175.5C235.5,174.6 237.6,170.9 236.7,167.4C235.7,163.8 232.1,161.7 228.6,162.7Z" style="fill-rule:nonzero;"/>
                        <path d="M244.3,165.3C245.2,168.8 248.9,170.9 252.4,170C255.9,169.1 258,165.4 257.1,161.9C256.2,158.4 252.5,156.3 249,157.2C245.5,158.1 243.3,161.8 244.3,165.3Z" style="fill-rule:nonzero;"/>
                        <circle cx="271" cy="158.2" r="6.6"/>
                        <circle cx="291.3" cy="152.7" r="6.6"/>
                        <path d="M305.3,148.9C306.3,152.4 309.9,154.5 313.4,153.6C316.9,152.7 319,149.1 318.1,145.5C317.1,142 313.5,139.9 310,140.8C306.5,141.7 304.4,145.4 305.3,148.9Z" style="fill-rule:nonzero;"/>
                        <path d="M325.7,143.4C326.7,146.9 330.3,149 333.8,148.1C337.3,147.2 339.4,143.6 338.5,140C337.5,136.5 333.9,134.4 330.4,135.3C326.9,136.2 324.7,139.9 325.7,143.4Z" style="fill-rule:nonzero;"/>
                        <path d="M167.4,162.4C167.4,166 170.3,169 174,169C177.7,169 180.6,166.1 180.6,162.4C180.6,158.7 177.7,155.8 174,155.8C170.3,155.8 167.4,158.7 167.4,162.4Z" style="fill-rule:nonzero;"/>
                        <path d="M187.9,158.6C188.8,162.1 192.5,164.2 196,163.3C199.5,162.4 201.6,158.7 200.7,155.2C199.8,151.7 196.1,149.6 192.6,150.5C189.1,151.4 187,155.1 187.9,158.6Z" style="fill-rule:nonzero;"/>
                        <path d="M208,151.4C208,155 210.9,158 214.6,158C218.3,158 221.2,155.1 221.2,151.4C221.2,147.7 218.3,144.8 214.6,144.8C210.9,144.9 208,147.8 208,151.4Z" style="fill-rule:nonzero;"/>
                        <path d="M228.6,147.7C229.5,151.2 233.1,153.3 236.7,152.4C240.2,151.5 242.3,147.8 241.4,144.3C240.5,140.8 236.8,138.7 233.3,139.6C229.8,140.5 227.7,144.2 228.6,147.7Z" style="fill-rule:nonzero;"/>
                        <circle cx="255.4" cy="140.5" r="6.6"/>
                        <path d="M269.4,136.7C270.4,140.2 274,142.3 277.5,141.4C281,140.5 283.1,136.9 282.2,133.3C281.2,129.8 277.6,127.7 274.1,128.6C270.5,129.6 268.4,133.2 269.4,136.7Z" style="fill-rule:nonzero;"/>
                        <path d="M289.7,131.3C290.7,134.8 294.3,136.9 297.8,136C301.3,135.1 303.4,131.5 302.5,127.9C301.5,124.4 297.9,122.3 294.4,123.2C290.9,124.1 288.8,127.8 289.7,131.3Z" style="fill-rule:nonzero;"/>
                        <path d="M316.4,117.5C312.8,117.5 309.8,120.4 309.8,124.1C309.8,127.7 312.8,130.7 316.4,130.7C320,130.7 323,127.8 323,124.1C323,120.4 320.1,117.5 316.4,117.5Z" style="fill-rule:nonzero;"/>
                        <path d="M172.3,140.9C173.2,144.4 176.9,146.5 180.4,145.6C183.9,144.7 186,141.1 185.1,137.5C184.2,134 180.5,131.9 177,132.8C173.4,133.8 171.3,137.4 172.3,140.9Z" style="fill-rule:nonzero;"/>
                        <path d="M192.6,135.5C193.5,139 197.2,141.1 200.7,140.2C204.2,139.3 206.3,135.7 205.4,132.1C204.5,128.6 200.8,126.5 197.3,127.4C193.8,128.3 191.7,132 192.6,135.5Z" style="fill-rule:nonzero;"/>
                        <path d="M213,130C213.9,133.5 217.6,135.6 221.1,134.7C224.6,133.8 226.7,130.2 225.8,126.6C224.9,123.1 221.2,121 217.7,121.9C214.2,122.8 212.1,126.5 213,130Z" style="fill-rule:nonzero;"/>
                        <path d="M238,116.5C234.5,117.4 232.4,121.1 233.3,124.6C234.2,128.1 237.9,130.2 241.4,129.3C244.9,128.4 247,124.8 246.1,121.2C245.1,117.7 241.5,115.6 238,116.5Z" style="fill-rule:nonzero;"/>
                        <path d="M260,110.8C256.4,110.8 253.4,113.7 253.4,117.4C253.4,121.1 256.4,124 260,124C263.6,124 266.6,121.1 266.6,117.4C266.6,113.8 263.7,110.8 260,110.8Z" style="fill-rule:nonzero;"/>
                        <path d="M280.4,105.4C276.8,105.4 273.8,108.3 273.8,112C273.8,115.7 276.8,118.6 280.4,118.6C284,118.6 287,115.7 287,112C287,108.3 284,105.4 280.4,105.4Z" style="fill-rule:nonzero;"/>
                        <path d="M299.1,100.2C295.6,101.1 293.5,104.8 294.4,108.3C295.4,111.8 299,113.9 302.5,113C306,112.1 308.1,108.4 307.2,104.9C306.3,101.4 302.6,99.2 299.1,100.2Z" style="fill-rule:nonzero;"/>
                        <path d="M314.5,101.1C314.5,104.7 317.5,107.7 321.1,107.7C324.7,107.7 327.7,104.8 327.7,101.1C327.7,97.4 324.7,94.5 321.1,94.5C317.5,94.5 314.5,97.5 314.5,101.1Z" style="fill-rule:nonzero;"/>
                        <path d="M161.3,115.2C157.8,116.1 155.7,119.8 156.6,123.3C157.5,126.8 161.2,128.9 164.7,128C168.2,127.1 170.3,123.4 169.4,119.9C168.4,116.4 164.8,114.3 161.3,115.2Z" style="fill-rule:nonzero;"/>
                        <path d="M183.4,109.6C179.8,109.6 176.8,112.5 176.8,116.2C176.8,119.9 179.7,122.8 183.4,122.8C187.1,122.8 190,119.9 190,116.2C190,112.5 187,109.6 183.4,109.6Z" style="fill-rule:nonzero;"/>
                        <path d="M203.7,104.2C200.1,104.2 197.1,107.1 197.1,110.8C197.1,114.4 200,117.4 203.7,117.4C207.4,117.4 210.3,114.5 210.3,110.8C210.3,107.1 207.4,104.2 203.7,104.2Z" style="fill-rule:nonzero;"/>
                        <path d="M222.4,98.9C218.9,99.8 216.8,103.5 217.7,107C218.6,110.5 222.3,112.6 225.8,111.7C229.3,110.8 231.4,107.1 230.5,103.6C229.5,100 225.9,97.9 222.4,98.9Z" style="fill-rule:nonzero;"/>
                        <path d="M237.9,99.8C237.9,103.4 240.8,106.4 244.5,106.4C248.2,106.4 251.1,103.5 251.1,99.8C251.1,96.1 248.2,93.2 244.5,93.2C240.8,93.2 237.9,96.2 237.9,99.8Z" style="fill-rule:nonzero;"/>
                        <path d="M258.4,96C259.4,99.5 263,101.6 266.5,100.7C270,99.8 272.1,96.1 271.2,92.6C270.2,89.1 266.6,87 263.1,87.9C259.6,88.9 257.5,92.5 258.4,96Z" style="fill-rule:nonzero;"/>
                        <path d="M278.8,90.6C279.8,94.1 283.4,96.2 286.9,95.3C290.4,94.4 292.5,90.7 291.6,87.2C290.6,83.7 287,81.6 283.5,82.5C279.9,83.5 277.8,87.1 278.8,90.6Z" style="fill-rule:nonzero;"/>
                        <path d="M298.9,83.4C298.9,87 301.9,90 305.5,90C309.1,90 312.1,87.1 312.1,83.4C312.1,79.7 309.1,76.8 305.5,76.8C301.9,76.8 298.9,79.8 298.9,83.4Z" style="fill-rule:nonzero;"/>
                        <path d="M161.4,100.2C162.3,103.7 165.9,105.8 169.5,104.9C173,104 175.1,100.3 174.2,96.8C173.3,93.3 169.6,91.2 166.1,92.1C162.6,93.1 160.5,96.7 161.4,100.2Z" style="fill-rule:nonzero;"/>
                        <path d="M181.5,93.1C181.5,96.7 184.4,99.7 188.1,99.7C191.8,99.7 194.7,96.8 194.7,93.1C194.7,89.4 191.8,86.5 188.1,86.5C184.4,86.5 181.5,89.4 181.5,93.1Z" style="fill-rule:nonzero;"/>
                        <path d="M202.1,89.3C203,92.8 206.7,94.9 210.2,94C213.7,93.1 215.8,89.4 214.9,85.9C214,82.4 210.3,80.3 206.8,81.2C203.3,82.2 201.1,85.8 202.1,89.3Z" style="fill-rule:nonzero;"/>
                        <path d="M222.5,83.9C223.4,87.4 227,89.5 230.6,88.6C234.1,87.7 236.2,84 235.3,80.5C234.4,77 230.7,74.9 227.2,75.8C223.6,76.8 221.5,80.4 222.5,83.9Z" style="fill-rule:nonzero;"/>
                        <path d="M242.8,78.4C243.7,81.9 247.4,84 250.9,83.1C254.4,82.2 256.5,78.5 255.6,75C254.7,71.5 251,69.4 247.5,70.3C244,71.2 241.9,74.9 242.8,78.4Z" style="fill-rule:nonzero;"/>
                        <path d="M263.2,73C264.2,76.5 267.8,78.6 271.3,77.7C274.8,76.8 276.9,73.1 276,69.6C275,66.1 271.4,64 267.9,64.9C264.3,65.8 262.2,69.5 263.2,73Z" style="fill-rule:nonzero;"/>
                        <path d="M283.2,65.8C283.2,69.4 286.2,72.4 289.8,72.4C293.4,72.4 296.4,69.5 296.4,65.8C296.4,62.1 293.4,59.2 289.8,59.2C286.2,59.2 283.2,62.1 283.2,65.8Z" style="fill-rule:nonzero;"/>
                        <path d="M308.5,54C305,55 302.9,58.6 303.8,62.1C304.8,65.6 308.4,67.7 311.9,66.8C315.4,65.9 317.5,62.3 316.6,58.7C315.7,55.1 312,53 308.5,54Z" style="fill-rule:nonzero;"/>
                        <circle cx="172.4" cy="75.5" r="6.6"/>
                        <path d="M186.5,71.7C187.4,75.2 191.1,77.3 194.6,76.4C198.1,75.5 200.2,71.9 199.3,68.3C198.4,64.8 194.7,62.7 191.2,63.6C187.6,64.6 185.5,68.2 186.5,71.7Z" style="fill-rule:nonzero;"/>
                        <path d="M206.6,64.6C206.6,68.2 209.5,71.2 213.2,71.2C216.9,71.2 219.8,68.3 219.8,64.6C219.8,60.9 216.9,58 213.2,58C209.5,58 206.6,60.9 206.6,64.6Z" style="fill-rule:nonzero;"/>
                        <path d="M233.5,52.5C229.9,52.5 226.9,55.5 226.9,59.1C226.9,62.7 229.8,65.7 233.5,65.7C237.2,65.7 240.1,62.7 240.1,59.1C240.1,55.4 237.2,52.5 233.5,52.5Z" style="fill-rule:nonzero;"/>
                        <path d="M436.4,352C436.4,355.6 439.4,358.6 443,358.6C446.6,358.6 449.6,355.6 449.6,352C449.6,348.4 446.6,345.4 443,345.4C439.3,345.4 436.4,348.4 436.4,352Z" style="fill-rule:nonzero;"/>
                        <path d="M456.7,346.6C456.7,350.2 459.7,353.2 463.3,353.2C466.9,353.2 469.9,350.2 469.9,346.6C469.9,343 466.9,340 463.3,340C459.7,340 456.7,342.9 456.7,346.6Z" style="fill-rule:nonzero;"/>
                        <path d="M477,341.1C477,344.7 480,347.7 483.6,347.7C487.2,347.7 490.2,344.7 490.2,341.1C490.2,337.5 487.2,334.5 483.6,334.5C480,334.5 477,337.4 477,341.1Z" style="fill-rule:nonzero;"/>
                        <circle cx="406.9" cy="339.8" r="6.6"/>
                        <path d="M420.7,334.4C420.7,338 423.7,341 427.3,341C430.9,341 433.9,338 433.9,334.4C433.9,330.8 430.9,327.8 427.3,327.8C423.6,327.8 420.7,330.8 420.7,334.4Z" style="fill-rule:nonzero;"/>
                        <path d="M441.1,328.9C441.1,332.5 444.1,335.5 447.7,335.5C451.3,335.5 454.3,332.5 454.3,328.9C454.3,325.3 451.3,322.3 447.7,322.3C444,322.3 441.1,325.3 441.1,328.9Z" style="fill-rule:nonzero;"/>
                        <path d="M461.5,323.5C461.5,327.1 464.5,330.1 468.1,330.1C471.7,330.1 474.7,327.1 474.7,323.5C474.7,319.9 471.7,316.9 468.1,316.9C464.5,316.9 461.5,319.8 461.5,323.5Z" style="fill-rule:nonzero;"/>
                        <path d="M483.1,321.9C485.2,324.9 489.3,325.5 492.3,323.4C495.3,321.3 495.9,317.2 493.8,314.2C491.7,311.2 487.6,310.6 484.6,312.7C481.6,314.8 481,318.9 483.1,321.9Z" style="fill-rule:nonzero;"/>
                        <path d="M384.7,322.2C384.7,325.8 387.7,328.8 391.3,328.8C394.9,328.8 397.9,325.8 397.9,322.2C397.9,318.6 394.9,315.6 391.3,315.6C387.7,315.6 384.7,318.6 384.7,322.2Z" style="fill-rule:nonzero;"/>
                        <path d="M410,310.4C406.5,311.4 404.4,315 405.3,318.5C406.2,322 409.8,324.1 413.4,323.2C416.9,322.2 419,318.6 418.1,315.1C417.1,311.5 413.5,309.4 410,310.4Z" style="fill-rule:nonzero;"/>
                        <path d="M432.1,304.7C428.5,304.7 425.5,307.7 425.5,311.3C425.5,314.9 428.5,317.9 432.1,317.9C435.7,317.9 438.7,314.9 438.7,311.3C438.7,307.7 435.7,304.7 432.1,304.7Z" style="fill-rule:nonzero;"/>
                        <circle cx="452.4" cy="305.8" r="6.6"/>
                        <path d="M472.8,293.8C469.2,293.8 466.2,296.8 466.2,300.4C466.2,304 469.2,307 472.8,307C476.4,307 479.4,304 479.4,300.4C479.4,296.8 476.4,293.8 472.8,293.8Z" style="fill-rule:nonzero;"/>
                        <path d="M493.1,288.4C489.5,288.4 486.5,291.4 486.5,295C486.5,298.6 489.5,301.6 493.1,301.6C496.7,301.6 499.7,298.6 499.7,295C499.7,291.3 496.7,288.4 493.1,288.4Z" style="fill-rule:nonzero;"/>
                        <path d="M396,292.6C392.4,292.6 389.4,295.6 389.4,299.2C389.4,302.8 392.4,305.8 396,305.8C399.6,305.8 402.6,302.8 402.6,299.2C402.6,295.5 399.7,292.6 396,292.6Z" style="fill-rule:nonzero;"/>
                        <circle cx="416.4" cy="293.7" r="6.6"/>
                        <path d="M430.4,289.9C431.4,293.4 435,295.5 438.5,294.6C442,293.6 444.1,290 443.2,286.5C442.2,283 438.6,280.9 435.1,281.8C431.6,282.8 429.5,286.4 430.4,289.9Z" style="fill-rule:nonzero;"/>
                        <circle cx="457.2" cy="282.7" r="6.6"/>
                        <path d="M470.9,277.4C470.9,281 473.9,284 477.5,284C481.1,284 484.1,281 484.1,277.4C484.1,273.8 481.1,270.8 477.5,270.8C473.9,270.8 470.9,273.7 470.9,277.4Z" style="fill-rule:nonzero;"/>
                        <path d="M491.2,271.8C491.2,275.4 494.2,278.4 497.8,278.4C501.4,278.4 504.4,275.4 504.4,271.8C504.4,268.2 501.4,265.2 497.8,265.2C494.2,265.2 491.2,268.2 491.2,271.8Z" style="fill-rule:nonzero;"/>
                        <circle cx="380.5" cy="281.5" r="6.6"/>
                        <path d="M394.2,276.1C394.2,279.7 397.2,282.7 400.8,282.7C404.4,282.7 407.4,279.7 407.4,276.1C407.4,272.5 404.4,269.5 400.8,269.5C397.2,269.5 394.2,272.4 394.2,276.1Z" style="fill-rule:nonzero;"/>
                        <path d="M414.9,272.5C416,276 419.7,277.9 423.1,276.8C426.6,275.7 428.5,272 427.4,268.6C426.3,265.2 422.6,263.2 419.2,264.3C415.8,265.4 413.8,269 414.9,272.5Z" style="fill-rule:nonzero;"/>
                        <path d="M434.9,265.1C434.9,268.7 437.9,271.7 441.5,271.7C445.1,271.7 448.1,268.7 448.1,265.1C448.1,261.5 445.1,258.5 441.5,258.5C437.9,258.6 434.9,261.5 434.9,265.1Z" style="fill-rule:nonzero;"/>
                        <path d="M455.2,259.6C455.2,263.2 458.2,266.2 461.8,266.2C465.4,266.2 468.4,263.2 468.4,259.6C468.4,256 465.4,253 461.8,253C458.2,253.1 455.2,256 455.2,259.6Z" style="fill-rule:nonzero;"/>
                        <path d="M475.6,254.2C475.6,257.8 478.6,260.8 482.2,260.8C485.8,260.8 488.8,257.8 488.8,254.2C488.8,250.6 485.8,247.6 482.2,247.6C478.5,247.6 475.6,250.6 475.6,254.2Z" style="fill-rule:nonzero;"/>
                        <path d="M378.6,258.4C378.6,262 381.6,265 385.2,265C388.8,265 391.8,262 391.8,258.4C391.8,254.8 388.8,251.8 385.2,251.8C381.5,251.8 378.6,254.8 378.6,258.4Z" style="fill-rule:nonzero;"/>
                        <path d="M405.5,246.4C401.9,246.4 398.9,249.3 398.9,253C398.9,256.6 401.9,259.6 405.5,259.6C409.1,259.6 412.1,256.6 412.1,253C412.1,249.4 409.1,246.4 405.5,246.4Z" style="fill-rule:nonzero;"/>
                        <path d="M424.2,241.2C420.7,242.1 418.6,245.8 419.5,249.3C420.4,252.8 424,254.9 427.6,254C431.1,253.1 433.2,249.4 432.3,245.9C431.3,242.3 427.7,240.2 424.2,241.2Z" style="fill-rule:nonzero;"/>
                        <path d="M446.2,235.5C442.6,235.5 439.6,238.4 439.6,242.1C439.6,245.8 442.6,248.7 446.2,248.7C449.8,248.7 452.8,245.8 452.8,242.1C452.8,238.4 449.8,235.5 446.2,235.5Z" style="fill-rule:nonzero;"/>
                        <path d="M466.6,230C463,230 460,232.9 460,236.6C460,240.2 463,243.2 466.6,243.2C470.2,243.2 473.2,240.3 473.2,236.6C473.2,233 470.2,230 466.6,230Z" style="fill-rule:nonzero;"/>
                        <path d="M487,224.6C483.4,224.6 480.4,227.5 480.4,231.2C480.4,234.8 483.4,237.8 487,237.8C490.6,237.8 493.6,234.9 493.6,231.2C493.5,227.5 490.6,224.6 487,224.6Z" style="fill-rule:nonzero;"/>
                        <path d="M369.5,234.2C365.9,234.2 362.9,237.1 362.9,240.8C362.9,244.5 365.9,247.4 369.5,247.4C373.1,247.4 376.1,244.5 376.1,240.8C376.1,237.2 373.1,234.2 369.5,234.2Z" style="fill-rule:nonzero;"/>
                        <path d="M389.9,228.8C386.3,228.8 383.3,231.7 383.3,235.4C383.3,239.1 386.3,242 389.9,242C393.5,242 396.5,239.1 396.5,235.4C396.5,231.8 393.5,228.8 389.9,228.8Z" style="fill-rule:nonzero;"/>
                        <path d="M403.7,229.9C403.7,233.5 406.7,236.5 410.3,236.5C413.9,236.5 416.9,233.6 416.9,229.9C416.9,226.3 413.9,223.3 410.3,223.3C406.6,223.3 403.7,226.2 403.7,229.9Z" style="fill-rule:nonzero;"/>
                        <path d="M424,224.4C424,228 427,231 430.6,231C434.2,231 437.2,228.1 437.2,224.4C437.2,220.8 434.2,217.8 430.6,217.8C427,217.8 424,220.8 424,224.4Z" style="fill-rule:nonzero;"/>
                        <path d="M444.3,219C444.3,222.6 447.3,225.6 450.9,225.6C454.5,225.6 457.5,222.7 457.5,219C457.5,215.3 454.5,212.4 450.9,212.4C447.2,212.4 444.3,215.4 444.3,219Z" style="fill-rule:nonzero;"/>
                        <circle cx="471.3" cy="213.5" r="6.6"/>
                        <path d="M485.1,208.1C485.1,211.7 488.1,214.7 491.7,214.7C495.3,214.7 498.3,211.8 498.3,208.1C498.3,204.4 495.3,201.5 491.7,201.5C488,201.5 485.1,204.5 485.1,208.1Z" style="fill-rule:nonzero;"/>
                        <circle cx="374.3" cy="217.8" r="6.6"/>
                        <path d="M388.1,212.3C388.1,215.9 391.1,218.9 394.7,218.9C398.3,218.9 401.3,216 401.3,212.3C401.3,208.7 398.3,205.7 394.7,205.7C391,205.7 388.1,208.7 388.1,212.3Z" style="fill-rule:nonzero;"/>
                        <path d="M408.4,206.8C408.4,210.4 411.4,213.4 415,213.4C418.6,213.4 421.6,210.5 421.6,206.8C421.6,203.2 418.6,200.2 415,200.2C411.3,200.2 408.4,203.2 408.4,206.8Z" style="fill-rule:nonzero;"/>
                        <path d="M428.8,201.4C428.8,205 431.8,208 435.4,208C439,208 442,205.1 442,201.4C442,197.8 439,194.8 435.4,194.8C431.8,194.8 428.8,197.7 428.8,201.4Z" style="fill-rule:nonzero;"/>
                        <circle cx="455.6" cy="195.9" r="6.6"/>
                        <path d="M469.4,190.4C469.4,194 472.4,197 476,197C479.6,197 482.6,194.1 482.6,190.4C482.6,186.7 479.6,183.8 476,183.8C472.4,183.8 469.4,186.8 469.4,190.4Z" style="fill-rule:nonzero;"/>
                        <path d="M496.4,178.5C492.8,178.5 489.8,181.4 489.8,185.1C489.8,188.8 492.8,191.7 496.4,191.7C500,191.7 503,188.8 503,185.1C503,181.4 500,178.5 496.4,178.5Z" style="fill-rule:nonzero;"/>
                        <path d="M352,200.1C352,203.7 355,206.7 358.6,206.7C362.2,206.7 365.2,203.8 365.2,200.1C365.2,196.4 362.2,193.5 358.6,193.5C355,193.5 352,196.5 352,200.1Z" style="fill-rule:nonzero;"/>
                        <path d="M372.4,194.6C372.4,198.2 375.4,201.2 379,201.2C382.6,201.2 385.6,198.3 385.6,194.6C385.6,190.9 382.6,188 379,188C375.3,188.1 372.4,191 372.4,194.6Z" style="fill-rule:nonzero;"/>
                        <path d="M399.3,182.6C395.7,182.6 392.7,185.5 392.7,189.2C392.7,192.8 395.7,195.8 399.3,195.8C402.9,195.8 405.9,192.9 405.9,189.2C405.9,185.6 402.9,182.6 399.3,182.6Z" style="fill-rule:nonzero;"/>
                        <circle cx="419.6" cy="183.7" r="6.6"/>
                        <path d="M440.1,171.7C436.5,171.7 433.5,174.6 433.5,178.3C433.5,182 436.5,184.9 440.1,184.9C443.7,184.9 446.7,182 446.7,178.3C446.7,174.6 443.7,171.7 440.1,171.7Z" style="fill-rule:nonzero;"/>
                        <path d="M460.4,166.3C456.8,166.3 453.8,169.2 453.8,172.9C453.8,176.5 456.8,179.5 460.4,179.5C464,179.5 467,176.6 467,172.9C467,169.2 464,166.3 460.4,166.3Z" style="fill-rule:nonzero;"/>
                        <path d="M480.7,160.8C477.1,160.8 474.1,163.7 474.1,167.4C474.1,171.1 477.1,174 480.7,174C484.3,174 487.3,171.1 487.3,167.4C487.3,163.8 484.3,160.8 480.7,160.8Z" style="fill-rule:nonzero;"/>
                        <circle cx="363.4" cy="177" r="6.6"/>
                        <path d="M383.8,164.9C380.2,164.9 377.2,167.8 377.2,171.5C377.2,175.2 380.2,178.1 383.8,178.1C387.4,178.1 390.4,175.2 390.4,171.5C390.4,167.8 387.4,164.9 383.8,164.9Z" style="fill-rule:nonzero;"/>
                        <path d="M397.4,166.1C397.4,169.7 400.4,172.7 404,172.7C407.6,172.7 410.6,169.8 410.6,166.1C410.6,162.5 407.6,159.5 404,159.5C400.4,159.5 397.4,162.5 397.4,166.1Z" style="fill-rule:nonzero;"/>
                        <path d="M417.8,160.7C417.8,164.3 420.8,167.3 424.4,167.3C428,167.3 431,164.4 431,160.7C431,157.1 428,154.1 424.4,154.1C420.7,154.1 417.8,157.1 417.8,160.7Z" style="fill-rule:nonzero;"/>
                        <circle cx="444.8" cy="155.2" r="6.6"/>
                        <path d="M458.6,149.8C458.6,153.4 461.6,156.4 465.2,156.4C468.8,156.4 471.8,153.5 471.8,149.8C471.8,146.1 468.8,143.2 465.2,143.2C461.5,143.2 458.6,146.1 458.6,149.8Z" style="fill-rule:nonzero;"/>
                        <path d="M478.9,144.3C478.9,147.9 481.9,150.9 485.5,150.9C489.1,150.9 492.1,148 492.1,144.3C492.1,140.6 489.1,137.7 485.5,137.7C481.8,137.7 478.9,140.6 478.9,144.3Z" style="fill-rule:nonzero;"/>
                        <circle cx="347.7" cy="159.4" r="6.6"/>
                        <path d="M361.5,154C361.5,157.6 364.5,160.6 368.1,160.6C371.7,160.6 374.7,157.7 374.7,154C374.7,150.3 371.7,147.4 368.1,147.4C364.5,147.4 361.5,150.3 361.5,154Z" style="fill-rule:nonzero;"/>
                        <path d="M381.8,148.5C381.8,152.1 384.8,155.1 388.4,155.1C392,155.1 395,152.2 395,148.5C395,144.9 392,141.9 388.4,141.9C384.7,141.9 381.8,144.8 381.8,148.5Z" style="fill-rule:nonzero;"/>
                        <path d="M402.2,143C402.2,146.6 405.2,149.6 408.8,149.6C412.4,149.6 415.4,146.7 415.4,143C415.4,139.4 412.4,136.4 408.8,136.4C405.2,136.4 402.2,139.4 402.2,143Z" style="fill-rule:nonzero;"/>
                        <path d="M422.6,137.6C422.6,141.2 425.6,144.2 429.2,144.2C432.8,144.2 435.8,141.3 435.8,137.6C435.8,134 432.8,131 429.2,131C425.5,131 422.6,133.9 422.6,137.6Z" style="fill-rule:nonzero;"/>
                        <path d="M442.9,132.1C442.9,135.7 445.9,138.7 449.5,138.7C453.1,138.7 456.1,135.8 456.1,132.1C456.1,128.4 453.1,125.5 449.5,125.5C445.8,125.5 442.9,128.5 442.9,132.1Z" style="fill-rule:nonzero;"/>
                        <circle cx="469.8" cy="126.7" r="6.6"/>
                        <path d="M490.1,114.6C486.5,114.6 483.5,117.5 483.5,121.2C483.5,124.9 486.5,127.8 490.1,127.8C493.7,127.8 496.7,124.9 496.7,121.2C496.7,117.5 493.8,114.6 490.1,114.6Z" style="fill-rule:nonzero;"/>
                        <path d="M345.8,136.3C345.8,139.9 348.8,142.9 352.4,142.9C356,142.9 359,140 359,136.3C359,132.6 356,129.7 352.4,129.7C348.8,129.7 345.8,132.6 345.8,136.3Z" style="fill-rule:nonzero;"/>
                        <path d="M366.2,130.9C366.2,134.5 369.2,137.5 372.8,137.5C376.4,137.5 379.4,134.6 379.4,130.9C379.4,127.3 376.4,124.3 372.8,124.3C369.1,124.3 366.2,127.2 366.2,130.9Z" style="fill-rule:nonzero;"/>
                        <path d="M393.1,118.8C389.5,118.8 386.5,121.7 386.5,125.4C386.5,129.1 389.5,132 393.1,132C396.7,132 399.7,129.1 399.7,125.4C399.7,121.8 396.8,118.8 393.1,118.8Z" style="fill-rule:nonzero;"/>
                        <path d="M413.5,113.3C409.9,113.3 406.9,116.2 406.9,119.9C406.9,123.5 409.9,126.5 413.5,126.5C417.1,126.5 420.1,123.6 420.1,119.9C420.1,116.3 417.1,113.3 413.5,113.3Z" style="fill-rule:nonzero;"/>
                        <path d="M433.9,107.9C430.3,107.9 427.3,110.8 427.3,114.5C427.3,118.2 430.3,121.1 433.9,121.1C437.5,121.1 440.5,118.2 440.5,114.5C440.5,110.8 437.5,107.9 433.9,107.9Z" style="fill-rule:nonzero;"/>
                        <path d="M454.2,102.5C450.6,102.5 447.6,105.4 447.6,109.1C447.6,112.8 450.6,115.7 454.2,115.7C457.8,115.7 460.8,112.8 460.8,109.1C460.8,105.4 457.8,102.5 454.2,102.5Z" style="fill-rule:nonzero;"/>
                        <path d="M474.5,97C470.9,97 467.9,99.9 467.9,103.6C467.9,107.2 470.9,110.2 474.5,110.2C478.1,110.2 481.1,107.3 481.1,103.6C481.1,99.9 478.2,97 474.5,97Z" style="fill-rule:nonzero;"/>
                        <path d="M488.3,98.2C488.3,101.8 491.3,104.8 494.9,104.8C498.5,104.8 501.5,101.9 501.5,98.2C501.5,94.5 498.5,91.6 494.9,91.6C491.2,91.6 488.3,94.5 488.3,98.2Z" style="fill-rule:nonzero;"/>
                        <path d="M336.8,112.1C333.2,112.1 330.2,115 330.2,118.7C330.2,122.4 333.2,125.3 336.8,125.3C340.4,125.3 343.4,122.4 343.4,118.7C343.4,115 340.5,112.1 336.8,112.1Z" style="fill-rule:nonzero;"/>
                        <circle cx="357.2" cy="113.3" r="6.6"/>
                        <g transform="matrix(0.9871,-0.1602,0.1602,0.9871,-12.3941,61.8678)">
                            <circle cx="377.5" cy="107.8" r="6.6"/>
                        </g>
                        <path d="M391.3,102.3C391.3,105.9 394.3,108.9 397.9,108.9C401.5,108.9 404.5,106 404.5,102.3C404.5,98.7 401.5,95.7 397.9,95.7C394.3,95.7 391.3,98.7 391.3,102.3Z" style="fill-rule:nonzero;"/>
                        <path d="M411.6,96.9C411.6,100.5 414.6,103.5 418.2,103.5C421.8,103.5 424.8,100.6 424.8,96.9C424.8,93.3 421.8,90.3 418.2,90.3C414.6,90.3 411.6,93.2 411.6,96.9Z" style="fill-rule:nonzero;"/>
                        <path d="M432,91.4C432,95 435,98 438.6,98C442.2,98 445.2,95.1 445.2,91.4C445.2,87.7 442.2,84.8 438.6,84.8C435,84.8 432,87.8 432,91.4Z" style="fill-rule:nonzero;"/>
                        <path d="M452.3,85.9C452.3,89.5 455.3,92.5 458.9,92.5C462.5,92.5 465.5,89.6 465.5,85.9C465.5,82.3 462.5,79.3 458.9,79.3C455.3,79.3 452.3,82.3 452.3,85.9Z" style="fill-rule:nonzero;"/>
                        <path d="M472.7,80.6C472.7,84.2 475.7,87.2 479.3,87.2C482.9,87.2 485.9,84.3 485.9,80.6C485.9,76.9 482.9,74 479.3,74C475.6,74 472.7,76.9 472.7,80.6Z" style="fill-rule:nonzero;"/>
                        <circle cx="499.6" cy="75.1" r="6.6"/>
                        <path d="M334.9,95.6C334.9,99.2 337.9,102.2 341.5,102.2C345.1,102.2 348.1,99.3 348.1,95.6C348.1,91.9 345.1,89 341.5,89C337.9,89 334.9,92 334.9,95.6Z" style="fill-rule:nonzero;"/>
                        <path d="M355.3,90.2C355.3,93.8 358.3,96.8 361.9,96.8C365.5,96.8 368.5,93.9 368.5,90.2C368.5,86.6 365.5,83.6 361.9,83.6C358.3,83.6 355.3,86.5 355.3,90.2Z" style="fill-rule:nonzero;"/>
                        <path d="M375.6,84.7C375.6,88.3 378.6,91.3 382.2,91.3C385.8,91.3 388.8,88.4 388.8,84.7C388.8,81 385.8,78.1 382.2,78.1C378.6,78.1 375.6,81.1 375.6,84.7Z" style="fill-rule:nonzero;"/>
                        <path d="M396,79.2C396,82.8 399,85.8 402.6,85.8C406.2,85.8 409.2,82.9 409.2,79.2C409.2,75.6 406.2,72.6 402.6,72.6C398.9,72.6 396,75.6 396,79.2Z" style="fill-rule:nonzero;"/>
                        <path d="M416.4,73.8C416.4,77.4 419.4,80.4 423,80.4C426.6,80.4 429.6,77.5 429.6,73.8C429.6,70.1 426.6,67.2 423,67.2C419.3,67.2 416.4,70.2 416.4,73.8Z" style="fill-rule:nonzero;"/>
                        <path d="M436.7,68.3C436.7,71.9 439.7,74.9 443.3,74.9C446.9,74.9 449.9,72 449.9,68.3C449.9,64.7 446.9,61.7 443.3,61.7C439.6,61.8 436.7,64.7 436.7,68.3Z" style="fill-rule:nonzero;"/>
                        <path d="M457.1,62.9C457.1,66.5 460.1,69.5 463.7,69.5C467.3,69.5 470.3,66.6 470.3,62.9C470.3,59.3 467.3,56.3 463.7,56.3C460,56.3 457.1,59.2 457.1,62.9Z" style="fill-rule:nonzero;"/>
                        <path d="M319.3,77.9C319.3,81.5 322.3,84.5 325.9,84.5C329.5,84.5 332.5,81.6 332.5,77.9C332.5,74.2 329.5,71.3 325.9,71.3C322.3,71.3 319.3,74.3 319.3,77.9Z" style="fill-rule:nonzero;"/>
                        <path d="M339.6,72.5C339.6,76.1 342.6,79.1 346.2,79.1C349.8,79.1 352.8,76.2 352.8,72.5C352.8,68.8 349.8,65.9 346.2,65.9C342.6,65.9 339.6,68.9 339.6,72.5Z" style="fill-rule:nonzero;"/>
                        <path d="M360,67.1C360,70.7 363,73.7 366.6,73.7C370.2,73.7 373.2,70.8 373.2,67.1C373.2,63.5 370.2,60.5 366.6,60.5C363,60.5 360,63.4 360,67.1Z" style="fill-rule:nonzero;"/>
                        <path d="M386.9,55C383.3,55 380.3,58 380.3,61.6C380.3,65.2 383.3,68.2 386.9,68.2C390.5,68.2 393.5,65.3 393.5,61.6C393.5,58 390.6,55 386.9,55Z" style="fill-rule:nonzero;"/>
                    </g>
                </g>
            </g>
        </g>
    </g>
</svg>
