<?xml version="1.0" encoding="UTF-8" standalone="no"?>
<!DOCTYPE svg PUBLIC "-//W3C//DTD SVG 1.1//EN" "http://www.w3.org/Graphics/SVG/1.1/DTD/svg11.dtd">
<svg width="100%" height="100%" viewBox="0 0 1000 1000" version="1.1" xmlns="http://www.w3.org/2000/svg" xmlns:xlink="http://www.w3.org/1999/xlink" xml:space="preserve" xmlns:serif="http://www.serif.com/" style="fill-rule:evenodd;clip-rule:evenodd;stroke-linejoin:round;stroke-miterlimit:2;">
    <g id="Layer-1" serif:id="Layer 1">
        <g transform="matrix(0,-1.41243,-1.41243,0,500,-7.10543e-15)">
            <path d="M-354,-354C-549.498,-354 -708,-195.498 -708,0C-708,195.498 -549.498,354 -354,354C-158.502,354 0,195.498 0,0C0,-195.539 -158.502,-354 -354,-354" style="fill:rgb(32,129,226);fill-rule:nonzero;"/>
        </g>
        <g transform="matrix(1.41243,0,0,1.41243,246.679,313.785)">
            <path d="M0,143.736L1.527,141.335L93.617,-2.728C94.962,-4.837 98.126,-4.618 99.145,-2.327C114.529,32.151 127.804,75.032 121.585,101.728C118.93,112.712 111.656,127.587 103.473,141.335C102.418,143.336 101.254,145.299 100.018,147.191C99.436,148.063 98.454,148.573 97.398,148.573L2.691,148.573C0.145,148.573 -1.346,145.808 0,143.736" style="fill:white;fill-rule:nonzero;"/>
        </g>
        <g transform="matrix(1.41243,0,0,1.41243,826.444,400.189)">
            <path d="M0,109.33L0,132.134C0,133.443 -0.8,134.606 -1.964,135.116C-9.092,138.171 -33.497,149.373 -43.644,163.484C-69.539,199.527 -89.324,251.064 -133.551,251.064L-318.058,251.064C-383.45,251.064 -436.442,197.892 -436.442,132.279L-436.442,130.17C-436.442,128.424 -435.024,127.006 -433.278,127.006L-330.423,127.006C-328.386,127.006 -326.896,128.896 -327.077,130.897C-327.804,137.589 -326.567,144.427 -323.403,150.645C-317.293,163.049 -304.637,170.796 -290.961,170.796L-240.043,170.796L-240.043,131.043L-290.379,131.043C-292.961,131.043 -294.489,128.059 -292.998,125.951C-292.453,125.114 -291.834,124.242 -291.18,123.26C-286.415,116.495 -279.614,105.983 -272.849,94.017C-268.23,85.944 -263.757,77.324 -260.156,68.668C-259.428,67.104 -258.847,65.503 -258.265,63.939C-257.283,61.175 -256.264,58.593 -255.537,56.011C-254.809,53.828 -254.228,51.537 -253.646,49.391C-251.936,42.044 -251.209,34.261 -251.209,26.187C-251.209,23.023 -251.354,19.713 -251.645,16.549C-251.791,13.094 -252.227,9.639 -252.664,6.184C-252.955,3.128 -253.5,0.109 -254.082,-3.055C-254.809,-7.673 -255.828,-12.256 -256.992,-16.876L-257.392,-18.621C-258.265,-21.785 -258.992,-24.804 -260.01,-27.968C-262.884,-37.898 -266.193,-47.571 -269.685,-56.628C-270.958,-60.229 -272.413,-63.684 -273.868,-67.138C-276.013,-72.339 -278.196,-77.067 -280.196,-81.541C-281.214,-83.578 -282.087,-85.433 -282.959,-87.324C-283.942,-89.47 -284.96,-91.616 -285.979,-93.652C-286.706,-95.216 -287.542,-96.671 -288.125,-98.126L-294.344,-109.619C-295.217,-111.183 -293.762,-113.038 -292.053,-112.565L-253.136,-102.018L-253.027,-102.018C-252.955,-102.018 -252.918,-101.982 -252.882,-101.982L-247.754,-100.563L-242.116,-98.962L-240.043,-98.381L-240.043,-121.512C-240.043,-132.678 -231.096,-141.734 -220.039,-141.734C-214.511,-141.734 -209.492,-139.479 -205.891,-135.806C-202.291,-132.132 -200.036,-127.113 -200.036,-121.512L-200.036,-87.178L-195.89,-86.015C-195.562,-85.905 -195.235,-85.76 -194.944,-85.542C-193.925,-84.778 -192.471,-83.651 -190.616,-82.269C-189.161,-81.105 -187.597,-79.687 -185.706,-78.232C-181.96,-75.213 -177.486,-71.321 -172.576,-66.847C-171.267,-65.72 -169.994,-64.556 -168.83,-63.393C-162.501,-57.501 -155.409,-50.59 -148.645,-42.953C-146.753,-40.807 -144.898,-38.625 -143.007,-36.334C-141.116,-34.005 -139.115,-31.714 -137.37,-29.422C-135.078,-26.368 -132.605,-23.204 -130.459,-19.894C-129.441,-18.33 -128.277,-16.73 -127.295,-15.166C-124.531,-10.983 -122.095,-6.655 -119.767,-2.327C-118.784,-0.327 -117.767,1.855 -116.894,4.001C-114.312,9.784 -112.274,15.676 -110.965,21.568C-110.565,22.841 -110.274,24.223 -110.128,25.46L-110.128,25.751C-109.692,27.497 -109.547,29.351 -109.401,31.243C-108.819,37.28 -109.11,43.317 -110.419,49.391C-110.965,51.974 -111.692,54.41 -112.565,56.993C-113.438,59.466 -114.312,62.048 -115.438,64.485C-117.62,69.54 -120.203,74.596 -123.258,79.324C-124.24,81.07 -125.404,82.925 -126.568,84.671C-127.841,86.525 -129.15,88.271 -130.314,89.981C-131.914,92.163 -133.623,94.454 -135.369,96.491C-136.934,98.637 -138.533,100.783 -140.279,102.674C-142.716,105.547 -145.044,108.275 -147.481,110.893C-148.936,112.602 -150.499,114.349 -152.1,115.913C-153.663,117.658 -155.264,119.222 -156.719,120.677C-159.155,123.114 -161.192,125.005 -162.902,126.569L-166.902,130.243C-167.484,130.752 -168.248,131.043 -169.048,131.043L-200.036,131.043L-200.036,170.796L-161.047,170.796C-152.318,170.796 -144.025,167.704 -137.333,162.03C-135.042,160.03 -125.04,151.374 -113.221,138.316C-112.82,137.88 -112.311,137.553 -111.729,137.408L-4.037,106.274C-2.036,105.693 0,107.22 0,109.33" style="fill:white;fill-rule:nonzero;"/>
        </g>
    </g>
</svg>
