<?xml version="1.0" encoding="UTF-8" standalone="no"?>
<!DOCTYPE svg PUBLIC "-//W3C//DTD SVG 1.1//EN" "http://www.w3.org/Graphics/SVG/1.1/DTD/svg11.dtd">
<svg width="100%" height="100%" viewBox="0 0 338 309" version="1.1" xmlns="http://www.w3.org/2000/svg" xmlns:xlink="http://www.w3.org/1999/xlink" xml:space="preserve" xmlns:serif="http://www.serif.com/" style="fill-rule:evenodd;clip-rule:evenodd;stroke-miterlimit:10;">
    <g transform="matrix(4.16667,0,0,4.16667,-4625,-95.8333)">
        <path id="icon_x3B__00000164482046826366316920000004484167655964849042_" d="M1184.3,68.3L1167,73.3C1166.9,73.3 1166.8,73.4 1166.8,73.5C1164.9,75.6 1163.3,77 1162.9,77.3C1161.8,78.2 1160.5,78.7 1159.1,78.7L1152.9,78.7L1152.9,72.3L1157.9,72.3C1158,72.3 1158.1,72.2 1158.2,72.2L1158.8,71.6C1159.1,71.4 1159.4,71 1159.8,70.7C1160,70.5 1160.3,70.2 1160.5,69.9C1160.8,69.7 1161,69.4 1161.2,69.1C1161.6,68.7 1162,68.2 1162.4,67.8C1162.7,67.5 1162.9,67.1 1163.2,66.8C1163.5,66.5 1163.8,66.1 1164,65.8C1164.2,65.5 1164.4,65.2 1164.6,65C1164.8,64.7 1165,64.4 1165.1,64.1C1165.6,63.3 1166,62.5 1166.3,61.7C1166.5,61.3 1166.6,60.9 1166.8,60.5C1166.9,60.1 1167.1,59.7 1167.1,59.3C1167.3,58.3 1167.4,57.4 1167.3,56.4C1167.3,56.1 1167.2,55.8 1167.2,55.5C1167.2,55.3 1167.1,55.1 1167.1,54.9C1166.9,53.9 1166.6,53 1166.2,52.1C1166.1,51.8 1165.9,51.4 1165.7,51.1C1165.3,50.4 1164.9,49.7 1164.5,49C1164.3,48.8 1164.2,48.5 1164,48.2C1163.7,47.7 1163.3,47.2 1162.9,46.7C1162.6,46.3 1162.3,46 1162,45.6C1161.7,45.2 1161.4,44.9 1161.1,44.5C1160,43.3 1158.9,42.2 1157.9,41.2C1157.7,41 1157.5,40.8 1157.3,40.7C1156.5,40 1155.8,39.4 1155.2,38.9C1154.9,38.7 1154.6,38.4 1154.4,38.2C1154.1,38 1153.9,37.8 1153.7,37.7C1153.6,37.7 1153.6,37.6 1153.5,37.6L1152.8,37.4L1152.8,31.9C1152.8,31 1152.4,30.2 1151.9,29.6C1151.3,29 1150.5,28.6 1149.6,28.6C1147.8,28.6 1146.4,30.1 1146.4,31.8L1146.4,35.5L1145.2,35.1L1144.4,34.9L1138.2,33.2C1137.9,33.1 1137.7,33.4 1137.8,33.7L1138.8,35.5C1138.9,35.7 1139,36 1139.1,36.2C1139.3,36.5 1139.4,36.9 1139.6,37.2C1139.7,37.5 1139.9,37.8 1140,38.1C1140.3,38.8 1140.7,39.6 1141,40.4C1141.2,40.9 1141.5,41.5 1141.7,42.1C1142.3,43.6 1142.8,45.1 1143.3,46.7C1143.5,47.2 1143.6,47.7 1143.7,48.2L1143.8,48.5C1144,49.2 1144.1,50 1144.3,50.7C1144.4,51.2 1144.5,51.7 1144.5,52.2C1144.6,52.7 1144.6,53.3 1144.7,53.9C1144.8,54.4 1144.8,54.9 1144.8,55.4C1144.8,56.7 1144.7,57.9 1144.4,59.1C1144.3,59.4 1144.2,59.8 1144.1,60.2C1144,60.6 1143.8,61 1143.7,61.5C1143.6,61.7 1143.5,62 1143.4,62.3C1142.8,63.7 1142.1,65.1 1141.4,66.4C1140.3,68.3 1139.2,70 1138.5,71.1C1138.4,71.3 1138.3,71.4 1138.2,71.5C1138,71.8 1138.2,72.3 1138.6,72.3L1146.7,72.3L1146.7,78.7L1138.5,78.7C1136.3,78.7 1134.3,77.5 1133.3,75.5C1132.8,74.5 1132.6,73.4 1132.7,72.3C1132.7,72 1132.5,71.7 1132.2,71.7L1115.7,71.7C1115.4,71.7 1115.2,71.9 1115.2,72.2L1115.2,72.5C1115.2,83 1123.7,91.5 1134.2,91.5L1163.8,91.5C1170.9,91.5 1174.1,83.2 1178.2,77.4C1179.8,75.1 1183.7,73.3 1184.9,72.8C1185.1,72.7 1185.2,72.5 1185.2,72.3L1185.2,68.6C1185,68.4 1184.6,68.2 1184.3,68.3Z" style="fill:white;fill-rule:nonzero;stroke:rgb(245,245,245);stroke-width:1px;"/>
    </g>
</svg>
