<?xml version="1.0" encoding="UTF-8" standalone="no"?>
<!DOCTYPE svg PUBLIC "-//W3C//DTD SVG 1.1//EN" "http://www.w3.org/Graphics/SVG/1.1/DTD/svg11.dtd">
<svg width="100%" height="100%" viewBox="0 0 467 467" version="1.1" xmlns="http://www.w3.org/2000/svg" xmlns:xlink="http://www.w3.org/1999/xlink" xml:space="preserve" xmlns:serif="http://www.serif.com/" style="fill-rule:evenodd;clip-rule:evenodd;stroke-miterlimit:10;">
    <g transform="matrix(4.16667,0,0,4.16667,-4558.33,-16.6667)">
        <g id="opensea_hover">
            <circle id="button._00000125579206037880348710000002990275031235182762_" cx="1150" cy="60" r="50" style="fill:white;stroke:rgb(245,245,245);stroke-width:1px;"/>
            <path id="shadow_x3B__00000057857740280933712320000008936220030812106891_" d="M1179.3,73.3L1162,78.3C1161.9,78.3 1161.8,78.4 1161.8,78.5C1159.9,80.6 1158.3,82 1157.9,82.3C1156.8,83.2 1155.5,83.7 1154.1,83.7L1147.9,83.7L1147.9,77.3L1152.9,77.3C1153,77.3 1153.1,77.2 1153.2,77.2L1153.8,76.6C1154.1,76.4 1154.4,76 1154.8,75.7C1155,75.5 1155.3,75.2 1155.5,74.9C1155.8,74.7 1156,74.4 1156.2,74.1C1156.6,73.7 1157,73.2 1157.4,72.8C1157.7,72.5 1157.9,72.1 1158.2,71.8C1158.5,71.5 1158.8,71.1 1159,70.8C1159.2,70.5 1159.4,70.2 1159.6,70C1159.8,69.7 1160,69.4 1160.1,69.1C1160.6,68.3 1161,67.5 1161.3,66.7C1161.5,66.3 1161.6,65.9 1161.8,65.5C1161.9,65.1 1162.1,64.7 1162.1,64.3C1162.3,63.3 1162.4,62.4 1162.3,61.4C1162.3,61.1 1162.2,60.8 1162.2,60.5C1162.2,60.3 1162.1,60.1 1162.1,59.9C1161.9,58.9 1161.6,58 1161.2,57.1C1161.1,56.8 1160.9,56.4 1160.7,56.1C1160.3,55.4 1159.9,54.7 1159.5,54C1159.3,53.8 1159.2,53.5 1159,53.2C1158.7,52.7 1158.3,52.2 1157.9,51.7C1157.6,51.3 1157.3,51 1157,50.6C1156.7,50.2 1156.4,49.9 1156.1,49.5C1155,48.3 1153.9,47.2 1152.9,46.2C1152.7,46 1152.5,45.8 1152.3,45.7C1151.5,45 1150.8,44.4 1150.2,43.9C1149.9,43.7 1149.6,43.4 1149.4,43.2C1149.1,43 1148.9,42.8 1148.7,42.7C1148.6,42.7 1148.6,42.6 1148.5,42.6L1147.8,42.4L1147.8,36.9C1147.8,36 1147.4,35.2 1146.9,34.6C1146.4,34 1145.5,33.6 1144.6,33.6C1142.8,33.6 1141.4,35.1 1141.4,36.8L1141.4,40.5L1140.2,40.1L1139.4,39.9L1133.2,38.2C1132.9,38.1 1132.7,38.4 1132.8,38.7L1133.8,40.5C1133.9,40.7 1134,41 1134.1,41.2C1134.3,41.5 1134.4,41.9 1134.6,42.2C1134.7,42.5 1134.9,42.8 1135,43.1C1135.3,43.8 1135.7,44.6 1136,45.4C1136.2,45.9 1136.5,46.5 1136.7,47.1C1137.3,48.6 1137.8,50.1 1138.3,51.7C1138.5,52.2 1138.6,52.7 1138.7,53.2L1138.8,53.5C1139,54.2 1139.1,55 1139.3,55.7C1139.4,56.2 1139.5,56.7 1139.5,57.2C1139.6,57.7 1139.6,58.3 1139.7,58.9C1139.8,59.4 1139.8,59.9 1139.8,60.4C1139.8,61.7 1139.7,62.9 1139.4,64.1C1139.3,64.4 1139.2,64.8 1139.1,65.2C1139,65.6 1138.8,66 1138.7,66.5C1138.6,66.7 1138.5,67 1138.4,67.3C1137.8,68.7 1137.1,70.1 1136.4,71.4C1135.3,73.3 1134.2,75 1133.5,76.1C1133.4,76.3 1133.3,76.4 1133.2,76.5C1133,76.8 1133.2,77.3 1133.6,77.3L1141.7,77.3L1141.7,83.7L1133.5,83.7C1131.3,83.7 1129.3,82.5 1128.3,80.5C1127.8,79.5 1127.6,78.4 1127.7,77.3C1127.7,77 1127.5,76.7 1127.2,76.7L1110.7,76.7C1110.4,76.7 1110.2,76.9 1110.2,77.2L1110.2,77.5C1110.2,88 1118.7,96.5 1129.2,96.5L1158.8,96.5C1165.9,96.5 1169.1,88.2 1173.2,82.4C1174.8,80.1 1178.7,78.3 1179.9,77.8C1180.1,77.7 1180.2,77.5 1180.2,77.3L1180.2,73.6C1180,73.4 1179.6,73.2 1179.3,73.3Z" style="fill:rgb(235,235,235);fill-rule:nonzero;"/>
            <path id="icon_x3B__00000031200398432388849360000013946570169133080492_" d="M1184.3,68.3L1167,73.3C1166.9,73.3 1166.8,73.4 1166.8,73.5C1164.9,75.6 1163.3,77 1162.9,77.3C1161.8,78.2 1160.5,78.7 1159.1,78.7L1152.9,78.7L1152.9,72.3L1157.9,72.3C1158,72.3 1158.1,72.2 1158.2,72.2L1158.8,71.6C1159.1,71.4 1159.4,71 1159.8,70.7C1160,70.5 1160.3,70.2 1160.5,69.9C1160.8,69.7 1161,69.4 1161.2,69.1C1161.6,68.7 1162,68.2 1162.4,67.8C1162.7,67.5 1162.9,67.1 1163.2,66.8C1163.5,66.5 1163.8,66.1 1164,65.8C1164.2,65.5 1164.4,65.2 1164.6,65C1164.8,64.7 1165,64.4 1165.1,64.1C1165.6,63.3 1166,62.5 1166.3,61.7C1166.5,61.3 1166.6,60.9 1166.8,60.5C1166.9,60.1 1167.1,59.7 1167.1,59.3C1167.3,58.3 1167.4,57.4 1167.3,56.4C1167.3,56.1 1167.2,55.8 1167.2,55.5C1167.2,55.3 1167.1,55.1 1167.1,54.9C1166.9,53.9 1166.6,53 1166.2,52.1C1166.1,51.8 1165.9,51.4 1165.7,51.1C1165.3,50.4 1164.9,49.7 1164.5,49C1164.3,48.8 1164.2,48.5 1164,48.2C1163.7,47.7 1163.3,47.2 1162.9,46.7C1162.6,46.3 1162.3,46 1162,45.6C1161.7,45.2 1161.4,44.9 1161.1,44.5C1160,43.3 1158.9,42.2 1157.9,41.2C1157.7,41 1157.5,40.8 1157.3,40.7C1156.5,40 1155.8,39.4 1155.2,38.9C1154.9,38.7 1154.6,38.4 1154.4,38.2C1154.1,38 1153.9,37.8 1153.7,37.7C1153.6,37.7 1153.6,37.6 1153.5,37.6L1152.8,37.4L1152.8,31.9C1152.8,31 1152.4,30.2 1151.9,29.6C1151.3,29 1150.5,28.6 1149.6,28.6C1147.8,28.6 1146.4,30.1 1146.4,31.8L1146.4,35.5L1145.2,35.1L1144.4,34.9L1138.2,33.2C1137.9,33.1 1137.7,33.4 1137.8,33.7L1138.8,35.5C1138.9,35.7 1139,36 1139.1,36.2C1139.3,36.5 1139.4,36.9 1139.6,37.2C1139.7,37.5 1139.9,37.8 1140,38.1C1140.3,38.8 1140.7,39.6 1141,40.4C1141.2,40.9 1141.5,41.5 1141.7,42.1C1142.3,43.6 1142.8,45.1 1143.3,46.7C1143.5,47.2 1143.6,47.7 1143.7,48.2L1143.8,48.5C1144,49.2 1144.1,50 1144.3,50.7C1144.4,51.2 1144.5,51.7 1144.5,52.2C1144.6,52.7 1144.6,53.3 1144.7,53.9C1144.8,54.4 1144.8,54.9 1144.8,55.4C1144.8,56.7 1144.7,57.9 1144.4,59.1C1144.3,59.4 1144.2,59.8 1144.1,60.2C1144,60.6 1143.8,61 1143.7,61.5C1143.6,61.7 1143.5,62 1143.4,62.3C1142.8,63.7 1142.1,65.1 1141.4,66.4C1140.3,68.3 1139.2,70 1138.5,71.1C1138.4,71.3 1138.3,71.4 1138.2,71.5C1138,71.8 1138.2,72.3 1138.6,72.3L1146.7,72.3L1146.7,78.7L1138.5,78.7C1136.3,78.7 1134.3,77.5 1133.3,75.5C1132.8,74.5 1132.6,73.4 1132.7,72.3C1132.7,72 1132.5,71.7 1132.2,71.7L1115.7,71.7C1115.4,71.7 1115.2,71.9 1115.2,72.2L1115.2,72.5C1115.2,83 1123.7,91.5 1134.2,91.5L1163.8,91.5C1170.9,91.5 1174.1,83.2 1178.2,77.4C1179.8,75.1 1183.7,73.3 1184.9,72.8C1185.1,72.7 1185.2,72.5 1185.2,72.3L1185.2,68.6C1185,68.4 1184.6,68.2 1184.3,68.3Z" style="fill:rgb(100,0,250);fill-rule:nonzero;stroke:rgb(90,0,240);stroke-width:1px;"/>
        </g>
    </g>
</svg>
