<?xml version="1.0" encoding="UTF-8" standalone="no"?>
<!DOCTYPE svg PUBLIC "-//W3C//DTD SVG 1.1//EN" "http://www.w3.org/Graphics/SVG/1.1/DTD/svg11.dtd">
<svg width="100%" height="100%" viewBox="0 0 342 284" version="1.1" xmlns="http://www.w3.org/2000/svg" xmlns:xlink="http://www.w3.org/1999/xlink" xml:space="preserve" xmlns:serif="http://www.serif.com/" style="fill-rule:evenodd;clip-rule:evenodd;stroke-miterlimit:10;">
    <g transform="matrix(4.16667,0,0,4.16667,-3829.17,-108.333)">
        <path id="icon_x3B__00000145777719024812437450000000303607524011328140_" d="M995,38.3C992.4,39.4 989.7,40.2 986.7,40.6C989.7,38.8 992,36 993,32.7C990.2,34.3 987.1,35.5 983.9,36.2C981.3,33.4 977.5,31.7 973.4,31.7C965.5,31.7 959.1,38.1 959.1,46C959.1,47.1 959.2,48.2 959.5,49.3C947.6,48.7 937,43 929.9,34.3C928.7,36.4 927.9,38.9 927.9,41.5C927.9,46.5 930.4,50.9 934.3,53.4C932,53.3 929.7,52.7 927.8,51.6L927.8,51.8C927.8,58.8 932.8,64.5 939.3,65.9C938.1,66.2 936.8,66.4 935.5,66.4C934.6,66.4 933.7,66.3 932.8,66.1C934.6,71.8 939.9,76 946.2,76.1C941.3,79.9 935.1,82.3 928.4,82.3C927.2,82.3 926.1,82.2 925,82.1C931.3,86.2 938.9,88.6 947,88.6C973.4,88.6 987.9,66.7 987.9,47.7L987.9,45.9C990.6,43.7 993.1,41.2 995,38.3Z" style="fill:white;fill-rule:nonzero;stroke:rgb(245,245,245);stroke-width:1px;"/>
    </g>
</svg>
